<svg width="24" height="24" viewBox="0 0 24 24" fill="none" xmlns="http://www.w3.org/2000/svg">
<path d="M9.364 18.5L8.432 19.432C7.58808 20.276 6.44348 20.7501 5.25 20.7501C4.05652 20.7501 2.91192 20.276 2.068 19.432C1.22408 18.5881 0.749973 17.4435 0.749973 16.25C0.749973 15.0566 1.22408 13.912 2.068 13.068L6.841 8.29403C7.64122 7.492 8.71453 7.02133 9.84658 6.97602C10.9786 6.9307 12.0861 7.31407 12.9479 8.04957C13.8097 8.78507 14.3623 9.81858 14.4954 10.9437C14.6285 12.0688 14.3323 13.2027 13.666 14.119" stroke="white" stroke-width="1.5" stroke-linecap="round" stroke-linejoin="round"/>
<path d="M14.818 5.56705L15.568 4.81705C16.4119 3.97313 17.5565 3.49902 18.75 3.49902C19.9435 3.49902 21.0881 3.97313 21.932 4.81705C22.7759 5.66097 23.25 6.80557 23.25 7.99905C23.25 9.19253 22.7759 10.3371 21.932 11.1811L17.159 15.9541C16.3586 16.7557 15.2853 17.2261 14.1534 17.2711C13.0214 17.3161 11.9141 16.9326 11.0526 16.197C10.191 15.4615 9.63857 14.428 9.50556 13.303C9.37254 12.178 9.66874 11.0442 10.335 10.1281" stroke="white" stroke-width="1.5" stroke-linecap="round" stroke-linejoin="round"/>
</svg>
