<svg width="16" height="16" viewBox="0 0 16 16" fill="none" xmlns="http://www.w3.org/2000/svg">
<path fill-rule="evenodd" clip-rule="evenodd" d="M1.5 8C1.77614 8 2 8.22386 2 8.5V14.5C2 14.6326 2.05268 14.7598 2.14645 14.8536C2.24022 14.9473 2.36739 15 2.5 15H13.5C13.6326 15 13.7598 14.9473 13.8536 14.8536C13.9473 14.7598 14 14.6326 14 14.5V8.5C14 8.22386 14.2239 8 14.5 8C14.7761 8 15 8.22386 15 8.5V14.5C15 14.8978 14.842 15.2794 14.5607 15.5607C14.2794 15.842 13.8978 16 13.5 16H2.5C2.10217 16 1.72064 15.842 1.43934 15.5607C1.15804 15.2794 1 14.8978 1 14.5V8.5C1 8.22386 1.22386 8 1.5 8Z" fill="#8F0A0C"/>
<path d="M14.0987 0.5H1.90133C1.78753 0.499981 1.67712 0.538732 1.58829 0.609868C1.49946 0.681004 1.43752 0.780279 1.41267 0.891334L0.5 5C0.5 5.39783 0.658035 5.77936 0.93934 6.06066C1.22064 6.34196 1.60218 6.5 2 6.5C2.39782 6.5 2.77936 6.34196 3.06066 6.06066C3.34196 5.77936 3.5 5.39783 3.5 5C3.5 5.39783 3.65804 5.77936 3.93934 6.06066C4.22064 6.34196 4.60218 6.5 5 6.5C5.39782 6.5 5.77936 6.34196 6.06066 6.06066C6.34196 5.77936 6.5 5.39783 6.5 5C6.5 5.39783 6.65804 5.77936 6.93934 6.06066C7.22064 6.34196 7.60218 6.5 8 6.5C8.39782 6.5 8.77936 6.34196 9.06066 6.06066C9.34196 5.77936 9.5 5.39783 9.5 5C9.5 5.39783 9.65804 5.77936 9.93934 6.06066C10.2206 6.34196 10.6022 6.5 11 6.5C11.3978 6.5 11.7794 6.34196 12.0607 6.06066C12.342 5.77936 12.5 5.39783 12.5 5C12.5 5.39783 12.658 5.77936 12.9393 6.06066C13.2206 6.34196 13.6022 6.5 14 6.5C14.3978 6.5 14.7794 6.34196 15.0607 6.06066C15.342 5.77936 15.5 5.39783 15.5 5L14.5867 0.891334C14.5621 0.780275 14.5003 0.680946 14.4115 0.609783C14.3228 0.53862 14.2124 0.49989 14.0987 0.5Z" stroke="#8F0A0C" stroke-width="0.9" stroke-linecap="round" stroke-linejoin="round"/>
<path fill-rule="evenodd" clip-rule="evenodd" d="M1 11.5C1 11.2239 1.22386 11 1.5 11H10C10.2761 11 10.5 11.2239 10.5 11.5C10.5 11.7761 10.2761 12 10 12H1.5C1.22386 12 1 11.7761 1 11.5Z" fill="#8F0A0C"/>
<path fill-rule="evenodd" clip-rule="evenodd" d="M10 8C10.2761 8 10.5 8.22386 10.5 8.5V15.5C10.5 15.7761 10.2761 16 10 16C9.72386 16 9.5 15.7761 9.5 15.5V8.5C9.5 8.22386 9.72386 8 10 8Z" fill="#8F0A0C"/>
</svg>
