<svg width="23" height="8" viewBox="0 0 23 8" fill="none" xmlns="http://www.w3.org/2000/svg">
<path d="M5.79541 8L5.22607 6.13086H2.36328L1.79395 8H0L2.77148 0.115234H4.80713L7.58936 8H5.79541ZM4.82861 4.73438C4.30225 3.04069 4.00505 2.08285 3.93701 1.86084C3.87256 1.63883 3.82601 1.46338 3.79736 1.33447C3.6792 1.79281 3.34082 2.92611 2.78223 4.73438H4.82861Z" fill="#03294A"/>
<path d="M11.2823 8H9.61727V1.5332H7.48494V0.147461H13.4146V1.5332H11.2823V8Z" fill="#03294A"/>
<path d="M17.6178 8L15.7272 1.83936H15.6789C15.7469 3.09261 15.7809 3.92871 15.7809 4.34766V8H14.2931V0.147461H16.5597L18.4181 6.15234H18.4504L20.4215 0.147461H22.6881V8H21.1359V4.2832C21.1359 4.10775 21.1377 3.90544 21.1413 3.67627C21.1484 3.4471 21.1735 2.83838 21.2165 1.8501H21.1681L19.1432 8H17.6178Z" fill="#03294A"/>
</svg>
