<svg width="20" height="20" viewBox="0 0 20 20" fill="none" xmlns="http://www.w3.org/2000/svg">
<g clip-path="url(#clip0)">
<path d="M19.1667 18.3336V7.91694C19.1667 7.75027 19.0675 7.59944 18.9142 7.5336L13.0808 5.0336C12.9517 4.97777 12.8042 4.9911 12.6875 5.0686C12.57 5.1461 12.5 5.27694 12.5 5.41694V18.3336H11.6667V0.62527C11.6667 0.419437 11.5658 0.226937 11.3967 0.11027C11.2267 -0.00639635 11.0117 -0.0322297 10.8192 0.0411036L2.06917 3.37444C1.82667 3.46694 1.66667 3.69944 1.66667 3.9586V18.3336H0.833333C0.373333 18.3336 0 18.7061 0 19.1669C0 19.6278 0.373333 20.0003 0.833333 20.0003H19.1667C19.6267 20.0003 20 19.6278 20 19.1669C20 18.7061 19.6267 18.3336 19.1667 18.3336ZM16.6667 10.6253C16.6667 10.2803 16.9467 10.0003 17.2917 10.0003C17.6367 10.0003 17.9167 10.2803 17.9167 10.6253V11.8753C17.9167 12.2203 17.6367 12.5003 17.2917 12.5003C16.9467 12.5003 16.6667 12.2203 16.6667 11.8753V10.6253ZM16.6667 15.6253C16.6667 15.2803 16.9467 15.0003 17.2917 15.0003C17.6367 15.0003 17.9167 15.2803 17.9167 15.6253V16.8753C17.9167 17.2203 17.6367 17.5003 17.2917 17.5003C16.9467 17.5003 16.6667 17.2203 16.6667 16.8753V15.6253ZM13.75 10.6253C13.75 10.2803 14.03 10.0003 14.375 10.0003C14.72 10.0003 15 10.2803 15 10.6253V11.8753C15 12.2203 14.72 12.5003 14.375 12.5003C14.03 12.5003 13.75 12.2203 13.75 11.8753V10.6253ZM13.75 15.6253C13.75 15.2803 14.03 15.0003 14.375 15.0003C14.72 15.0003 15 15.2803 15 15.6253V16.8753C15 17.2203 14.72 17.5003 14.375 17.5003C14.03 17.5003 13.75 17.2203 13.75 16.8753V15.6253ZM7.91666 5.62527C7.91666 5.28027 8.19666 5.00027 8.54166 5.00027C8.88666 5.00027 9.16666 5.28027 9.16666 5.62527V6.87527C9.16666 7.22027 8.88666 7.50027 8.54166 7.50027C8.19666 7.50027 7.91666 7.22027 7.91666 6.87527V5.62527ZM7.91666 10.6253C7.91666 10.2803 8.19666 10.0003 8.54166 10.0003C8.88666 10.0003 9.16666 10.2803 9.16666 10.6253V11.8753C9.16666 12.2203 8.88666 12.5003 8.54166 12.5003C8.19666 12.5003 7.91666 12.2203 7.91666 11.8753V10.6253ZM7.91666 15.6253C7.91666 15.2803 8.19666 15.0003 8.54166 15.0003C8.88666 15.0003 9.16666 15.2803 9.16666 15.6253V16.8753C9.16666 17.2203 8.88666 17.5003 8.54166 17.5003C8.19666 17.5003 7.91666 17.2203 7.91666 16.8753V15.6253ZM4.16667 5.62527C4.16667 5.28027 4.44666 5.00027 4.79167 5.00027C5.13666 5.00027 5.41666 5.28027 5.41666 5.62527V6.87527C5.41666 7.22027 5.13666 7.50027 4.79167 7.50027C4.44666 7.50027 4.16667 7.22027 4.16667 6.87527V5.62527ZM4.16667 10.6253C4.16667 10.2803 4.44666 10.0003 4.79167 10.0003C5.13666 10.0003 5.41666 10.2803 5.41666 10.6253V11.8753C5.41666 12.2203 5.13666 12.5003 4.79167 12.5003C4.44666 12.5003 4.16667 12.2203 4.16667 11.8753V10.6253ZM4.16667 15.6253C4.16667 15.2803 4.44666 15.0003 4.79167 15.0003C5.13666 15.0003 5.41666 15.2803 5.41666 15.6253V16.8753C5.41666 17.2203 5.13666 17.5003 4.79167 17.5003C4.44666 17.5003 4.16667 17.2203 4.16667 16.8753V15.6253Z" fill="#03294A"/>
</g>
<defs>
<clipPath id="clip0">
<rect width="20" height="20" fill="white"/>
</clipPath>
</defs>
</svg>
