<svg width="16" height="16" viewBox="0 0 16 16" fill="none" xmlns="http://www.w3.org/2000/svg">
<g clip-path="url(#clip0)">
<path fill-rule="evenodd" clip-rule="evenodd" d="M8 7.5C7.72386 7.5 7.5 7.72386 7.5 8C7.5 8.27614 7.72386 8.5 8 8.5C8.27614 8.5 8.5 8.27614 8.5 8C8.5 7.72386 8.27614 7.5 8 7.5ZM6.5 8C6.5 7.17157 7.17157 6.5 8 6.5C8.82843 6.5 9.5 7.17157 9.5 8C9.5 8.82843 8.82843 9.5 8 9.5C7.17157 9.5 6.5 8.82843 6.5 8Z" fill="#8F0A0C"/>
<path fill-rule="evenodd" clip-rule="evenodd" d="M8.00015 2.49995C9.47035 2.4754 10.9293 3.03213 12.2253 3.84426C13.5274 4.66026 14.6991 5.755 15.6024 6.85869L15.6084 6.86624C15.8626 7.18937 16.0008 7.58857 16.0008 7.99969C16.0008 8.41082 15.8626 8.81002 15.6084 9.13315L15.6025 9.14054C14.719 10.221 13.5594 11.3162 12.2584 12.1384C10.9633 12.9569 9.49423 13.5257 7.99997 13.5001C6.5058 13.525 5.0366 12.9558 3.74165 12.1371C2.44074 11.3147 1.28137 10.2192 0.398793 9.13826L0.393035 9.1312L0.3931 9.13115C0.138921 8.80801 0.000732422 8.40882 0.000732422 7.99769C0.000732422 7.58657 0.138921 7.18737 0.3931 6.86424L0.399133 6.85672C1.30176 5.75366 2.47314 4.65924 3.77512 3.84349C5.07092 3.03161 6.52992 2.47503 8.00015 2.49995ZM1.17643 7.48588C1.06258 7.63215 1.00073 7.81225 1.00073 7.99769C1.00073 8.18322 1.06264 8.3634 1.17659 8.50971C2.00227 9.52017 3.08198 10.537 4.27603 11.2919C5.4749 12.0499 6.75497 12.5227 7.99095 12.5001C7.99712 12.5 8.0033 12.5 8.00948 12.5001C9.24535 12.5233 10.5252 12.0508 11.7241 11.2931C12.9182 10.5385 13.9983 9.52183 14.825 8.51159C14.9389 8.36529 15.0008 8.18517 15.0008 7.99969C15.0008 7.81426 14.9389 7.63416 14.8251 7.48788C13.9802 6.45633 12.8892 5.44045 11.6943 4.69163C10.4943 3.93962 9.22328 3.47766 8.00927 3.49994C8.00311 3.50006 7.99695 3.50006 7.99079 3.49994C6.77682 3.47735 5.50588 3.93915 4.30606 4.6909C3.1113 5.43948 2.02067 6.45502 1.17643 7.48588Z" fill="#8F0A0C"/>
<path fill-rule="evenodd" clip-rule="evenodd" d="M8 5C6.34315 5 5 6.34315 5 8C5 9.65685 6.34315 11 8 11C9.65685 11 11 9.65685 11 8C11 6.34315 9.65685 5 8 5ZM4 8C4 5.79086 5.79086 4 8 4C10.2091 4 12 5.79086 12 8C12 10.2091 10.2091 12 8 12C5.79086 12 4 10.2091 4 8Z" fill="#8F0A0C"/>
<path fill-rule="evenodd" clip-rule="evenodd" d="M8 2.5C8.27614 2.5 8.5 2.72386 8.5 3V5.5C8.5 5.77614 8.27614 6 8 6C7.72386 6 7.5 5.77614 7.5 5.5V3C7.5 2.72386 7.72386 2.5 8 2.5Z" fill="#8F0A0C"/>
<path fill-rule="evenodd" clip-rule="evenodd" d="M8 10C8.27614 10 8.5 10.2239 8.5 10.5V13C8.5 13.2761 8.27614 13.5 8 13.5C7.72386 13.5 7.5 13.2761 7.5 13V10.5C7.5 10.2239 7.72386 10 8 10Z" fill="#8F0A0C"/>
<path fill-rule="evenodd" clip-rule="evenodd" d="M10 8C10 7.72386 10.2239 7.5 10.5 7.5H12.5C12.7761 7.5 13 7.72386 13 8C13 8.27614 12.7761 8.5 12.5 8.5H10.5C10.2239 8.5 10 8.27614 10 8Z" fill="#8F0A0C"/>
<path fill-rule="evenodd" clip-rule="evenodd" d="M3 8C3 7.72386 3.22386 7.5 3.5 7.5H5.5C5.77614 7.5 6 7.72386 6 8C6 8.27614 5.77614 8.5 5.5 8.5H3.5C3.22386 8.5 3 8.27614 3 8Z" fill="#8F0A0C"/>
</g>
<defs>
<clipPath id="clip0">
<rect width="16" height="16" fill="white"/>
</clipPath>
</defs>
</svg>
