<svg width="32" height="32" viewBox="0 0 32 32" fill="none" xmlns="http://www.w3.org/2000/svg">
<path fill-rule="evenodd" clip-rule="evenodd" d="M16 0C16.5523 0 17 0.447715 17 1V5.04484C22.2771 5.52039 26.4796 9.72286 26.9552 15H31C31.5523 15 32 15.4477 32 16C32 16.5523 31.5523 17 31 17H26.9552C26.4796 22.2771 22.2771 26.4796 17 26.9552V31C17 31.5523 16.5523 32 16 32C15.4477 32 15 31.5523 15 31V26.9552C9.72286 26.4796 5.52039 22.2771 5.04484 17H1C0.447715 17 0 16.5523 0 16C0 15.4477 0.447715 15 1 15H5.04484C5.52039 9.72286 9.72286 5.52039 15 5.04484V1C15 0.447715 15.4477 0 16 0ZM25 16C25 11.0294 20.9706 7 16 7C11.0294 7 7 11.0294 7 16C7 20.9706 11.0294 25 16 25C20.9706 25 25 20.9706 25 16ZM16 11C13.2386 11 11 13.2386 11 16C11 18.7614 13.2386 21 16 21C18.7614 21 21 18.7614 21 16C21 13.2386 18.7614 11 16 11ZM13 16C13 14.3431 14.3431 13 16 13C17.6569 13 19 14.3431 19 16C19 17.6569 17.6569 19 16 19C14.3431 19 13 17.6569 13 16Z" fill="#A53B3D"/>
</svg>
