<svg width="16" height="16" viewBox="0 0 16 16" fill="none" xmlns="http://www.w3.org/2000/svg">
<g clip-path="url(#clip0)">
<path fill-rule="evenodd" clip-rule="evenodd" d="M11 3.25C10.5858 3.25 10.25 3.58579 10.25 4C10.25 4.41421 10.5858 4.75 11 4.75H13.6893L9.677 8.76234L9.67683 8.76251C9.65362 8.78574 9.62605 8.80417 9.59571 8.81674C9.56537 8.82932 9.53284 8.83579 9.5 8.83579C9.46716 8.83579 9.43464 8.82932 9.40429 8.81674C9.37395 8.80417 9.34638 8.78574 9.32317 8.76251L9.323 8.76234L7.23783 6.67717L7.23766 6.677C7.07518 6.51446 6.88227 6.38552 6.66996 6.29753C6.45756 6.20952 6.22991 6.16421 6 6.16421C5.77009 6.16421 5.54244 6.20952 5.33005 6.29753C5.11773 6.38552 4.92482 6.51446 4.76234 6.677L4.76217 6.67717L-0.0303301 11.4697C-0.323223 11.7626 -0.323223 12.2374 -0.0303301 12.5303C0.262563 12.8232 0.737437 12.8232 1.03033 12.5303L5.823 7.73766L5.82317 7.73749C5.84638 7.71426 5.87395 7.69583 5.90429 7.68326C5.93463 7.67068 5.96716 7.66421 6 7.66421C6.03284 7.66421 6.06537 7.67068 6.09571 7.68326C6.12605 7.69583 6.15362 7.71426 6.17683 7.73749L6.177 7.73766L8.26217 9.82283L8.26234 9.823C8.42482 9.98554 8.61773 10.1145 8.83004 10.2025C9.04244 10.2905 9.27009 10.3358 9.5 10.3358C9.72991 10.3358 9.95756 10.2905 10.17 10.2025C10.3823 10.1145 10.5753 9.98545 10.7378 9.82283L14.75 5.81066V8.5C14.75 8.91421 15.0858 9.25 15.5 9.25C15.9142 9.25 16.25 8.91421 16.25 8.5V4C16.25 3.80806 16.1768 3.61612 16.0303 3.46967C15.9584 3.39776 15.8755 3.34351 15.7871 3.30691C15.6987 3.27024 15.6017 3.25 15.5 3.25H11Z" fill="#8F0A0C"/>
</g>
<defs>
<clipPath id="clip0">
<rect width="16" height="16" fill="white"/>
</clipPath>
</defs>
</svg>
