<svg width="16" height="16" viewBox="0 0 16 16" fill="none" xmlns="http://www.w3.org/2000/svg">
<path d="M14.3333 6H1.66666C0.748 6 0 6.748 0 7.66666V9C0 9.91866 0.748 10.6667 1.66666 10.6667H14.3333C15.252 10.6667 16 9.91931 16 9V7.66666C16 6.748 15.252 6 14.3333 6ZM15.3333 9C15.3333 9.55134 14.8847 10 14.3333 10H1.66666C1.11531 10 0.666656 9.55134 0.666656 9V7.66666C0.666656 7.11531 1.11531 6.66666 1.66666 6.66666H14.3333C14.8847 6.66666 15.3333 7.11531 15.3333 7.66666V9H15.3333Z" fill="#8F0A0C"/>
<path d="M2.33334 8.66669C2.51744 8.66669 2.66669 8.51745 2.66669 8.33334C2.66669 8.14924 2.51744 8 2.33334 8C2.14924 8 2 8.14924 2 8.33334C2 8.51745 2.14924 8.66669 2.33334 8.66669Z" fill="#8F0A0C"/>
<path d="M4.33334 8.66669C4.51744 8.66669 4.66669 8.51745 4.66669 8.33334C4.66669 8.14924 4.51744 8 4.33334 8C4.14924 8 4 8.14924 4 8.33334C4 8.51745 4.14924 8.66669 4.33334 8.66669Z" fill="#8F0A0C"/>
<path d="M6.33334 8.66669C6.51744 8.66669 6.66669 8.51745 6.66669 8.33334C6.66669 8.14924 6.51744 8 6.33334 8C6.14924 8 6 8.14924 6 8.33334C6 8.51745 6.14924 8.66669 6.33334 8.66669Z" fill="#8F0A0C"/>
<path d="M8.33334 8.66669C8.51744 8.66669 8.66669 8.51745 8.66669 8.33334C8.66669 8.14924 8.51744 8 8.33334 8C8.14924 8 8 8.14924 8 8.33334C8 8.51745 8.14924 8.66669 8.33334 8.66669Z" fill="#8F0A0C"/>
<path d="M13.6667 8H10.3333C10.1493 8 10 8.14934 10 8.33334C10 8.51734 10.1493 8.66669 10.3333 8.66669H13.6667C13.8507 8.66669 14 8.51734 14 8.33334C14 8.14934 13.8507 8 13.6667 8Z" fill="#8F0A0C"/>
</svg>
