<svg width="20" height="20" viewBox="0 0 20 20" fill="none" xmlns="http://www.w3.org/2000/svg">
<g clip-path="url(#clip0)">
<path d="M19.6641 8.94078L10.6908 0.764316C10.2969 0.405371 9.70295 0.40541 9.30924 0.764277L0.33586 8.94082C0.0203532 9.22832 -0.0838653 9.67129 0.070275 10.0693C0.224454 10.4673 0.599844 10.7245 1.02668 10.7245H2.45988V18.9167C2.45988 19.2415 2.72324 19.5048 3.04804 19.5048H7.96655C8.29135 19.5048 8.55471 19.5048 8.55471 19.5048H11.4454C11.4454 19.5048 11.7088 19.5049 12.0336 19.5049H16.9518C17.2766 19.5049 17.54 19.2415 17.54 18.9167V10.7245H18.9735C19.4003 10.7245 19.7757 10.4673 19.9299 10.0693C20.0838 9.67125 19.9796 9.22832 19.6641 8.94078Z" fill="#03294A"/>
<path d="M13 14.5303C13 15.0129 12.8652 15.4422 12.5957 15.8184C12.3262 16.191 11.9375 16.4819 11.4297 16.6913C10.9219 16.8971 10.3262 17 9.64258 17C9.07227 17 8.59375 16.9645 8.20703 16.8935C7.82031 16.819 7.41797 16.6913 7 16.5103V14.6367C7.44141 14.8425 7.90039 15.004 8.37695 15.1211C8.85352 15.2346 9.29102 15.2914 9.68945 15.2914C10.0332 15.2914 10.2852 15.2382 10.4453 15.1317C10.6055 15.0217 10.6855 14.8816 10.6855 14.7112C10.6855 14.6048 10.6523 14.5125 10.5859 14.4345C10.5234 14.3528 10.4199 14.2712 10.2754 14.1896C10.1348 14.108 9.75586 13.9412 9.13867 13.6893C8.58008 13.4586 8.16016 13.2351 7.87891 13.0186C7.60156 12.8022 7.39453 12.5538 7.25781 12.2735C7.125 11.9931 7.05859 11.6613 7.05859 11.2781C7.05859 10.5613 7.3457 10.0024 7.91992 9.60146C8.49414 9.20049 9.2832 9 10.2871 9C11.1738 9 12.0781 9.18629 13 9.55888L12.291 11.1823C11.4902 10.8487 10.7988 10.682 10.2168 10.682C9.91602 10.682 9.69727 10.7299 9.56055 10.8257C9.42383 10.9215 9.35547 11.0404 9.35547 11.1823C9.35547 11.3349 9.44141 11.4715 9.61328 11.5921C9.78906 11.7128 10.2617 11.9328 11.0312 12.2522C11.7695 12.5538 12.2812 12.8785 12.5664 13.2262C12.8555 13.5704 13 14.0051 13 14.5303Z" fill="white"/>
<path d="M17.3864 1.66895H13.4364L17.9745 5.79534V2.25707C17.9745 1.93227 17.7112 1.66895 17.3864 1.66895Z" fill="#03294A"/>
</g>
<defs>
<clipPath id="clip0">
<rect width="20" height="20" fill="white"/>
</clipPath>
</defs>
</svg>
