<svg width="16" height="16" viewBox="0 0 16 16" fill="none" xmlns="http://www.w3.org/2000/svg">
<mask id="path-2-inside-1" fill="white">
<path d="M2.60168 13.6875C2.7384 13.6875 2.86609 13.6334 2.96106 13.535L3.67126 12.8004C3.85864 12.6066 3.86023 12.3027 3.67493 12.1088C3.1864 11.5973 2.79578 11.0087 2.51404 10.3594C2.1875 9.60706 2.02185 8.80798 2.02185 7.98438C2.02185 7.16077 2.18738 6.36169 2.51392 5.60938C2.79578 4.96008 3.1864 4.37146 3.6748 3.85999C3.86011 3.66602 3.85852 3.36218 3.67114 3.16833L2.96106 2.43372C2.86597 2.33533 2.7384 2.28125 2.60132 2.28125C2.46594 2.28137 2.33423 2.3374 2.23999 2.43506C1.70325 2.99146 1.25146 3.62048 0.896973 4.30444C0.837524 4.41931 0.882324 4.56079 0.997314 4.62036C1.1123 4.67993 1.25366 4.63501 1.31323 4.52002C1.64673 3.87622 2.07214 3.2843 2.57739 2.7605C2.58997 2.74744 2.61121 2.74622 2.62402 2.7594L3.33423 3.49414C3.34583 3.5061 3.34656 3.52502 3.33582 3.53613C2.80908 4.08777 2.38782 4.72253 2.08398 5.42273C1.73169 6.23438 1.5531 7.09619 1.5531 7.98438C1.5531 8.87256 1.73169 9.73438 2.08398 10.546C2.38782 11.2462 2.80908 11.8809 3.33594 12.4325C3.34656 12.4437 3.34583 12.4626 3.33423 12.4746C3.33423 12.4746 2.62634 13.2069 2.62402 13.2094C2.61121 13.2227 2.58997 13.2213 2.57739 13.2083C1.95007 12.5579 1.44934 11.8075 1.08923 10.9778C0.67749 10.0291 0.46875 9.02197 0.46875 7.98438C0.46875 7.1012 0.621338 6.23547 0.922119 5.41113C0.966553 5.28955 0.903931 5.15491 0.782349 5.1106C0.660767 5.06616 0.526245 5.12878 0.481812 5.25037C0.162109 6.12634 0 7.04626 0 7.98438C0 9.08655 0.221802 10.1565 0.659302 11.1644C1.04175 12.0457 1.57361 12.8429 2.23999 13.5337C2.33423 13.6313 2.46594 13.6874 2.60168 13.6875Z"/>
</mask>
<path d="M2.60168 13.6875C2.7384 13.6875 2.86609 13.6334 2.96106 13.535L3.67126 12.8004C3.85864 12.6066 3.86023 12.3027 3.67493 12.1088C3.1864 11.5973 2.79578 11.0087 2.51404 10.3594C2.1875 9.60706 2.02185 8.80798 2.02185 7.98438C2.02185 7.16077 2.18738 6.36169 2.51392 5.60938C2.79578 4.96008 3.1864 4.37146 3.6748 3.85999C3.86011 3.66602 3.85852 3.36218 3.67114 3.16833L2.96106 2.43372C2.86597 2.33533 2.7384 2.28125 2.60132 2.28125C2.46594 2.28137 2.33423 2.3374 2.23999 2.43506C1.70325 2.99146 1.25146 3.62048 0.896973 4.30444C0.837524 4.41931 0.882324 4.56079 0.997314 4.62036C1.1123 4.67993 1.25366 4.63501 1.31323 4.52002C1.64673 3.87622 2.07214 3.2843 2.57739 2.7605C2.58997 2.74744 2.61121 2.74622 2.62402 2.7594L3.33423 3.49414C3.34583 3.5061 3.34656 3.52502 3.33582 3.53613C2.80908 4.08777 2.38782 4.72253 2.08398 5.42273C1.73169 6.23438 1.5531 7.09619 1.5531 7.98438C1.5531 8.87256 1.73169 9.73438 2.08398 10.546C2.38782 11.2462 2.80908 11.8809 3.33594 12.4325C3.34656 12.4437 3.34583 12.4626 3.33423 12.4746C3.33423 12.4746 2.62634 13.2069 2.62402 13.2094C2.61121 13.2227 2.58997 13.2213 2.57739 13.2083C1.95007 12.5579 1.44934 11.8075 1.08923 10.9778C0.67749 10.0291 0.46875 9.02197 0.46875 7.98438C0.46875 7.1012 0.621338 6.23547 0.922119 5.41113C0.966553 5.28955 0.903931 5.15491 0.782349 5.1106C0.660767 5.06616 0.526245 5.12878 0.481812 5.25037C0.162109 6.12634 0 7.04626 0 7.98438C0 9.08655 0.221802 10.1565 0.659302 11.1644C1.04175 12.0457 1.57361 12.8429 2.23999 13.5337C2.33423 13.6313 2.46594 13.6874 2.60168 13.6875Z" fill="#8F0A0C"/>
<path d="M2.60168 13.6875L2.60034 15.1875H2.60168V13.6875ZM2.96106 13.535L1.88263 12.4924L1.88182 12.4933L2.96106 13.535ZM3.67126 12.8004L4.74969 13.843L4.74977 13.8429L3.67126 12.8004ZM3.67493 12.1088L2.59021 13.1448L2.59031 13.1449L3.67493 12.1088ZM2.51404 10.3594L3.89008 9.76229L3.89002 9.76214L2.51404 10.3594ZM2.51392 5.60938L1.13797 5.01207L1.13794 5.01214L2.51392 5.60938ZM3.6748 3.85999L2.59019 2.82383L2.58996 2.82407L3.6748 3.85999ZM3.67114 3.16833L2.59262 4.21083L2.59264 4.21084L3.67114 3.16833ZM2.96106 2.43372L1.88249 3.47616L1.88254 3.47621L2.96106 2.43372ZM2.60132 2.28125V0.781249L2.59997 0.781251L2.60132 2.28125ZM2.23999 2.43506L1.16061 1.39346L1.16044 1.39364L2.23999 2.43506ZM0.896973 4.30444L-0.434782 3.6142L-0.435194 3.615L0.896973 4.30444ZM0.997314 4.62036L0.307334 5.95225H0.307334L0.997314 4.62036ZM1.31323 4.52002L2.64512 5.21L2.64514 5.20996L1.31323 4.52002ZM2.57739 2.7605L3.657 3.80186L3.65806 3.80077L2.57739 2.7605ZM2.62402 2.7594L3.70254 1.7169L3.69952 1.71378L2.62402 2.7594ZM3.33423 3.49414L2.25571 4.53664L2.25721 4.53819L3.33423 3.49414ZM3.33582 3.53613L2.25751 2.49337L2.25095 2.50024L3.33582 3.53613ZM2.08398 5.42273L3.45996 6.01997L3.46002 6.01983L2.08398 5.42273ZM2.08398 10.546L3.46002 9.94892L3.45996 9.94878L2.08398 10.546ZM3.33594 12.4325L4.42581 11.4019L4.42068 11.3965L3.33594 12.4325ZM3.33423 12.4746L2.25721 11.4306L2.25574 11.4321L3.33423 12.4746ZM2.62402 13.2094L3.70435 14.25L3.71152 14.2425L2.62402 13.2094ZM2.57739 13.2083L3.65806 12.168L3.65703 12.1669L2.57739 13.2083ZM1.08923 10.9778L-0.286768 11.575L-0.286758 11.575L1.08923 10.9778ZM0.922119 5.41113L-0.486743 4.89625L-0.48701 4.89698L0.922119 5.41113ZM0.782349 5.1106L0.267463 6.51946L0.268712 6.51991L0.782349 5.1106ZM0.481812 5.25037L-0.927051 4.73548L-0.927276 4.7361L0.481812 5.25037ZM0.659302 11.1644L2.0353 10.5673L2.03527 10.5672L0.659302 11.1644ZM2.23999 13.5337L1.16042 14.5751L1.16061 14.5753L2.23999 13.5337ZM2.60168 15.1875C3.14442 15.1875 3.66196 14.9687 4.0403 14.5768L1.88182 12.4933C2.07022 12.2981 2.33239 12.1875 2.60168 12.1875V15.1875ZM4.03949 14.5776L4.74969 13.843L2.59284 11.7578L1.88263 12.4924L4.03949 14.5776ZM4.74977 13.8429C5.49226 13.0748 5.50552 11.8535 4.75954 11.0726L2.59031 13.1449C2.21494 12.752 2.22502 12.1383 2.59276 11.7579L4.74977 13.8429ZM4.75964 11.0727C4.39343 10.6893 4.1014 10.2493 3.89008 9.76229L1.138 10.9565C1.49015 11.768 1.97938 12.5053 2.59021 13.1448L4.75964 11.0727ZM3.89002 9.76214C3.64561 9.19904 3.52185 8.60331 3.52185 7.98438H0.521851C0.521851 9.01265 0.729395 10.0151 1.13806 10.9566L3.89002 9.76214ZM3.52185 7.98438C3.52185 7.36528 3.64554 6.76957 3.88989 6.20661L1.13794 5.01214C0.729213 5.95382 0.521851 6.95625 0.521851 7.98438H3.52185ZM3.88986 6.20668C4.10135 5.71949 4.39347 5.27938 4.75965 4.8959L2.58996 2.82407C1.97934 3.46354 1.4902 4.20068 1.13797 5.01207L3.88986 6.20668ZM4.75942 4.89614C5.50539 4.11527 5.49214 2.89395 4.74965 2.12583L2.59264 4.21084C2.2249 3.83041 2.21482 3.21676 2.59019 2.82383L4.75942 4.89614ZM4.74966 2.12584L4.03958 1.39122L1.88254 3.47621L2.59262 4.21083L4.74966 2.12584ZM4.03963 1.39127C3.66142 0.999958 3.14439 0.78125 2.60132 0.78125V3.78125C2.33242 3.78125 2.07051 3.6707 1.88249 3.47616L4.03963 1.39127ZM2.59997 0.781251C2.05727 0.78174 1.53672 1.00371 1.16061 1.39346L3.31937 3.47666C3.13174 3.6711 2.87462 3.781 2.60267 3.78125L2.59997 0.781251ZM1.16044 1.39364C0.523324 2.05408 -0.0134798 2.80134 -0.434781 3.6142L2.22873 4.99468C2.51641 4.43963 2.88317 3.92883 3.31955 3.47648L1.16044 1.39364ZM-0.435194 3.615C-0.874849 4.46452 -0.543904 5.51127 0.307334 5.95225L1.68729 3.28847C2.30855 3.61031 2.5499 4.37411 2.22914 4.99389L-0.435194 3.615ZM0.307334 5.95225C1.15834 6.39311 2.20471 6.06014 2.64512 5.21L-0.018656 3.83004C0.302615 3.20988 1.06627 2.96675 1.68729 3.28847L0.307334 5.95225ZM2.64514 5.20996C2.9116 4.69558 3.25184 4.2219 3.657 3.80186L1.49778 1.71913C0.892446 2.3467 0.381861 3.05686 -0.0186745 3.83007L2.64514 5.20996ZM3.65806 3.80077C3.14676 4.33193 2.1893 4.4641 1.54853 3.80502L3.69952 1.71378C3.03311 1.02833 2.03317 1.16295 1.49673 1.72023L3.65806 3.80077ZM1.54551 3.8019L2.25571 4.53664L4.41274 2.45164L3.70254 1.7169L1.54551 3.8019ZM2.25721 4.53819C1.77927 4.04516 1.63444 3.13773 2.25753 2.4934L4.4141 4.57887C5.05867 3.91232 4.91238 2.96705 4.41124 2.45009L2.25721 4.53819ZM2.25095 2.50024C1.60204 3.17983 1.0822 3.96315 0.707949 4.82563L3.46002 6.01983C3.69343 5.48192 4.01613 4.9957 4.42068 4.57202L2.25095 2.50024ZM0.708011 4.82549C0.273571 5.82639 0.0531006 6.89156 0.0531006 7.98438H3.0531C3.0531 7.30083 3.18981 6.64236 3.45996 6.01997L0.708011 4.82549ZM0.0531006 7.98438C0.0531006 9.07719 0.273571 10.1424 0.708011 11.1433L3.45996 9.94878C3.18981 9.32639 3.0531 8.66792 3.0531 7.98438H0.0531006ZM0.707949 11.1431C1.08224 12.0057 1.60213 12.7889 2.25119 13.4685L4.42068 11.3965C4.01603 10.9728 3.69339 10.4867 3.46002 9.94892L0.707949 11.1431ZM2.24608 13.4631C1.64178 12.8241 1.77609 11.9269 2.25721 11.4306L4.41124 13.5187C4.91556 12.9984 5.05134 12.0634 4.4258 11.4019L2.24608 13.4631ZM3.33423 12.4746C2.25574 11.4321 2.25574 11.4321 2.25573 11.4321C2.25573 11.4321 2.25572 11.4321 2.25571 11.4321C2.25569 11.4321 2.25566 11.4322 2.25561 11.4322C2.25553 11.4323 2.2554 11.4324 2.25523 11.4326C2.25489 11.433 2.25438 11.4335 2.25371 11.4342C2.25237 11.4356 2.25038 11.4376 2.24779 11.4403C2.24261 11.4457 2.235 11.4535 2.22532 11.4636C2.20596 11.4836 2.1783 11.5122 2.14509 11.5465C2.07869 11.6152 1.99013 11.7069 1.9015 11.7985C1.73018 11.9758 1.54366 12.1687 1.53653 12.1762L3.71152 14.2425C3.70671 14.2475 3.87529 14.0731 4.0585 13.8836C4.14712 13.7919 4.23568 13.7003 4.30208 13.6316C4.33527 13.5972 4.36293 13.5686 4.38229 13.5486C4.39197 13.5386 4.39958 13.5307 4.40476 13.5254C4.40736 13.5227 4.40934 13.5206 4.41068 13.5192C4.41135 13.5185 4.41186 13.518 4.4122 13.5177C4.41237 13.5175 4.4125 13.5174 4.41259 13.5173C4.41263 13.5172 4.41266 13.5172 4.41268 13.5172C4.41269 13.5172 4.4127 13.5172 4.41271 13.5171C4.41271 13.5171 4.41271 13.5171 3.33423 12.4746ZM1.54373 12.1687C2.19136 11.4964 3.15348 11.6438 3.65806 12.168L1.49673 14.2485C2.02645 14.7988 3.03105 14.9489 3.70432 14.25L1.54373 12.1687ZM3.65703 12.1669C3.15429 11.6457 2.75392 11.0458 2.46522 10.3806L-0.286758 11.575C0.144761 12.5692 0.745854 13.47 1.49776 14.2496L3.65703 12.1669ZM2.46523 10.3806C2.13557 9.62099 1.96875 8.81723 1.96875 7.98438H-1.03125C-1.03125 9.22672 -0.780586 10.4371 -0.286768 11.575L2.46523 10.3806ZM1.96875 7.98438C1.96875 7.27552 2.09094 6.58389 2.33125 5.92529L-0.48701 4.89698C-0.848267 5.88706 -1.03125 6.92687 -1.03125 7.98438H1.96875ZM2.33098 5.92602C2.65982 5.02622 2.19677 4.02957 1.29599 3.70128L0.268712 6.51991C-0.388905 6.28024 -0.726718 5.55288 -0.486743 4.89625L2.33098 5.92602ZM1.29723 3.70173C0.396463 3.37254 -0.598654 3.8369 -0.927051 4.73548L1.89067 5.76525C1.65114 6.42067 0.92507 6.75979 0.267464 6.51946L1.29723 3.70173ZM-0.927276 4.7361C-1.30749 5.77788 -1.5 6.87194 -1.5 7.98438H1.5C1.5 7.22059 1.63171 6.4748 1.8909 5.76464L-0.927276 4.7361ZM-1.5 7.98438C-1.5 9.29134 -1.23625 10.5646 -0.716669 11.7617L2.03527 10.5672C1.67986 9.74836 1.5 8.88176 1.5 7.98438H-1.5ZM-0.7167 11.7616C-0.262889 12.8073 0.369316 13.755 1.16042 14.5751L3.31956 12.4923C2.7779 11.9308 2.34638 11.284 2.0353 10.5673L-0.7167 11.7616ZM1.16061 14.5753C1.53712 14.9655 2.05785 15.187 2.60034 15.1875L2.60303 12.1875C2.87404 12.1877 3.13134 12.2972 3.31937 12.4921L1.16061 14.5753Z" fill="#8F0A0C" mask="url(#path-2-inside-1)"/>
<mask id="path-4-inside-2" fill="white">
<path d="M4.76196 11.4521C4.89905 11.4521 5.02698 11.3979 5.12219 11.2993L5.8335 10.5636C6.01428 10.3767 6.02136 10.0789 5.84961 9.88562C5.3844 9.36206 5.12817 8.68677 5.12817 7.98438C5.12817 7.28198 5.3844 6.60681 5.84973 6.08301C6.02136 5.88989 6.01428 5.59204 5.8335 5.40515L5.12219 4.66943C5.02698 4.5708 4.89905 4.5166 4.76196 4.5166C4.62268 4.5166 4.48889 4.5752 4.39478 4.67749C3.56384 5.58032 3.1062 6.75464 3.1062 7.98438C3.1062 9.21411 3.56384 10.3884 4.39478 11.2913C4.48889 11.3936 4.62268 11.4521 4.76196 11.4521ZM4.73962 4.99487C4.75183 4.98157 4.77295 4.98242 4.78528 4.99512L5.49658 5.73083C5.50769 5.74243 5.50891 5.76074 5.49927 5.77161C4.95764 6.38123 4.65942 7.16711 4.65942 7.98438C4.65942 8.80164 4.95764 9.58752 5.49927 10.197C5.50891 10.2079 5.50769 10.2262 5.49658 10.2378L4.78528 10.9736C4.77283 10.9863 4.75183 10.9872 4.73962 10.9739C3.98865 10.1578 3.57495 9.09607 3.57495 7.98438C3.57495 6.87268 3.98865 5.81091 4.73962 4.99487Z"/>
</mask>
<path d="M4.76196 11.4521C4.89905 11.4521 5.02698 11.3979 5.12219 11.2993L5.8335 10.5636C6.01428 10.3767 6.02136 10.0789 5.84961 9.88562C5.3844 9.36206 5.12817 8.68677 5.12817 7.98438C5.12817 7.28198 5.3844 6.60681 5.84973 6.08301C6.02136 5.88989 6.01428 5.59204 5.8335 5.40515L5.12219 4.66943C5.02698 4.5708 4.89905 4.5166 4.76196 4.5166C4.62268 4.5166 4.48889 4.5752 4.39478 4.67749C3.56384 5.58032 3.1062 6.75464 3.1062 7.98438C3.1062 9.21411 3.56384 10.3884 4.39478 11.2913C4.48889 11.3936 4.62268 11.4521 4.76196 11.4521ZM4.73962 4.99487C4.75183 4.98157 4.77295 4.98242 4.78528 4.99512L5.49658 5.73083C5.50769 5.74243 5.50891 5.76074 5.49927 5.77161C4.95764 6.38123 4.65942 7.16711 4.65942 7.98438C4.65942 8.80164 4.95764 9.58752 5.49927 10.197C5.50891 10.2079 5.50769 10.2262 5.49658 10.2378L4.78528 10.9736C4.77283 10.9863 4.75183 10.9872 4.73962 10.9739C3.98865 10.1578 3.57495 9.09607 3.57495 7.98438C3.57495 6.87268 3.98865 5.81091 4.73962 4.99487Z" fill="#8F0A0C"/>
<path d="M5.12219 11.2993L4.04379 10.2567L4.043 10.2575L5.12219 11.2993ZM5.8335 10.5636L4.75538 9.52069L4.75509 9.52098L5.8335 10.5636ZM5.84961 9.88562L4.72831 10.882L4.72846 10.8821L5.84961 9.88562ZM5.84973 6.08301L4.72854 5.08655L4.72833 5.08679L5.84973 6.08301ZM5.8335 5.40515L4.75509 6.44777L4.75538 6.44806L5.8335 5.40515ZM5.12219 4.66943L4.043 5.71123L4.04379 5.71205L5.12219 4.66943ZM4.39478 4.67749L5.49847 5.69329L5.49865 5.6931L4.39478 4.67749ZM4.39478 11.2913L5.49865 10.2756L5.49847 10.2755L4.39478 11.2913ZM4.73962 4.99487L5.84337 6.01062L5.84494 6.00892L4.73962 4.99487ZM4.78528 4.99512L5.86368 3.9525L5.86135 3.95009L4.78528 4.99512ZM5.49658 5.73083L6.57981 4.69321L6.57498 4.68822L5.49658 5.73083ZM5.49927 5.77161L6.62062 6.76789L6.62108 6.76737L5.49927 5.77161ZM5.49927 10.197L6.62108 9.20126L6.62052 9.20063L5.49927 10.197ZM5.49658 10.2378L6.57508 11.2803L6.5798 11.2754L5.49658 10.2378ZM4.78528 10.9736L5.85621 12.024L5.86377 12.0162L4.78528 10.9736ZM4.73962 10.9739L5.84494 9.95983L5.84337 9.95813L4.73962 10.9739ZM4.76196 12.9521C5.30517 12.9521 5.82289 12.7332 6.20139 12.3411L4.043 10.2575C4.23106 10.0627 4.49292 9.95215 4.76196 9.95215V12.9521ZM6.20059 12.3419L6.9119 11.6062L4.75509 9.52098L4.04379 10.2567L6.20059 12.3419ZM6.91161 11.6065C7.63285 10.8609 7.66857 9.67422 6.97076 8.88912L4.72846 10.8821C4.37415 10.4835 4.39571 9.89249 4.75538 9.52069L6.91161 11.6065ZM6.97091 8.88929C6.75045 8.64118 6.62817 8.3207 6.62817 7.98438H3.62817C3.62817 9.05284 4.01835 10.0829 4.72831 10.882L6.97091 8.88929ZM6.62817 7.98438C6.62817 7.6482 6.75036 7.32774 6.97113 7.07923L4.72833 5.08679C4.01844 5.88588 3.62817 6.91577 3.62817 7.98438H6.62817ZM6.97092 7.07947C7.66877 6.29426 7.63263 5.1076 6.91161 4.36224L4.75538 6.44806C4.39594 6.07648 4.37395 5.48552 4.72854 5.08655L6.97092 7.07947ZM6.9119 4.36253L6.20059 3.62682L4.04379 5.71205L4.75509 6.44777L6.9119 4.36253ZM6.20139 3.62764C5.82289 3.23556 5.30517 3.0166 4.76196 3.0166V6.0166C4.49292 6.0166 4.23106 5.90604 4.043 5.71123L6.20139 3.62764ZM4.76196 3.0166C4.20446 3.0166 3.66992 3.24992 3.29091 3.66188L5.49865 5.6931C5.30786 5.90047 5.0409 6.0166 4.76196 6.0166V3.0166ZM3.29108 3.66169C2.20471 4.84205 1.6062 6.37918 1.6062 7.98438H4.6062C4.6062 7.1301 4.92297 6.31859 5.49847 5.69329L3.29108 3.66169ZM1.6062 7.98438C1.6062 9.58957 2.20471 11.1267 3.29108 12.3071L5.49847 10.2755C4.92297 9.65016 4.6062 8.83865 4.6062 7.98438H1.6062ZM3.29091 12.3069C3.66992 12.7188 4.20446 12.9521 4.76196 12.9521V9.95215C5.0409 9.95215 5.30786 10.0683 5.49865 10.2756L3.29091 12.3069ZM5.84494 6.00892C5.21463 6.69595 4.2346 6.58114 3.70921 6.04014L5.86135 3.95009C5.3113 3.38371 4.28903 3.26718 3.63431 3.98083L5.84494 6.00892ZM3.70688 6.03773L4.41818 6.77345L6.57498 4.68822L5.86368 3.9525L3.70688 6.03773ZM4.41336 6.76845C3.97471 6.31051 3.78562 5.4426 4.37746 4.77584L6.62108 6.76737C7.23221 6.07888 7.04067 5.17435 6.5798 4.69322L4.41336 6.76845ZM4.37792 4.77533C3.5917 5.66024 3.15942 6.80088 3.15942 7.98438H6.15942C6.15942 7.53335 6.32358 7.10221 6.62062 6.76789L4.37792 4.77533ZM3.15942 7.98438C3.15942 9.16785 3.59169 10.3085 4.37802 11.1934L6.62052 9.20063C6.3236 8.8665 6.15942 8.43542 6.15942 7.98438H3.15942ZM4.37746 11.1928C3.78562 10.526 3.97471 9.65812 4.41336 9.20018L6.5798 11.2754C7.04067 10.7943 7.23221 9.88974 6.62108 9.20126L4.37746 11.1928ZM4.41809 9.19527L3.70679 9.93111L5.86377 12.0162L6.57507 11.2803L4.41809 9.19527ZM3.71437 9.92332C4.23525 9.39223 5.21201 9.26995 5.84494 9.95983L3.63431 11.9879C4.29165 12.7044 5.3104 12.5804 5.85619 12.0239L3.71437 9.92332ZM5.84337 9.95813C5.34786 9.41968 5.07495 8.72072 5.07495 7.98438H2.07495C2.07495 9.47142 2.62944 10.896 3.63588 11.9896L5.84337 9.95813ZM5.07495 7.98438C5.07495 7.24803 5.34786 6.54907 5.84337 6.01062L3.63588 3.97913C2.62944 5.07276 2.07495 6.49733 2.07495 7.98438H5.07495Z" fill="#8F0A0C" mask="url(#path-4-inside-2)"/>
<path d="M13.49 10.3611L13.4898 10.3611L13.49 10.3611ZM13.49 10.3611L13.4939 10.3628L13.49 10.3611Z" fill="#8F0A0C" stroke="#8F0A0C" stroke-width="1.5"/>
<mask id="path-7-inside-3" fill="white">
<path d="M12.4064 9.5236C12.5305 9.55998 12.6608 9.48869 12.697 9.36442C12.8275 8.91874 12.8937 8.45438 12.8937 7.98441C12.8937 6.75468 12.436 5.58036 11.6051 4.67752C11.5126 4.57694 11.381 4.51834 11.2441 4.51663C11.1069 4.51505 10.9731 4.57059 10.8777 4.66934L10.1664 5.40506C9.98559 5.59208 9.97851 5.88981 10.1501 6.08304C10.6155 6.60673 10.8717 7.28202 10.8717 7.98441C10.8717 8.68681 10.6155 9.3621 10.1501 9.88566C9.97851 10.0789 9.98559 10.3766 10.1663 10.5636L10.8776 11.2994C10.9717 11.3968 11.1027 11.4522 11.238 11.4522H11.244C11.381 11.4505 11.5126 11.3918 11.6051 11.2913C11.889 10.9828 12.1317 10.6409 12.3263 10.2752C12.3872 10.1608 12.3439 10.019 12.2295 9.95805C12.1152 9.89738 11.9733 9.94059 11.9125 10.055C11.7366 10.3855 11.5171 10.6947 11.2601 10.9738C11.2544 10.9801 11.2471 10.9833 11.2383 10.9834C11.2311 10.9836 11.2226 10.9819 11.2146 10.9736L10.5033 10.2378C10.4922 10.2262 10.4908 10.2079 10.5006 10.1971C11.0422 9.58756 11.3404 8.80168 11.3404 7.98441C11.3404 7.16715 11.0422 6.38138 10.5006 5.77176C10.491 5.7609 10.4922 5.74259 10.5033 5.73099C10.5033 5.73099 11.2146 4.99527 11.2146 4.99515C11.2268 4.98258 11.248 4.98172 11.2602 4.99491C12.0112 5.81095 12.4249 6.87272 12.4249 7.98441C12.4249 8.40983 12.3651 8.82987 12.2472 9.23283C12.2108 9.3571 12.2821 9.48722 12.4064 9.5236Z"/>
</mask>
<path d="M12.4064 9.5236C12.5305 9.55998 12.6608 9.48869 12.697 9.36442C12.8275 8.91874 12.8937 8.45438 12.8937 7.98441C12.8937 6.75468 12.436 5.58036 11.6051 4.67752C11.5126 4.57694 11.381 4.51834 11.2441 4.51663C11.1069 4.51505 10.9731 4.57059 10.8777 4.66934L10.1664 5.40506C9.98559 5.59208 9.97851 5.88981 10.1501 6.08304C10.6155 6.60673 10.8717 7.28202 10.8717 7.98441C10.8717 8.68681 10.6155 9.3621 10.1501 9.88566C9.97851 10.0789 9.98559 10.3766 10.1663 10.5636L10.8776 11.2994C10.9717 11.3968 11.1027 11.4522 11.238 11.4522H11.244C11.381 11.4505 11.5126 11.3918 11.6051 11.2913C11.889 10.9828 12.1317 10.6409 12.3263 10.2752C12.3872 10.1608 12.3439 10.019 12.2295 9.95805C12.1152 9.89738 11.9733 9.94059 11.9125 10.055C11.7366 10.3855 11.5171 10.6947 11.2601 10.9738C11.2544 10.9801 11.2471 10.9833 11.2383 10.9834C11.2311 10.9836 11.2226 10.9819 11.2146 10.9736L10.5033 10.2378C10.4922 10.2262 10.4908 10.2079 10.5006 10.1971C11.0422 9.58756 11.3404 8.80168 11.3404 7.98441C11.3404 7.16715 11.0422 6.38138 10.5006 5.77176C10.491 5.7609 10.4922 5.74259 10.5033 5.73099C10.5033 5.73099 11.2146 4.99527 11.2146 4.99515C11.2268 4.98258 11.248 4.98172 11.2602 4.99491C12.0112 5.81095 12.4249 6.87272 12.4249 7.98441C12.4249 8.40983 12.3651 8.82987 12.2472 9.23283C12.2108 9.3571 12.2821 9.48722 12.4064 9.5236Z" fill="#8F0A0C"/>
<path d="M12.697 9.36442L11.2574 8.94292L11.257 8.94431L12.697 9.36442ZM11.6051 4.67752L10.5011 5.69305L10.5014 5.69332L11.6051 4.67752ZM11.2441 4.51663L11.2629 3.01675L11.2615 3.01673L11.2441 4.51663ZM10.8777 4.66934L11.9561 5.71196L11.9562 5.71185L10.8777 4.66934ZM10.1664 5.40506L9.08797 4.36245L9.08791 4.36251L10.1664 5.40506ZM10.1501 6.08304L9.02863 7.07915L9.02885 7.07939L10.1501 6.08304ZM10.1501 9.88566L9.02896 8.88918L9.02863 8.88956L10.1501 9.88566ZM10.1663 10.5636L9.08744 11.6058L9.08785 11.6063L10.1663 10.5636ZM10.8776 11.2994L11.9563 10.2571L11.956 10.2567L10.8776 11.2994ZM11.244 11.4522V12.9522H11.2534L11.2627 12.9521L11.244 11.4522ZM11.6051 11.2913L12.7084 12.3075L12.7087 12.3072L11.6051 11.2913ZM12.3263 10.2752L11.0023 9.57011L11.002 9.57064L12.3263 10.2752ZM12.2295 9.95805L12.9346 8.63409L12.9329 8.63323L12.2295 9.95805ZM11.9125 10.055L13.2367 10.7596L13.237 10.7589L11.9125 10.055ZM11.2601 10.9738L10.1566 9.95768L10.1473 9.96799L11.2601 10.9738ZM11.2383 10.9834L11.2174 9.48358L11.2129 9.48366L11.2383 10.9834ZM11.2146 10.9736L10.1362 12.0162L10.1382 12.0183L11.2146 10.9736ZM10.5033 10.2378L9.42005 11.2755L9.42488 11.2805L10.5033 10.2378ZM10.5006 10.1971L11.6162 11.1998L11.6219 11.1935L10.5006 10.1971ZM10.5006 5.77176L9.37879 6.76753L9.37925 6.76804L10.5006 5.77176ZM10.5033 5.73099L9.42487 4.68837L9.42007 4.69338L10.5033 5.73099ZM11.2146 4.99515L10.1384 3.95028L9.71459 4.38678V4.99515H11.2146ZM11.2602 4.99491L12.364 3.97916L12.3609 3.9758L11.2602 4.99491ZM12.2472 9.23283L13.6868 9.65424L13.6868 9.65412L12.2472 9.23283ZM11.9846 10.9631C12.9044 11.2326 13.8685 10.7047 14.137 9.78453L11.257 8.94431C11.453 8.27272 12.1566 7.88734 12.8282 8.08412L11.9846 10.9631ZM14.1366 9.78592C14.3076 9.20164 14.3937 8.59527 14.3937 7.98441H11.3937C11.3937 8.31349 11.3474 8.63584 11.2574 8.94292L14.1366 9.78592ZM14.3937 7.98441C14.3937 6.37921 13.7952 4.84209 12.7088 3.66172L10.5014 5.69332C11.0769 6.31862 11.3937 7.13014 11.3937 7.98441H14.3937ZM12.709 3.662C12.336 3.25647 11.8114 3.0236 11.2629 3.01675L11.2254 6.01652C10.9506 6.01309 10.6891 5.8974 10.5011 5.69305L12.709 3.662ZM11.2615 3.01673C10.7136 3.0104 10.1828 3.22992 9.79917 3.62684L11.9562 5.71185C11.7634 5.91126 11.5002 6.0197 11.2268 6.01653L11.2615 3.01673ZM9.79927 3.62673L9.08797 4.36245L11.2448 6.44768L11.9561 5.71196L9.79927 3.62673ZM9.08791 4.36251C8.36735 5.10788 8.33121 6.29392 9.02863 7.07915L11.2716 5.08694C11.6258 5.48569 11.6038 6.07627 11.2448 6.44762L9.08791 4.36251ZM9.02885 7.07939C9.24945 7.32765 9.37169 7.64813 9.37169 7.98441H12.3717C12.3717 6.9159 11.9815 5.8858 11.2714 5.08669L9.02885 7.07939ZM9.37169 7.98441C9.37169 8.32072 9.24943 8.64113 9.02896 8.88918L11.2713 10.8821C11.9815 10.0831 12.3717 9.05289 12.3717 7.98441H9.37169ZM9.02863 8.88956C8.33126 9.67472 8.3674 10.8605 9.08744 11.6058L11.2451 9.52145C11.6038 9.89276 11.6258 10.4831 11.2716 10.8818L9.02863 8.88956ZM9.08785 11.6063L9.79915 12.342L11.956 10.2567L11.2447 9.52103L9.08785 11.6063ZM9.7988 12.3416C10.1763 12.7323 10.697 12.9522 11.238 12.9522V9.95219C11.5084 9.95219 11.767 10.0612 11.9563 10.2571L9.7988 12.3416ZM11.238 12.9522H11.244V9.95219H11.238V12.9522ZM11.2627 12.9521C11.812 12.9452 12.336 12.7118 12.7084 12.3075L10.5018 10.2751C10.6891 10.0717 10.95 9.95574 11.2253 9.95231L11.2627 12.9521ZM12.7087 12.3072C13.0781 11.9059 13.3952 11.4596 13.6505 10.9797L11.002 9.57064C10.8682 9.82227 10.6999 10.0598 10.5014 10.2754L12.7087 12.3072ZM13.6502 10.9803C14.1009 10.134 13.7794 9.08404 12.9346 8.63409L11.5244 11.282C10.9083 10.9539 10.6735 10.1876 11.0023 9.57011L13.6502 10.9803ZM12.9329 8.63323C12.0891 8.18515 11.0384 8.50343 10.5879 9.351L13.237 10.7589C12.9081 11.3778 12.1414 11.6096 11.526 11.2829L12.9329 8.63323ZM10.5883 9.35034C10.4731 9.56677 10.3281 9.77153 10.1567 9.95772L12.3636 11.9899C12.706 11.618 13 11.2043 13.2367 10.7596L10.5883 9.35034ZM10.1473 9.96799C10.2776 9.82381 10.4451 9.69633 10.647 9.60764C10.8472 9.51969 11.0443 9.48599 11.2174 9.48359L11.2591 12.4833C11.6606 12.4777 12.0719 12.3127 12.3729 11.9796L10.1473 9.96799ZM11.2129 9.48366C11.3388 9.48152 11.5255 9.4947 11.7363 9.57087C11.954 9.64949 12.1419 9.77523 12.291 9.92884L10.1382 12.0183C10.4997 12.3907 10.9454 12.4886 11.2637 12.4832L11.2129 9.48366ZM12.293 9.93094L11.5817 9.19522L9.42488 11.2805L10.1362 12.0162L12.293 9.93094ZM11.5865 9.20023C12.0171 9.64976 12.2237 10.5239 11.6162 11.1998L9.38504 9.19431C8.75796 9.89193 8.96724 10.8027 9.42007 11.2754L11.5865 9.20023ZM11.6219 11.1935C12.4082 10.3086 12.8404 9.16789 12.8404 7.98441H9.84044C9.84044 8.43546 9.67627 8.86654 9.37935 9.20067L11.6219 11.1935ZM12.8404 7.98441C12.8404 6.80086 12.4081 5.66036 11.622 4.77548L9.37925 6.76804C9.67632 7.10241 9.84044 7.53345 9.84044 7.98441H12.8404ZM11.6224 4.776C12.2143 5.44276 12.0252 6.31067 11.5865 6.7686L9.42007 4.69338C8.9592 5.17451 8.76766 6.07904 9.37879 6.76753L11.6224 4.776ZM10.5033 5.73099C11.5817 6.77361 11.5817 6.7736 11.5817 6.7736C11.5817 6.77359 11.5817 6.77359 11.5817 6.77357C11.5817 6.77355 11.5818 6.77352 11.5818 6.77347C11.5819 6.77338 11.582 6.77325 11.5822 6.77307C11.5825 6.77272 11.5831 6.77219 11.5837 6.7715C11.5851 6.7701 11.5871 6.76804 11.5897 6.76534C11.5949 6.75995 11.6025 6.75205 11.6123 6.74199C11.6317 6.72187 11.6595 6.69313 11.6928 6.65863C11.7595 6.58965 11.8485 6.49767 11.9374 6.40569C12.0263 6.31371 12.1153 6.2217 12.182 6.15266C12.2153 6.11815 12.2432 6.08933 12.2627 6.06911C12.2725 6.05902 12.2803 6.05096 12.2857 6.04538C12.2883 6.04263 12.2906 6.04027 12.2923 6.0385C12.2931 6.0377 12.2941 6.03659 12.2952 6.03549C12.2956 6.0351 12.2968 6.03381 12.2983 6.03224C12.2988 6.03177 12.301 6.02943 12.3038 6.02647C12.3056 6.02458 12.3109 6.01896 12.3144 6.0152C12.3244 6.00424 12.6163 5.52915 12.7146 4.99515H9.71459C9.81286 4.46116 10.1047 3.98607 10.1148 3.97512C10.1183 3.97138 10.1235 3.96577 10.1253 3.9639C10.1281 3.96098 10.1302 3.95872 10.1306 3.95833C10.1319 3.95695 10.1329 3.95592 10.133 3.95589C10.1333 3.9555 10.1334 3.95545 10.1328 3.95604C10.1318 3.95707 10.1301 3.95885 10.1276 3.96149C10.1225 3.9667 10.115 3.97446 10.1053 3.9845C10.086 4.00454 10.0582 4.03321 10.0249 4.0677C9.95828 4.13664 9.8694 4.22858 9.78049 4.32055C9.69159 4.41251 9.60269 4.50446 9.53601 4.57343C9.50267 4.60792 9.47489 4.63665 9.45544 4.65677C9.44572 4.66683 9.43808 4.67473 9.43287 4.68012C9.43026 4.68281 9.42827 4.68488 9.42692 4.68627C9.42625 4.68696 9.42574 4.68749 9.4254 4.68784C9.42523 4.68802 9.4251 4.68815 9.42501 4.68824C9.42497 4.68829 9.42494 4.68832 9.42492 4.68834C9.42491 4.68835 9.4249 4.68836 9.42489 4.68837C9.42489 4.68837 9.42488 4.68838 10.5033 5.73099ZM12.2908 6.04002C11.7621 6.58461 10.7866 6.69116 10.1596 6.01402L12.3609 3.9758C11.7095 3.27229 10.6915 3.38054 10.1384 3.95028L12.2908 6.04002ZM10.1565 6.01065C10.652 6.5491 10.9249 7.24806 10.9249 7.98441H13.9249C13.9249 6.49737 13.3704 5.0728 12.364 3.97916L10.1565 6.01065ZM10.9249 7.98441C10.9249 8.26911 10.8849 8.54721 10.8076 8.81154L13.6868 9.65412C13.8453 9.11254 13.9249 8.55055 13.9249 7.98441H10.9249ZM10.8076 8.81142C10.5382 9.73169 11.0666 10.6943 11.985 10.9632L12.8278 8.08401C13.4976 8.2801 13.8834 8.9825 13.6868 9.65424L10.8076 8.81142Z" fill="#8F0A0C" mask="url(#path-7-inside-3)"/>
<mask id="path-9-inside-4" fill="white">
<path d="M8 10.2373C9.24255 10.2373 10.2534 9.22644 10.2534 7.98389C10.2534 6.74133 9.24255 5.73047 8 5.73047C6.75745 5.73047 5.74658 6.74133 5.74658 7.98389C5.74658 9.22644 6.75745 10.2373 8 10.2373ZM8 6.19922C8.98413 6.19922 9.78467 6.99976 9.78467 7.98389C9.78467 8.96802 8.98401 9.76855 8 9.76855C7.01599 9.76855 6.21533 8.96802 6.21533 7.98389C6.21533 6.99976 7.01599 6.19922 8 6.19922Z"/>
</mask>
<path d="M8 10.2373C9.24255 10.2373 10.2534 9.22644 10.2534 7.98389C10.2534 6.74133 9.24255 5.73047 8 5.73047C6.75745 5.73047 5.74658 6.74133 5.74658 7.98389C5.74658 9.22644 6.75745 10.2373 8 10.2373ZM8 6.19922C8.98413 6.19922 9.78467 6.99976 9.78467 7.98389C9.78467 8.96802 8.98401 9.76855 8 9.76855C7.01599 9.76855 6.21533 8.96802 6.21533 7.98389C6.21533 6.99976 7.01599 6.19922 8 6.19922Z" fill="#8F0A0C"/>
<path d="M8 11.7373C10.071 11.7373 11.7534 10.0549 11.7534 7.98389H8.75342C8.75342 8.39801 8.41413 8.7373 8 8.7373V11.7373ZM11.7534 7.98389C11.7534 5.91291 10.071 4.23047 8 4.23047V7.23047C8.41413 7.23047 8.75342 7.56976 8.75342 7.98389H11.7534ZM8 4.23047C5.92902 4.23047 4.24658 5.91291 4.24658 7.98389H7.24658C7.24658 7.56976 7.58587 7.23047 8 7.23047V4.23047ZM4.24658 7.98389C4.24658 10.0549 5.92902 11.7373 8 11.7373V8.7373C7.58587 8.7373 7.24658 8.39801 7.24658 7.98389H4.24658ZM8 7.69922C8.1557 7.69922 8.28467 7.82818 8.28467 7.98389H11.2847C11.2847 6.17133 9.81256 4.69922 8 4.69922V7.69922ZM8.28467 7.98389C8.28467 8.13952 8.15565 8.26855 8 8.26855V11.2686C9.81237 11.2686 11.2847 9.79651 11.2847 7.98389H8.28467ZM8 8.26855C7.84435 8.26855 7.71533 8.13952 7.71533 7.98389H4.71533C4.71533 9.79651 6.18763 11.2686 8 11.2686V8.26855ZM7.71533 7.98389C7.71533 7.82825 7.84435 7.69922 8 7.69922V4.69922C6.18763 4.69922 4.71533 6.17126 4.71533 7.98389H7.71533Z" fill="#8F0A0C" mask="url(#path-9-inside-4)"/>
</svg>
