<svg width="16" height="16" viewBox="0 0 16 16" fill="none" xmlns="http://www.w3.org/2000/svg">
<g clip-path="url(#clip0)">
<path fill-rule="evenodd" clip-rule="evenodd" d="M8 3.00067C8.27614 3.00067 8.5 3.22453 8.5 3.50067V10.0007C8.5 10.2768 8.27614 10.5007 8 10.5007C7.72386 10.5007 7.5 10.2768 7.5 10.0007V3.50067C7.5 3.22453 7.72386 3.00067 8 3.00067Z" fill="#8F0A0C"/>
<path fill-rule="evenodd" clip-rule="evenodd" d="M5.5 2.00067C5.77614 2.00067 6 2.22453 6 2.50067V4.50067C6 4.77681 5.77614 5.00067 5.5 5.00067C5.22386 5.00067 5 4.77681 5 4.50067V2.50067C5 2.22453 5.22386 2.00067 5.5 2.00067Z" fill="#8F0A0C"/>
<path fill-rule="evenodd" clip-rule="evenodd" d="M3 1.00067C3.27614 1.00067 3.5 1.22453 3.5 1.50067V5.50067C3.5 5.77681 3.27614 6.00067 3 6.00067C2.72386 6.00067 2.5 5.77681 2.5 5.50067V1.50067C2.5 1.22453 2.72386 1.00067 3 1.00067Z" fill="#8F0A0C"/>
<path fill-rule="evenodd" clip-rule="evenodd" d="M0.5 0.000976562C0.776142 0.000976562 1 0.224834 1 0.500977V6.50098C1 6.77712 0.776142 7.00098 0.5 7.00098C0.223858 7.00098 0 6.77712 0 6.50098V0.500977C0 0.224834 0.223858 0.000976562 0.5 0.000976562Z" fill="#8F0A0C"/>
<path fill-rule="evenodd" clip-rule="evenodd" d="M10.5 2.00067C10.7761 2.00067 11 2.22453 11 2.50067V4.50067C11 4.77681 10.7761 5.00067 10.5 5.00067C10.2239 5.00067 10 4.77681 10 4.50067V2.50067C10 2.22453 10.2239 2.00067 10.5 2.00067Z" fill="#8F0A0C"/>
<path fill-rule="evenodd" clip-rule="evenodd" d="M13 1.00067C13.2761 1.00067 13.5 1.22453 13.5 1.50067V5.50067C13.5 5.77681 13.2761 6.00067 13 6.00067C12.7239 6.00067 12.5 5.77681 12.5 5.50067V1.50067C12.5 1.22453 12.7239 1.00067 13 1.00067Z" fill="#8F0A0C"/>
<path fill-rule="evenodd" clip-rule="evenodd" d="M15.5 0.000671387C15.7761 0.000671387 16 0.224529 16 0.500671V6.50067C16 6.77681 15.7761 7.00067 15.5 7.00067C15.2239 7.00067 15 6.77681 15 6.50067V0.500671C15 0.224529 15.2239 0.000671387 15.5 0.000671387Z" fill="#8F0A0C"/>
<path fill-rule="evenodd" clip-rule="evenodd" d="M2.75 14.0007C3.02614 14.0007 3.25 14.2245 3.25 14.5007V15.5007C3.25 15.7768 3.02614 16.0007 2.75 16.0007C2.47386 16.0007 2.25 15.7768 2.25 15.5007V14.5007C2.25 14.2245 2.47386 14.0007 2.75 14.0007Z" fill="#8F0A0C"/>
<path fill-rule="evenodd" clip-rule="evenodd" d="M13.25 14.0007C13.5261 14.0007 13.75 14.2245 13.75 14.5007V15.5007C13.75 15.7768 13.5261 16.0007 13.25 16.0007C12.9739 16.0007 12.75 15.7768 12.75 15.5007V14.5007C12.75 14.2245 12.9739 14.0007 13.25 14.0007Z" fill="#8F0A0C"/>
<path fill-rule="evenodd" clip-rule="evenodd" d="M6.5 9.50067C6.77614 9.50067 7 9.72453 7 10.0007V14.5007C7 14.7768 6.77614 15.0007 6.5 15.0007C6.22386 15.0007 6 14.7768 6 14.5007V10.0007C6 9.72453 6.22386 9.50067 6.5 9.50067Z" fill="#8F0A0C"/>
<path fill-rule="evenodd" clip-rule="evenodd" d="M9.08332 11.6264C9.20666 11.544 9.35167 11.5 9.5 11.5C9.69891 11.5 9.88968 11.579 10.0303 11.7197C10.171 11.8603 10.25 12.0511 10.25 12.25C10.25 12.3983 10.206 12.5433 10.1236 12.6667C10.0412 12.79 9.92405 12.8861 9.78701 12.9429C9.64997 12.9997 9.49917 13.0145 9.35368 12.9856C9.2082 12.9567 9.07456 12.8852 8.96967 12.7803C8.86478 12.6754 8.79335 12.5418 8.76441 12.3963C8.73547 12.2508 8.75032 12.1 8.80709 11.963C8.86386 11.8259 8.95999 11.7088 9.08332 11.6264ZM9.59567 12.481C9.61073 12.4747 9.62521 12.467 9.63889 12.4579C9.66632 12.4395 9.68972 12.4161 9.70787 12.3889C9.71692 12.3753 9.72467 12.3609 9.73097 12.3457C9.74359 12.3152 9.75 12.2827 9.75 12.25C9.75 12.2337 9.74841 12.2174 9.7452 12.2012C9.73555 12.1527 9.71174 12.1082 9.67678 12.0732C9.64181 12.0383 9.59726 12.0144 9.54877 12.0048C9.53263 12.0016 9.5163 12 9.5 12C9.46733 12 9.43481 12.0064 9.40433 12.019C9.38913 12.0253 9.37466 12.0331 9.36111 12.0421C9.33394 12.0603 9.31046 12.0837 9.29213 12.1111C9.28299 12.1248 9.27527 12.1393 9.26903 12.1543C9.25653 12.1845 9.25 12.217 9.25 12.25C9.25 12.2665 9.25163 12.2828 9.2548 12.2988C9.26438 12.3469 9.288 12.3916 9.32322 12.4268C9.35844 12.462 9.40309 12.4856 9.45123 12.4952C9.46717 12.4984 9.4835 12.5 9.5 12.5C9.53299 12.5 9.56548 12.4935 9.59567 12.481Z" fill="#8F0A0C"/>
<path fill-rule="evenodd" clip-rule="evenodd" d="M0.805456 10.3061C1.32118 9.7904 2.02065 9.50067 2.75 9.50067H13.25C13.9793 9.50067 14.6788 9.7904 15.1945 10.3061C15.7103 10.8219 16 11.5213 16 12.2507C16 12.98 15.7103 13.6795 15.1945 14.1952C14.6788 14.7109 13.9793 15.0007 13.25 15.0007H2.75C2.02065 15.0007 1.32118 14.7109 0.805456 14.1952C0.289731 13.6795 0 12.98 0 12.2507C0 11.5213 0.289731 10.8219 0.805456 10.3061ZM2.75 10.5007C2.28587 10.5007 1.84075 10.685 1.51256 11.0132C1.18437 11.3414 1 11.7865 1 12.2507C1 12.7148 1.18437 13.1599 1.51256 13.4881C1.84075 13.8163 2.28587 14.0007 2.75 14.0007H13.25C13.7141 14.0007 14.1592 13.8163 14.4874 13.4881C14.8156 13.1599 15 12.7148 15 12.2507C15 11.7865 14.8156 11.3414 14.4874 11.0132C14.1592 10.685 13.7141 10.5007 13.25 10.5007H2.75Z" fill="#8F0A0C"/>
</g>
<defs>
<clipPath id="clip0">
<rect width="16" height="16" fill="white"/>
</clipPath>
</defs>
</svg>
