<svg width="20" height="20" viewBox="0 0 20 20" fill="none" xmlns="http://www.w3.org/2000/svg">
<g clip-path="url(#clip0)">
<path d="M1.63508 0.459961H13.596C17.4923 0.981433 19.5462 4.11027 19.5462 7.2391C19.5462 10.3679 17.3413 14.3557 12.6596 14.4784V17.8833C12.71 18.3741 13.1429 19.3925 14.4719 19.5397H1.45386C1.96733 19.509 3.03052 19.0305 3.1755 17.3618V15.0919V2.3618C3.15536 1.86078 2.81909 0.778979 1.63508 0.459961Z" fill="#03294A"/>
<path d="M9.34044 12C7.84459 8.70331 11.0053 7.49961 11.0053 7.49961C10.7841 9.25875 12.2788 10.6292 12.2788 10.6292C12.8285 10.5183 13.8778 9.99985 13.8778 9.99985C13.8778 10.6292 13.3241 11.9992 13.3241 11.9992C13.3241 11.9992 15.2622 10.9969 15.8723 9.33218C16.4817 7.66744 14.7117 5.99615 14.7117 5.99615C14.8184 7.17442 14.2224 8.33328 13.0548 9.21863C13.1132 9.17352 13.1622 9.12343 13.1998 9.06915C13.4096 8.78854 13.7464 8.05924 13.5492 6.37038C13.2716 3.99968 10.0599 3 10.0599 3C10.3368 4.44445 9.50669 4.77724 7.56229 7.51901C5.61789 10.2603 9.34044 12 9.34044 12Z" fill="white"/>
</g>
<defs>
<clipPath id="clip0">
<rect width="20" height="20" fill="white"/>
</clipPath>
</defs>
</svg>
