<svg width="24" height="24" viewBox="0 0 24 24" fill="none" xmlns="http://www.w3.org/2000/svg">
<g clip-path="url(#clip0)">
<path fill-rule="evenodd" clip-rule="evenodd" d="M13.0607 1.49902C12.9621 1.49898 12.8646 1.51834 12.7736 1.556C12.6826 1.59363 12.6 1.6488 12.5303 1.71835C12.5303 1.71841 12.5304 1.7183 12.5303 1.71835L2.03033 12.2184C1.96063 12.288 1.90518 12.3709 1.86745 12.4619C1.82973 12.5529 1.81032 12.6505 1.81032 12.749C1.81032 12.8476 1.82973 12.9451 1.86745 13.0362C1.90518 13.1272 1.96046 13.2099 2.03016 13.2795L7.40925 18.6576C7.40926 18.6576 7.40924 18.6576 7.40925 18.6576C7.54989 18.7982 7.74064 18.8772 7.9395 18.8772C8.13837 18.8772 8.3291 18.7982 8.46975 18.6576C8.76268 18.3648 9.23756 18.3648 9.53041 18.6578C9.82326 18.9507 9.82318 19.4256 9.53025 19.7184C9.10831 20.1403 8.53612 20.3772 7.9395 20.3772C7.34288 20.3772 6.77068 20.1403 6.34875 19.7184L0.969838 14.3405C0.760752 14.1316 0.59489 13.8835 0.481727 13.6104C0.368564 13.3373 0.310318 13.0446 0.310318 12.749C0.310318 12.4534 0.368564 12.1607 0.481727 11.8877C0.59489 11.6146 0.760752 11.3665 0.969838 11.1575L11.4697 0.657694C11.6787 0.448794 11.927 0.282949 12.2001 0.169962C12.4731 0.0570181 12.7656 -0.00106575 13.061 -0.00097646H18.439C19.0357 -0.00097646 19.608 0.236076 20.03 0.658034C20.4519 1.07999 20.689 1.65229 20.689 2.24902V7.62803C20.6889 8.22435 20.452 8.79639 20.0305 9.21819C19.7377 9.51118 19.2628 9.51133 18.9698 9.21853C18.6769 8.92573 18.6767 8.45085 18.9695 8.15787C19.11 8.01731 19.1889 7.82674 19.189 7.62803C19.189 7.62797 19.189 7.62808 19.189 7.62803V2.24902C19.189 2.05011 19.11 1.85935 18.9693 1.71869C18.8287 1.57804 18.6379 1.49902 18.439 1.49902L13.0607 1.49902Z" fill="white"/>
<path fill-rule="evenodd" clip-rule="evenodd" d="M15.564 3.56362C15.749 3.44001 15.9665 3.37402 16.189 3.37402C16.4874 3.37402 16.7735 3.49255 16.9845 3.70353C17.1955 3.91451 17.314 4.20066 17.314 4.49902C17.314 4.72152 17.248 4.93903 17.1244 5.12404C17.0008 5.30905 16.8251 5.45324 16.6195 5.53839C16.4139 5.62354 16.1877 5.64582 15.9695 5.60241C15.7513 5.559 15.5508 5.45185 15.3935 5.29452C15.2362 5.13718 15.129 4.93673 15.0856 4.7185C15.0422 4.50027 15.0645 4.27407 15.1496 4.0685C15.2348 3.86294 15.379 3.68724 15.564 3.56362ZM16.3325 4.84548C16.3551 4.83612 16.3768 4.82454 16.3973 4.81082C16.4385 4.78333 16.4736 4.74811 16.5008 4.70736C16.5144 4.68704 16.526 4.66533 16.5355 4.64253C16.5544 4.59681 16.564 4.54803 16.564 4.49902C16.564 4.47458 16.5616 4.45007 16.5568 4.42586C16.5423 4.35312 16.5066 4.2863 16.4542 4.23386C16.4017 4.18141 16.3349 4.1457 16.2622 4.13123C16.2379 4.12641 16.2134 4.12402 16.189 4.12402C16.14 4.12402 16.0912 4.13363 16.0455 4.15257C16.0227 4.16201 16.001 4.17364 15.9807 4.18722C15.9399 4.21445 15.9047 4.24954 15.8772 4.29068C15.8635 4.31121 15.8519 4.33293 15.8425 4.35552C15.8238 4.4008 15.814 4.44954 15.814 4.49902C15.814 4.52377 15.8164 4.54826 15.8212 4.57218C15.8356 4.64439 15.871 4.71136 15.9238 4.76419C15.9767 4.81702 16.0436 4.85245 16.1158 4.86682C16.1398 4.87158 16.1642 4.87402 16.189 4.87402C16.2385 4.87402 16.2872 4.86423 16.3325 4.84548Z" fill="white"/>
<path fill-rule="evenodd" clip-rule="evenodd" d="M16.4071 13.499H18.439C18.8532 13.499 19.189 13.8348 19.189 14.249C19.189 14.6632 18.8532 14.999 18.439 14.999H16.4036C16.266 14.9986 16.1326 15.0462 16.0263 15.1336C15.92 15.221 15.8476 15.3428 15.8215 15.4779C15.7954 15.613 15.8172 15.753 15.8833 15.8737C15.9493 15.9944 16.0554 16.0883 16.1833 16.1392L16.1848 16.1398L18.249 16.9662C18.6995 17.1475 19.073 17.48 19.3053 17.9065C19.5376 18.3331 19.6142 18.8271 19.5221 19.304C19.4299 19.7809 19.1747 20.2108 18.8002 20.5201C18.4257 20.8294 17.9552 20.9987 17.4695 20.999H15.439C15.0248 20.999 14.689 20.6632 14.689 20.249C14.689 19.8348 15.0248 19.499 15.439 19.499H17.4685C17.6059 19.4989 17.7391 19.451 17.845 19.3635C17.951 19.276 18.0232 19.1543 18.0493 19.0194C18.0754 18.8844 18.0537 18.7446 17.988 18.6239C17.9223 18.5034 17.8169 18.4094 17.6896 18.358C17.6894 18.358 17.6898 18.3581 17.6896 18.358L15.6288 17.5329C15.6285 17.5328 15.629 17.533 15.6288 17.5329C15.1768 17.3529 14.8008 17.0205 14.5673 16.5936C14.3336 16.1665 14.2563 15.6712 14.3487 15.1932C14.4411 14.7152 14.6974 14.2844 15.0734 13.9751C15.4491 13.6662 15.9207 13.4978 16.4071 13.499Z" fill="white"/>
<path fill-rule="evenodd" clip-rule="evenodd" d="M16.939 12.749C17.3532 12.749 17.689 13.0848 17.689 13.499V14.249C17.689 14.6632 17.3532 14.999 16.939 14.999C16.5248 14.999 16.189 14.6632 16.189 14.249V13.499C16.189 13.0848 16.5248 12.749 16.939 12.749Z" fill="white"/>
<path fill-rule="evenodd" clip-rule="evenodd" d="M16.939 19.499C17.3532 19.499 17.689 19.8348 17.689 20.249V20.999C17.689 21.4132 17.3532 21.749 16.939 21.749C16.5248 21.749 16.189 21.4132 16.189 20.999V20.249C16.189 19.8348 16.5248 19.499 16.939 19.499Z" fill="white"/>
<path fill-rule="evenodd" clip-rule="evenodd" d="M16.939 11.999C14.0395 11.999 11.689 14.3495 11.689 17.249C11.689 20.1485 14.0395 22.499 16.939 22.499C19.8385 22.499 22.189 20.1485 22.189 17.249C22.189 14.3495 19.8385 11.999 16.939 11.999ZM10.189 17.249C10.189 13.5211 13.2111 10.499 16.939 10.499C20.6669 10.499 23.689 13.5211 23.689 17.249C23.689 20.9769 20.6669 23.999 16.939 23.999C13.2111 23.999 10.189 20.9769 10.189 17.249Z" fill="white"/>
</g>
<defs>
<clipPath id="clip0">
<rect width="24" height="24" fill="white"/>
</clipPath>
</defs>
</svg>
