<svg width="24" height="24" viewBox="0 0 24 24" fill="none" xmlns="http://www.w3.org/2000/svg">
<path d="M22.608 4.65592L22.536 4.53592C21.792 2.15992 17.76 0.695923 12 0.695923H11.688C10.728 0.719923 9.71999 0.767923 8.68799 0.887923C7.72799 1.03192 6.91199 1.15192 6.048 1.39192C5.376 1.58392 4.60799 1.82392 3.91199 2.18392C3.14399 2.54392 2.28 3.04792 1.752 3.93592L1.56 4.31992C1.488 4.41592 1.32 4.60792 1.32 4.89592V7.03192V12.1919V17.3519V18.7199V18.7439C1.32 18.8399 1.296 18.9599 1.344 19.1279C1.344 19.1759 1.368 19.2239 1.392 19.2959C2.016 21.6719 6.384 23.3039 12 23.3039C16.776 23.3039 21.936 22.0799 22.632 19.3199L22.68 19.0799V17.3279V12.1679V7.03192V4.77592L22.608 4.65592ZM21.36 11.1359C18.312 11.8559 15.168 12.2159 12 12.2159C8.832 12.2159 5.68799 11.8559 2.64 11.1359V7.34392C5.68799 8.03992 8.832 8.39992 12 8.39992C15.168 8.39992 18.312 8.03992 21.36 7.34392V11.1359ZM2.64 12.5039C5.68799 13.1999 8.832 13.5599 12 13.5599C15.168 13.5599 18.312 13.1999 21.36 12.5039V16.2959C18.312 17.0159 15.168 17.3759 12 17.3759C8.832 17.3759 5.68799 17.0159 2.64 16.2959V12.5039ZM2.928 4.55992C3.264 4.00792 3.888 3.64792 4.51199 3.35992C5.13599 3.04792 5.832 2.83192 6.408 2.66392C7.2 2.44792 7.96799 2.32792 8.87999 2.20792C9.81599 2.08792 10.8 2.03992 11.736 2.01592H12V2.03992C17.784 2.03992 20.88 3.57592 21.288 4.99192L21.312 5.06392L21.36 5.13592V5.97592C18.312 6.69592 15.168 7.05592 12 7.05592C8.832 7.05592 5.68799 6.69592 2.64 5.97592V5.08792C2.688 5.03992 2.712 4.96792 2.736 4.89592L2.928 4.55992ZM21.336 19.0319C20.88 20.6879 16.8 21.9839 12 21.9839C6.648 21.9839 3.048 20.4479 2.664 18.9839C2.664 18.9839 2.664 18.9599 2.64 18.9359V18.8399C2.64 18.8159 2.64 18.7679 2.64 18.7439V17.6639C5.68799 18.3599 8.832 18.7199 12 18.7199C15.168 18.7199 18.312 18.3599 21.36 17.6639V18.9359L21.336 19.0319Z" fill="white"/>
</svg>
