<svg width="20" height="17" viewBox="0 0 20 17" fill="none" xmlns="http://www.w3.org/2000/svg">
<path fill-rule="evenodd" clip-rule="evenodd" d="M6.03462 6.56236C6.03462 6.24925 5.78125 5.99588 5.46814 5.99588H4.90166V0.897537C4.90166 0.584423 4.64829 0.331055 4.33517 0.331055C4.02206 0.331055 3.76869 0.584423 3.76869 0.897537V5.99588H3.20221C2.8891 5.99588 2.63573 6.24925 2.63573 6.56236V8.26181H6.03462V6.56236ZM16.7978 5.99588C17.1109 5.99588 17.3643 6.24925 17.3643 6.56236V8.26181H13.9654V6.56236C13.9654 6.24925 14.2187 5.99588 14.5319 5.99588H15.0983V0.897537C15.0983 0.584423 15.3517 0.331055 15.6648 0.331055C15.9779 0.331055 16.2313 0.584423 16.2313 0.897537V5.99588H16.7978ZM13.0869 3.41688C11.2115 2.34257 8.78848 2.34257 6.91312 3.41688C6.64038 3.57232 6.29463 3.47772 6.13979 3.20668C5.98431 2.93503 6.07839 2.58872 6.35 2.43328C8.56725 1.16421 11.4329 1.16421 13.6501 2.43328C13.9217 2.58876 14.0158 2.93507 13.8603 3.20668C13.705 3.47779 13.3583 3.57198 13.0869 3.41688ZM8.39017 7.13937C8.23473 6.86772 8.32933 6.52198 8.60094 6.36654C9.46395 5.87309 10.536 5.87309 11.3991 6.36654C11.6707 6.52198 11.7653 6.86776 11.6098 7.13937C11.4531 7.41389 11.1043 7.50384 10.837 7.35014C10.3203 7.05474 9.67971 7.05474 9.163 7.35014C8.89136 7.50615 8.54508 7.41155 8.39017 7.13937ZM12.735 5.17324C12.8905 4.90163 12.7959 4.55532 12.5248 4.39984C10.9925 3.52356 9.00754 3.52356 7.47517 4.39984C7.20409 4.55528 7.10949 4.90159 7.26497 5.17324C7.41988 5.44375 7.76563 5.54002 8.03837 5.38344C9.22775 4.70189 10.7723 4.70189 11.9617 5.38344C12.232 5.53794 12.5792 5.44541 12.735 5.17324ZM0.898514 9.39478H19.1015C19.4146 9.39478 19.668 9.64814 19.668 9.96126V14.4931C19.668 14.8062 19.4146 15.0596 19.1015 15.0596H17.3643V15.6261C17.3643 15.9392 17.1109 16.1926 16.7978 16.1926H14.5319C14.2187 16.1926 13.9654 15.9392 13.9654 15.6261V15.0596H6.03462V15.6261C6.03462 15.9392 5.78125 16.1926 5.46814 16.1926H3.20221C2.8891 16.1926 2.63573 15.9392 2.63573 15.6261V15.0596H0.898514C0.5854 15.0596 0.332031 14.8062 0.332031 14.4931V9.96126C0.332031 9.64814 0.5854 9.39478 0.898514 9.39478ZM2.63573 12.2272C2.63573 12.5403 2.8891 12.7937 3.20221 12.7937H4.33517C4.64829 12.7937 4.90166 12.5403 4.90166 12.2272C4.90166 11.9141 4.64829 11.6607 4.33517 11.6607H3.20221C2.8891 11.6607 2.63573 11.9141 2.63573 12.2272ZM6.6011 12.7937H7.73407C8.04718 12.7937 8.30055 12.5403 8.30055 12.2272C8.30055 11.9141 8.04718 11.6607 7.73407 11.6607H6.6011C6.28799 11.6607 6.03462 11.9141 6.03462 12.2272C6.03462 12.5403 6.28799 12.7937 6.6011 12.7937ZM10 12.7937H16.7978C17.1109 12.7937 17.3643 12.5403 17.3643 12.2272C17.3643 11.9141 17.1109 11.6607 16.7978 11.6607H10C9.68689 11.6607 9.43352 11.9141 9.43352 12.2272C9.43352 12.5403 9.68689 12.7937 10 12.7937Z" fill="#03294A"/>
</svg>
