<svg width="16" height="16" viewBox="0 0 16 16" fill="none" xmlns="http://www.w3.org/2000/svg">
<g clip-path="url(#clip0)">
<path fill-rule="evenodd" clip-rule="evenodd" d="M11.2703 12L11.2713 12L11.2762 12C12.3076 12.002 13.313 12.3237 14.1539 12.9208C14.9948 13.518 15.6299 14.3612 15.9717 15.3343C16.0632 15.5949 15.9261 15.8803 15.6656 15.9718C15.4051 16.0633 15.1197 15.9262 15.0282 15.6657C14.7549 14.8877 14.2472 14.2136 13.5749 13.7362C12.9028 13.2589 12.0992 13.0017 11.2748 13H11.2718C10.4475 13.0017 9.64396 13.2589 8.97191 13.7362C8.29973 14.2136 7.79213 14.8877 7.51903 15.6656C7.42755 15.9262 7.14218 16.0632 6.88163 15.9718C6.62108 15.8803 6.48401 15.5949 6.57548 15.3344C6.9171 14.3613 7.55206 13.5181 8.39287 12.9209C9.23368 12.3238 10.239 12.002 11.2703 12Z" fill="#8F0A0C"/>
<path fill-rule="evenodd" clip-rule="evenodd" d="M8.5549 6.99421C8.7536 6.80246 9.07014 6.80809 9.26189 7.0068C9.8364 7.60214 10.5787 8.00832 11.3898 8.17125C12.2009 8.33418 13.0424 8.24612 13.8023 7.9188C14.0559 7.80955 14.3501 7.92658 14.4593 8.18019C14.5686 8.4338 14.4515 8.72796 14.1979 8.83721C13.2514 9.24492 12.2032 9.35461 11.1929 9.15167C10.1825 8.94872 9.25793 8.44277 8.54231 7.70121C8.35055 7.5025 8.35619 7.18597 8.5549 6.99421Z" fill="#8F0A0C"/>
<path fill-rule="evenodd" clip-rule="evenodd" d="M11.2712 6.5C10.0286 6.5 9.02124 7.50736 9.02124 8.75C9.02124 9.99264 10.0286 11 11.2712 11C12.5139 11 13.5212 9.99264 13.5212 8.75C13.5212 7.50736 12.5139 6.5 11.2712 6.5ZM8.02124 8.75C8.02124 6.95507 9.47631 5.5 11.2712 5.5C13.0662 5.5 14.5212 6.95507 14.5212 8.75C14.5212 10.5449 13.0662 12 11.2712 12C9.47631 12 8.02124 10.5449 8.02124 8.75Z" fill="#8F0A0C"/>
<path fill-rule="evenodd" clip-rule="evenodd" d="M11.1853 12C11.4614 12 11.6853 12.2239 11.6853 12.5V15.5C11.6853 15.7761 11.4614 16 11.1853 16C10.9092 16 10.6853 15.7761 10.6853 15.5V12.5C10.6853 12.2239 10.9092 12 11.1853 12Z" fill="#8F0A0C"/>
<path fill-rule="evenodd" clip-rule="evenodd" d="M10.181 1.34873C9.11611 1.00001 7.98306 0.912014 6.87709 1.09213C5.77111 1.27225 4.72453 1.71522 3.8253 2.38381C2.92608 3.05241 2.20048 3.92709 1.7095 4.93434C1.21852 5.9416 0.976503 7.05199 1.00378 8.17221C1.03107 9.29242 1.32685 10.3897 1.86628 11.3719C2.40571 12.354 3.17302 13.1924 4.10373 13.8164C4.33309 13.9702 4.39435 14.2808 4.24057 14.5101C4.08679 14.7395 3.77619 14.8008 3.54683 14.647C2.48318 13.9338 1.60626 12.9757 0.98978 11.8533C0.373296 10.7308 0.0352592 9.47678 0.00408088 8.19655C-0.0270974 6.91632 0.249494 5.64731 0.810607 4.49618C1.37172 3.34505 2.20096 2.34542 3.22864 1.58132C4.25631 0.817226 5.45239 0.31098 6.71635 0.105135C7.9803 -0.100711 9.2752 -0.00014174 10.4922 0.39839C11.7092 0.796922 12.8128 1.48177 13.7102 2.39538C14.6076 3.30899 15.2725 4.42466 15.6492 5.64862L15.6496 5.65018C15.6839 5.76288 15.7161 5.87627 15.7461 5.99034C15.8165 6.25738 15.657 6.53087 15.39 6.6012C15.1229 6.67153 14.8494 6.51206 14.7791 6.24503C14.7523 6.14345 14.7237 6.04252 14.6932 5.94223C14.3636 4.87145 13.7819 3.89541 12.9968 3.09612C12.2116 2.2967 11.2459 1.69745 10.181 1.34873Z" fill="#8F0A0C"/>
<path fill-rule="evenodd" clip-rule="evenodd" d="M6.45014 0.290005C6.68687 0.432179 6.76352 0.739342 6.62135 0.976072C5.8648 2.23577 5.38505 3.64208 5.21398 5.10152C5.21327 5.10752 5.21246 5.11351 5.21154 5.11948C4.81608 7.68507 5.01659 10.3073 5.79755 12.7829C5.88062 13.0462 5.73448 13.3271 5.47113 13.4101C5.20778 13.4932 4.92695 13.3471 4.84387 13.0837C4.01764 10.4646 3.80483 7.69052 4.22184 4.97606C4.41035 3.3789 4.93602 1.83998 5.76407 0.461213C5.90625 0.224483 6.21341 0.14783 6.45014 0.290005Z" fill="#8F0A0C"/>
<path fill-rule="evenodd" clip-rule="evenodd" d="M0.0166016 7.5C0.0166016 7.22386 0.240459 7 0.516602 7H6.49994C6.77608 7 6.99994 7.22386 6.99994 7.5C6.99994 7.77614 6.77608 8 6.49994 8H0.516602C0.240459 8 0.0166016 7.77614 0.0166016 7.5Z" fill="#8F0A0C"/>
<path fill-rule="evenodd" clip-rule="evenodd" d="M1.15454 4C1.15454 3.72386 1.3784 3.5 1.65454 3.5H14.3452C14.6213 3.5 14.8452 3.72386 14.8452 4C14.8452 4.27614 14.6213 4.5 14.3452 4.5H1.65454C1.3784 4.5 1.15454 4.27614 1.15454 4Z" fill="#8F0A0C"/>
<path fill-rule="evenodd" clip-rule="evenodd" d="M0.624023 11C0.624023 10.7239 0.847881 10.5 1.12402 10.5H6.50002C6.77617 10.5 7.00002 10.7239 7.00002 11C7.00002 11.2761 6.77617 11.5 6.50002 11.5H1.12402C0.847881 11.5 0.624023 11.2761 0.624023 11Z" fill="#8F0A0C"/>
<path fill-rule="evenodd" clip-rule="evenodd" d="M9.54342 0.294089C9.77792 0.148272 10.0862 0.220167 10.232 0.454671C10.8899 1.51256 11.347 2.68265 11.5806 3.90628C11.6323 4.17753 11.4544 4.43939 11.1832 4.49116C10.9119 4.54294 10.6501 4.36502 10.5983 4.09378C10.3878 2.99088 9.97574 1.93623 9.38283 0.982721C9.23702 0.748218 9.30891 0.439907 9.54342 0.294089Z" fill="#8F0A0C"/>
</g>
<defs>
<clipPath id="clip0">
<rect width="16" height="16" fill="white"/>
</clipPath>
</defs>
</svg>
