<svg width="16" height="16" viewBox="0 0 16 16" fill="none" xmlns="http://www.w3.org/2000/svg">
<g clip-path="url(#clip0)">
<path fill-rule="evenodd" clip-rule="evenodd" d="M7.99927 5.5C7.44698 5.5 6.99927 5.94772 6.99927 6.5C6.99927 7.05228 7.44698 7.5 7.99927 7.5C8.55155 7.5 8.99927 7.05228 8.99927 6.5C8.99927 5.94772 8.55155 5.5 7.99927 5.5ZM5.99927 6.5C5.99927 5.39543 6.8947 4.5 7.99927 4.5C9.10384 4.5 9.99927 5.39543 9.99927 6.5C9.99927 7.60457 9.10384 8.5 7.99927 8.5C6.8947 8.5 5.99927 7.60457 5.99927 6.5Z" fill="#8F0A0C"/>
<path fill-rule="evenodd" clip-rule="evenodd" d="M7.97962 8.00039C7.99279 7.99987 8.00599 7.99987 8.01917 8.00039C8.70148 8.0274 9.35724 8.2721 9.89046 8.69867C10.4237 9.12524 10.8063 9.71129 10.9825 10.371C11.0537 10.6378 10.8952 10.9119 10.6284 10.9831C10.3616 11.0543 10.0875 10.8958 10.0163 10.629C9.89526 10.1755 9.63224 9.77272 9.26576 9.47954C8.90443 9.19048 8.46124 9.02293 7.99939 9.00048C7.53755 9.02293 7.09435 9.19048 6.73302 9.47954C6.36654 9.77272 6.10353 10.1755 5.98247 10.629C5.91125 10.8958 5.63723 11.0543 5.37043 10.9831C5.10363 10.9119 4.94508 10.6378 5.01631 10.371C5.19244 9.71129 5.57511 9.12524 6.10833 8.69867C6.64154 8.2721 7.2973 8.0274 7.97962 8.00039Z" fill="#8F0A0C"/>
<path fill-rule="evenodd" clip-rule="evenodd" d="M7.99927 1C7.58505 1 7.24927 1.33579 7.24927 1.75C7.24927 2.16421 7.58505 2.5 7.99927 2.5C8.41348 2.5 8.74927 2.16421 8.74927 1.75C8.74927 1.33579 8.41348 1 7.99927 1ZM6.24927 1.75C6.24927 0.783502 7.03277 0 7.99927 0C8.96577 0 9.74927 0.783502 9.74927 1.75C9.74927 2.7165 8.96577 3.5 7.99927 3.5C7.03277 3.5 6.24927 2.7165 6.24927 1.75Z" fill="#8F0A0C"/>
<path fill-rule="evenodd" clip-rule="evenodd" d="M14.2493 7.25C13.8351 7.25 13.4993 7.58579 13.4993 8C13.4993 8.41421 13.8351 8.75 14.2493 8.75C14.6635 8.75 14.9993 8.41421 14.9993 8C14.9993 7.58579 14.6635 7.25 14.2493 7.25ZM12.4993 8C12.4993 7.0335 13.2828 6.25 14.2493 6.25C15.2158 6.25 15.9993 7.0335 15.9993 8C15.9993 8.9665 15.2158 9.75 14.2493 9.75C13.2828 9.75 12.4993 8.9665 12.4993 8Z" fill="#8F0A0C"/>
<path fill-rule="evenodd" clip-rule="evenodd" d="M7.99927 13.5C7.58505 13.5 7.24927 13.8358 7.24927 14.25C7.24927 14.6642 7.58505 15 7.99927 15C8.41348 15 8.74927 14.6642 8.74927 14.25C8.74927 13.8358 8.41348 13.5 7.99927 13.5ZM6.24927 14.25C6.24927 13.2835 7.03277 12.5 7.99927 12.5C8.96577 12.5 9.74927 13.2835 9.74927 14.25C9.74927 15.2165 8.96577 16 7.99927 16C7.03277 16 6.24927 15.2165 6.24927 14.25Z" fill="#8F0A0C"/>
<path fill-rule="evenodd" clip-rule="evenodd" d="M1.74927 7.25C1.33505 7.25 0.999268 7.58579 0.999268 8C0.999268 8.41421 1.33505 8.75 1.74927 8.75C2.16348 8.75 2.49927 8.41421 2.49927 8C2.49927 7.58579 2.16348 7.25 1.74927 7.25ZM-0.000732422 8C-0.000732422 7.0335 0.782769 6.25 1.74927 6.25C2.71577 6.25 3.49927 7.0335 3.49927 8C3.49927 8.9665 2.71577 9.75 1.74927 9.75C0.782769 9.75 -0.000732422 8.9665 -0.000732422 8Z" fill="#8F0A0C"/>
<path fill-rule="evenodd" clip-rule="evenodd" d="M10.5673 2.54969C10.7055 2.31064 11.0114 2.22893 11.2504 2.36718C12.2394 2.93916 13.0609 3.7607 13.6329 4.74969C13.7712 4.98873 13.6894 5.29459 13.4504 5.43284C13.2114 5.57109 12.9055 5.48938 12.7673 5.25033C12.2829 4.41286 11.5872 3.71719 10.7498 3.23284C10.5107 3.09459 10.429 2.78873 10.5673 2.54969Z" fill="#8F0A0C"/>
<path fill-rule="evenodd" clip-rule="evenodd" d="M13.4504 10.5672C13.6894 10.7054 13.7712 11.0113 13.6329 11.2503C13.0609 12.2393 12.2394 13.0609 11.2504 13.6328C11.0114 13.7711 10.7055 13.6894 10.5673 13.4503C10.429 13.2113 10.5107 12.9054 10.7498 12.7672C11.5872 12.2828 12.2829 11.5872 12.7673 10.7497C12.9055 10.5107 13.2114 10.4289 13.4504 10.5672Z" fill="#8F0A0C"/>
<path fill-rule="evenodd" clip-rule="evenodd" d="M2.54981 10.5672C2.78885 10.4289 3.09471 10.5107 3.23296 10.7497C3.71731 11.5872 4.41298 12.2828 5.25046 12.7672C5.4895 12.9054 5.57121 13.2113 5.43296 13.4503C5.29471 13.6894 4.98885 13.7711 4.74981 13.6328C3.76082 13.0609 2.93928 12.2393 2.36731 11.2503C2.22906 11.0113 2.31077 10.7054 2.54981 10.5672Z" fill="#8F0A0C"/>
<path fill-rule="evenodd" clip-rule="evenodd" d="M5.43296 2.54969C5.57121 2.78873 5.4895 3.09459 5.25046 3.23284C4.41298 3.71719 3.71731 4.41286 3.23296 5.25033C3.09471 5.48938 2.78885 5.57109 2.54981 5.43284C2.31077 5.29459 2.22906 4.98873 2.36731 4.74969C2.93928 3.7607 3.76082 2.93916 4.74981 2.36718C4.98885 2.22893 5.29471 2.31064 5.43296 2.54969Z" fill="#8F0A0C"/>
</g>
<defs>
<clipPath id="clip0">
<rect width="16" height="16" fill="white"/>
</clipPath>
</defs>
</svg>
