<svg width="18" height="18" viewBox="0 0 18 18" fill="none" xmlns="http://www.w3.org/2000/svg">
<g clip-path="url(#clip0)">
<path fill-rule="evenodd" clip-rule="evenodd" d="M10 0.5625C10 0.0102152 9.55229 -0.4375 9 -0.4375C8.44771 -0.4375 8 0.0102152 8 0.5625V8H0.5625C0.0102152 8 -0.4375 8.44771 -0.4375 9C-0.4375 9.55229 0.0102152 10 0.5625 10H8V17.4375C8 17.9898 8.44771 18.4375 9 18.4375C9.55229 18.4375 10 17.9898 10 17.4375V10H17.4375C17.9898 10 18.4375 9.55229 18.4375 9C18.4375 8.44771 17.9898 8 17.4375 8H10V0.5625Z" fill="#A53B3D"/>
</g>
<defs>
<clipPath id="clip0">
<rect width="18" height="18" fill="white"/>
</clipPath>
</defs>
</svg>
