<svg width="24" height="24" viewBox="0 0 24 24" fill="none" xmlns="http://www.w3.org/2000/svg">
<path d="M4.09371 9.14756V8.37903C4.1296 8.41594 5.01472 8.99402 5.93572 9.50501C6.47443 9.80389 6.99801 10.0107 7.37806 10.2199L9.20269 10.8812L12.4175 11.9L14.7809 12.7042C15.1979 12.871 16.0703 13.2154 16.2232 13.2583C16.4144 13.3119 17.4396 13.8302 17.8741 14.0447C18.2974 14.2537 18.8364 14.7343 19.1048 14.9737L19.1252 14.9919C19.3859 15.2243 19.7856 15.7247 19.9246 16.8686C20.0636 18.0124 19.3511 18.8703 19.1947 19.192C19.0696 19.4494 18.3201 20.1214 17.9609 20.4252L16.7098 21.2831L14.2248 22.7487C13.7498 23.0227 12.7164 23.6316 12.3828 23.8747C12.0491 24.1177 11.7108 23.9521 11.5834 23.8389L7.32592 21.2831C7.11739 21.158 6.00523 20.4074 5.22325 19.7103C4.44126 19.0133 4.38913 18.2984 4.23273 17.7265C4.10761 17.2689 4.04158 15.9749 4.0242 15.3851C3.99524 14.0685 3.96859 11.5389 4.09371 11.9536C4.21883 12.3682 6.02261 13.3179 6.90886 13.7408V15.9213V17.0294C6.90886 17.8179 7.66189 18.4652 8.00364 18.6916L10.3149 20.2286C10.7956 20.5265 11.785 21.1402 11.8962 21.2116C12.0074 21.2831 12.1395 21.2414 12.1916 21.2116L13.3559 20.4967L14.3812 19.8891L15.1805 19.3886L16.0494 18.8167L16.6924 18.3878C16.8256 18.3043 17.106 18.0196 17.1616 17.5477C17.2311 16.9579 17.1442 16.7613 16.9183 16.3503C16.6924 15.9392 16.2058 15.7247 16.1016 15.6532C16.0181 15.596 15.3717 15.3315 15.0589 15.2064L13.9815 14.8132C13.4891 14.6524 12.4488 14.3163 12.2264 14.2592C11.9483 14.1877 10.4712 13.6694 10.0194 13.58C9.56762 13.4906 8.26431 12.9544 7.48232 12.74C6.85673 12.5684 6.00523 12.0608 5.65768 11.8285C5.37385 11.6497 4.72973 11.135 4.42388 10.5059C4.11804 9.87676 4.07633 9.3382 4.09371 9.14756Z" fill="#08477C"/>
<path d="M16.9139 4.82232C17.0112 5.53723 17.024 7.45557 17.0182 8.32538C17.755 8.51126 19.1904 9.63009 19.816 10.1663L19.8681 8.66496C19.8797 7.97984 19.882 6.30933 19.7986 5.10829C19.6943 3.60698 19.4684 3.21378 19.2251 2.69547C18.9818 2.17716 18.4431 1.65885 17.6959 1.1048C16.9487 0.550743 15.9234 0.33627 15.4368 0.211161C15.0476 0.111074 13.421 0.0383926 12.6564 0.014563C11.7876 -0.00926734 9.77525 -0.0211825 8.67699 0.121799C7.30417 0.300526 6.1225 1.14054 5.61855 1.51587C5.1146 1.8912 3.75916 3.8572 4.0372 5.41212C4.25963 6.65607 5.32313 7.53898 5.82708 7.82494C6.19201 8.11091 7.06088 8.48623 7.25203 8.59347C7.39119 8.67153 8.09195 8.99263 8.4337 9.12965L10.0151 9.71945C10.4205 9.86243 11.2628 10.1591 11.3879 10.202C11.5443 10.2556 12.7259 10.6846 12.9692 10.7561C13.1639 10.8133 14.2088 11.1969 14.707 11.3816L15.4716 11.6676C15.9582 11.7927 17.47 12.5612 17.6785 12.6506C17.8871 12.7399 18.7212 13.2225 18.8602 13.3119C18.9714 13.3834 19.5437 13.7944 19.816 13.991V13.9017C19.8102 13.7408 19.8021 13.3583 19.816 13.1153C19.8299 12.8722 19.7407 12.454 19.6943 12.2752C19.6596 12.1382 19.5101 11.7462 19.1904 11.2744C18.7907 10.6846 18.5474 10.631 18.1303 10.2735C17.7133 9.91605 17.0182 9.64796 16.7054 9.48711C16.3926 9.32625 14.6375 8.71858 14.4811 8.66496C14.3247 8.61134 12.865 8.16452 12.5869 8.07516C12.3089 7.9858 10.1367 7.21727 9.2852 6.96705C8.604 6.76688 7.64592 6.16874 7.25203 5.89469C6.67858 5.53723 6.8176 4.12529 7.44319 3.49974C8.06878 2.8742 9.09405 2.6776 9.30258 2.65973C9.4694 2.64543 9.81232 2.62994 9.96292 2.62398H12.6564C13.2762 2.62994 14.7139 2.70262 15.5063 2.94569C16.4969 3.24953 16.7923 3.92869 16.9139 4.82232Z" fill="#FF0000"/>
<path fill-rule="evenodd" clip-rule="evenodd" d="M12.3828 18.1649C12.6715 18.0146 12.8868 17.7067 12.8868 17.3511C12.8868 16.8477 12.49 16.4396 12.0005 16.4396C11.511 16.4396 11.1143 16.8477 11.1143 17.3511C11.1143 17.7067 11.3122 18.0146 11.6008 18.1649C11.6008 18.1649 11.6008 18.1649 11.6008 18.1649V19.3706H12.3828V18.1649Z" fill="#08477C"/>
</svg>
