<svg width="495" height="560" viewBox="0 0 495 560" fill="none" xmlns="http://www.w3.org/2000/svg">
<path fill-rule="evenodd" clip-rule="evenodd" d="M258.826 389.678C263.819 386.068 267.068 380.194 267.068 373.56C267.068 362.583 258.171 353.684 247.196 353.684C236.221 353.684 227.325 362.583 227.325 373.56C227.325 380.194 230.573 386.068 235.566 389.678L226 428.55H268.392L258.826 389.678Z" fill="url(#paint0_linear)"/>
<path d="M491.504 225.299L430.066 206.316V124C347.149 124 246.751 75.9323 246.751 70.9367C246.751 75.4327 148.85 124 64.9344 124V177.342L465.03 320.714C421.075 466.084 276.47 546.013 247 560C246.611 559.84 246.306 559.674 245.978 559.503L245.252 559.15C192.524 536.024 47.2226 420.266 29.4702 315.219L99.8991 338.698C139.459 409.834 214.366 465.183 247 484C279.467 466.516 351.645 410.633 380.116 364.175L2.99697 226.298L0 71.9358C86.4127 71.4362 246.751 8.49248 246.751 0C246.751 8.49248 407.089 71.4363 495 71.4363L491.504 225.299Z" fill="url(#paint1_linear)"/>
<defs>
<linearGradient id="paint0_linear" x1="216.39" y1="395.455" x2="265.444" y2="391.868" gradientUnits="userSpaceOnUse">
<stop stop-color="#600100"/>
<stop offset="1" stop-color="#BF1F2A"/>
</linearGradient>
<linearGradient id="paint1_linear" x1="-112.214" y1="312.448" x2="456.228" y2="247.556" gradientUnits="userSpaceOnUse">
<stop stop-color="#600100"/>
<stop offset="1" stop-color="#BF1F2A"/>
</linearGradient>
</defs>
</svg>
