<svg width="122" height="128" viewBox="0 0 122 128" fill="none" xmlns="http://www.w3.org/2000/svg">
<path d="M19.106 123.165C21.061 123.165 22.727 122.468 23.832 121.176L22.404 119.816C21.537 120.768 20.466 121.227 19.225 121.227C16.76 121.227 14.975 119.493 14.975 117.045C14.975 114.597 16.76 112.863 19.225 112.863C20.466 112.863 21.537 113.322 22.404 114.257L23.832 112.914C22.727 111.622 21.061 110.925 19.123 110.925C15.468 110.925 12.748 113.492 12.748 117.045C12.748 120.598 15.468 123.165 19.106 123.165ZM30.2565 107.678C30.7495 107.678 31.1065 107.984 31.1065 108.426C31.1065 108.868 30.8515 109.208 30.1885 109.514L30.8855 110.296C31.8715 109.837 32.3475 109.157 32.3475 108.239C32.3475 107.219 31.5655 106.539 30.4775 106.539C29.8655 106.539 29.2365 106.709 28.7775 107.066L29.2365 108.001C29.5765 107.78 29.8995 107.678 30.2565 107.678ZM34.6085 122.995H36.9205L31.5485 111.095H29.3725L24.0175 122.995H26.2955L27.4685 120.241H33.4185L34.6085 122.995ZM28.2165 118.507L30.4435 113.305L32.6875 118.507H28.2165ZM46.8149 111.095V119.153L40.2529 111.095H38.4339V122.995H40.6269V114.937L47.1889 122.995H49.0079V111.095H46.8149ZM60.5606 111.095V116.008H54.4066V111.095H52.1966V122.995H54.4066V117.895H60.5606V122.995H62.7706V111.095H60.5606ZM79.0896 116.807C80.0076 116.314 80.6196 115.413 80.6196 114.189C80.6196 112.302 79.0896 111.095 76.2336 111.095H70.6576V122.995H76.5736C79.6336 122.995 81.2316 121.805 81.2316 119.765C81.2316 118.218 80.3646 117.215 79.0896 116.807ZM75.9956 112.829C77.5256 112.829 78.3926 113.373 78.3926 114.478C78.3926 115.566 77.5256 116.11 75.9956 116.11H72.8676V112.829H75.9956ZM76.4376 121.261H72.8676V117.827H76.4376C78.1036 117.827 79.0046 118.354 79.0046 119.544C79.0046 120.734 78.1036 121.261 76.4376 121.261ZM91.7162 107.797H89.2172L86.9222 110.126H88.7582L91.7162 107.797ZM92.4982 122.995H94.8102L89.4382 111.095H87.2622L81.9072 122.995H84.1852L85.3582 120.241H91.3082L92.4982 122.995ZM86.1062 118.507L88.3332 113.305L90.5772 118.507H86.1062ZM101.717 123.165C105.406 123.165 108.126 120.581 108.126 117.045C108.126 113.509 105.406 110.925 101.717 110.925C98.0276 110.925 95.3076 113.526 95.3076 117.045C95.3076 120.564 98.0276 123.165 101.717 123.165ZM101.717 121.227C99.3196 121.227 97.5346 119.476 97.5346 117.045C97.5346 114.614 99.3196 112.863 101.717 112.863C104.114 112.863 105.899 114.614 105.899 117.045C105.899 119.476 104.114 121.227 101.717 121.227Z" fill="#EB5757"/>
<path d="M55.0799 32.541L29.5282 76.7979C26.3501 82.302 30.3227 89.1824 36.6784 89.1824H87.7818C94.1375 89.1824 98.1096 82.302 94.932 76.7979L69.3803 32.541C66.2022 27.0368 58.2575 27.0368 55.0799 32.541Z" fill="#FF6977"/>
<path d="M36.6408 83.667C35.2243 83.667 34.5223 82.716 34.2863 82.3069C34.0503 81.8984 33.5777 80.8152 34.2863 79.5879L59.875 35.2665C60.5836 34.0392 61.7582 33.907 62.2301 33.907C62.7021 33.907 63.8767 34.0392 64.5852 35.2665L90.174 79.5879C90.8825 80.8152 90.41 81.8984 90.174 82.3069C89.938 82.716 89.236 83.667 87.8189 83.667H36.6408Z" fill="#FFEA60"/>
<path d="M65.4062 75.803C65.4062 77.5571 63.9844 78.9795 62.2298 78.9795C60.4751 78.9795 59.0527 77.5571 59.0527 75.803C59.0527 74.0484 60.4751 72.626 62.2298 72.626C63.9844 72.626 65.4062 74.0484 65.4062 75.803Z" fill="#8690A6"/>
<path d="M62.2299 67.6884C63.4975 67.6884 64.5705 66.7531 64.7436 65.4973L66.6004 52.0183C66.9654 49.3675 64.9054 47.0044 62.2299 47.0044C59.5539 47.0044 57.494 49.3675 57.8595 52.0183L59.7157 65.4973C59.8888 66.7531 60.9624 67.6884 62.2299 67.6884Z" fill="#8690A6"/>
<path d="M96.1596 76.1729L85.2018 57.1941C84.8218 56.5356 83.9805 56.3103 83.3225 56.6904C82.664 57.0704 82.4387 57.9117 82.8188 58.5697L93.7766 77.5491C95.0124 79.6902 95.0124 82.2464 93.7766 84.3875C92.5401 86.5281 90.3264 87.8064 87.8542 87.8064H36.6057C34.1334 87.8064 31.9197 86.5281 30.6833 84.3875C29.4474 82.2464 29.4474 79.6902 30.6833 77.5491L56.3075 33.1664C57.5439 31.0253 59.7576 29.7469 62.2299 29.7469C64.7022 29.7469 66.9159 31.0253 68.1518 33.1664L76.6432 47.8737C77.0233 48.5317 77.8645 48.757 78.5231 48.3769C79.181 47.9974 79.4063 47.1555 79.0262 46.4976L70.5353 31.7902C68.8017 28.7879 65.6967 26.9951 62.2299 26.9951C58.7631 26.9951 55.6581 28.7874 53.9245 31.7902L28.3002 76.1729C26.5666 79.1758 26.5666 82.7608 28.3002 85.7632C30.0334 88.766 33.1384 90.5588 36.6057 90.5588H87.8542C91.3209 90.5588 94.4259 88.766 96.1596 85.7632C97.8932 82.7608 97.8932 79.1758 96.1596 76.1729Z" fill="black"/>
<path d="M38.0684 75.7883C38.4484 75.1304 38.2232 74.2885 37.5647 73.909C36.9067 73.5289 36.0648 73.7542 35.6853 74.4122L33.0942 78.8998C32.354 80.1819 32.354 81.7129 33.0942 82.9955C33.8345 84.2771 35.1606 85.0426 36.6411 85.0426H87.8187C89.2991 85.0426 90.6253 84.2771 91.3656 82.9955C92.1058 81.7129 92.1058 80.1819 91.3656 78.8998L65.7762 34.5784C65.036 33.2963 63.7104 32.5308 62.2299 32.5308C60.7494 32.5308 59.4233 33.2963 58.683 34.5784L41.8469 63.7393C41.4669 64.3978 41.6926 65.2391 42.3506 65.6192C43.0086 65.9992 43.8504 65.7734 44.2305 65.1155L61.0666 35.9545C61.387 35.3992 61.8762 35.2831 62.2299 35.2831C62.5836 35.2831 63.0728 35.3992 63.3932 35.9545L88.982 80.276C89.3024 80.8307 89.1588 81.3129 88.982 81.6193C88.8051 81.9258 88.46 82.2908 87.8187 82.2908H36.6406C35.9998 82.2908 35.6547 81.9258 35.4773 81.6193C35.3004 81.3129 35.1569 80.8307 35.4773 80.276L38.0684 75.7883Z" fill="black"/>
<path d="M62.23 71.2498C59.7195 71.2498 57.6768 73.2925 57.6768 75.803C57.6768 78.3134 59.7195 80.3556 62.23 80.3556C64.7404 80.3556 66.7826 78.3134 66.7826 75.803C66.7826 73.2925 64.7404 71.2498 62.23 71.2498ZM62.23 77.6038C61.2371 77.6038 60.4291 76.7959 60.4291 75.803C60.4291 74.8095 61.2371 74.0021 62.23 74.0021C63.2228 74.0021 64.0308 74.8095 64.0308 75.803C64.0308 76.7959 63.2228 77.6038 62.23 77.6038Z" fill="black"/>
<path d="M66.5928 47.6129C65.4935 46.3517 63.9028 45.6282 62.2299 45.6282C60.5564 45.6282 58.9663 46.3517 57.8664 47.6129C56.7671 48.8745 56.2677 50.5485 56.4962 52.2059L58.3524 65.6849C58.618 67.6115 60.285 69.0645 62.2299 69.0645C64.1748 69.0645 65.8413 67.6115 66.1068 65.6849L67.9636 52.2059C68.1915 50.5485 67.6921 48.8745 66.5928 47.6129ZM65.2371 51.8306L63.3803 65.3091C63.3018 65.8811 62.8072 66.3127 62.2299 66.3127C61.6525 66.3127 61.1574 65.8811 61.079 65.3091L59.2222 51.8301C59.1029 50.9609 59.3647 50.083 59.9415 49.4213C60.5183 48.76 61.352 48.3805 62.2299 48.3805C63.1072 48.3805 63.9415 48.76 64.5178 49.4213C65.0946 50.083 65.3569 50.9609 65.2371 51.8306Z" fill="black"/>
<path d="M40.9218 70.7526C41.3347 70.3398 41.4384 69.6947 41.1815 69.1716C40.9186 68.6351 40.3171 68.326 39.7273 68.4222C39.1624 68.5142 38.706 68.9603 38.5974 69.5216C38.4915 70.0688 38.7409 70.644 39.2124 70.9418C39.7488 71.281 40.473 71.2042 40.9218 70.7526Z" fill="black"/>
<path d="M79.6193 53.0016C79.8364 53.5311 80.3837 53.88 80.9562 53.8499C81.5233 53.8203 82.0238 53.4365 82.198 52.8962C82.3738 52.349 82.1818 51.7351 81.7265 51.384C81.2653 51.0287 80.6095 51.0083 80.1256 51.3313C79.5859 51.691 79.3698 52.4033 79.6193 53.0016Z" fill="black"/>
<path d="M17.9092 89.9939L104.227 89.9939" stroke="black" stroke-width="2" stroke-linecap="round" stroke-linejoin="round"/>
<path d="M1 89.9939L12.5909 89.9939" stroke="black" stroke-width="2" stroke-linecap="round" stroke-linejoin="round"/>
<path d="M109.409 89.9939L121 89.9939" stroke="black" stroke-width="2" stroke-linecap="round" stroke-linejoin="round"/>
</svg>
