<svg width="71" height="78" viewBox="0 0 71 78" fill="none" xmlns="http://www.w3.org/2000/svg">
<g clip-path="url(#clip0)" filter="url(#filter0_d)">
<path d="M47.3225 17.5756H22.7169C19.7991 17.5756 17.4442 15.2206 17.4442 12.3029V8.78783C17.4442 7.80373 18.2174 7.03029 19.2018 7.03029H50.8376C51.8219 7.03029 52.5951 7.80373 52.5951 8.78783V12.3029C52.5951 15.2205 50.2402 17.5756 47.3225 17.5756Z" fill="#C9D8E0"/>
<path d="M59.2375 21.2806C58.1309 22.9922 56.715 24.4613 55.0251 25.645C53.3396 26.8242 51.4712 27.6558 49.4802 28.1156C48.5355 28.3343 47.9441 29.2776 48.1643 30.2244C48.3808 31.1722 49.3342 31.755 50.271 31.5417C52.7052 30.9806 54.9824 29.9649 57.0417 28.5237C59.1052 27.0782 60.8363 25.2847 62.1914 23.1916C62.7184 22.3765 62.4848 21.2879 61.668 20.7607C60.8524 20.2326 59.7644 20.4691 59.2375 21.2806Z" fill="#FF9191"/>
<path d="M53.3322 17.466C52.719 18.4141 51.9338 19.2308 50.9918 19.8892C50.0571 20.5454 49.0206 21.0077 47.9127 21.2623C46.9679 21.481 46.3766 22.4243 46.597 23.3693C46.8135 24.3171 47.7661 24.905 48.7034 24.6884C50.2548 24.3308 51.7034 23.6849 53.0086 22.7663C54.324 21.8478 55.4246 20.705 56.2865 19.3737C56.8135 18.5585 56.5799 17.4699 55.7631 16.9427C54.937 16.4153 53.8593 16.6539 53.3322 17.466Z" fill="#FF9191"/>
<path d="M10.7293 23.3585C10.0368 24.0409 10.0293 25.1541 10.7111 25.8451C12.4634 27.6191 14.5229 29.023 16.8373 30.0188C19.1466 31.011 21.5827 31.5426 24.0802 31.5972C25.044 31.6143 25.859 30.8498 25.8751 29.879C25.8981 28.9073 25.1273 28.1039 24.1579 28.0819C22.1149 28.0365 20.1166 27.6022 18.2264 26.7902C16.3312 25.9748 14.6461 24.8243 13.2147 23.3734C12.5342 22.6878 11.4222 22.6739 10.7293 23.3585Z" fill="#FF9191"/>
<path d="M15.7343 18.4198C15.0418 19.1021 15.0344 20.2154 15.7161 20.9064C16.8306 22.0347 18.1406 22.9298 19.616 23.5634C21.0799 24.1959 22.6297 24.5337 24.2214 24.5685C25.1864 24.5887 25.9965 23.8208 26.0156 22.8487C26.0393 21.8786 25.2685 21.0752 24.2991 21.0531C23.1625 21.0293 22.0537 20.7873 21.0058 20.3364C19.9489 19.8817 19.014 19.2416 18.2209 18.438C17.5483 17.7587 16.4421 17.7295 15.7343 18.4198Z" fill="#FF9191"/>
<path d="M59.4494 2.531L56.8835 7.62788C56.0047 9.42034 54.1768 10.5453 52.1734 10.5453H17.8661C15.8627 10.5453 14.0348 9.42046 13.156 7.62788L10.5901 2.531C10.0276 1.3709 10.8712 1.43051e-05 12.1718 1.43051e-05H57.868C59.1683 0.000131607 60.0119 1.37102 59.4494 2.531Z" fill="#E6E9ED"/>
<path d="M64.9909 1.75771C64.9909 0.773605 64.2177 0.00016737 63.2333 0.00016737H6.75755C5.7732 0.00016737 5 0.773605 5 1.75771C5 2.74206 5.7732 3.51526 6.75755 3.51526H63.2333C64.2177 3.51526 64.9909 2.74194 64.9909 1.75771Z" fill="#B6B6B6"/>
<path d="M53.9585 69.618C61.1612 69.618 67 63.7792 67 56.5765C67 49.374 61.1612 43.535 53.9585 43.535C53.4328 43.535 52.9155 43.5697 52.4059 43.6302C50.464 36.4503 43.9048 31.1676 36.1107 31.1676C29.0843 31.1676 23.0613 35.461 20.52 41.5671C20.0192 41.5131 19.5109 41.4835 18.9956 41.4835C11.2265 41.4835 4.92834 47.7815 4.92834 55.5508C4.92834 63.3198 11.2264 69.618 18.9956 69.618H53.9585Z" fill="#E6E9ED"/>
<path d="M28.784 54.946H30.856V58.922C30.324 59.3233 29.708 59.6313 29.008 59.846C28.308 60.0607 27.6033 60.168 26.894 60.168C25.8767 60.168 24.962 59.9533 24.15 59.524C23.338 59.0853 22.6987 58.4833 22.232 57.718C21.7747 56.9433 21.546 56.0707 21.546 55.1C21.546 54.1293 21.7747 53.2613 22.232 52.496C22.6987 51.7213 23.3427 51.1193 24.164 50.69C24.9853 50.2513 25.9093 50.032 26.936 50.032C27.7947 50.032 28.574 50.1767 29.274 50.466C29.974 50.7553 30.562 51.1753 31.038 51.726L29.582 53.07C28.882 52.3327 28.0373 51.964 27.048 51.964C26.4227 51.964 25.8673 52.0947 25.382 52.356C24.8967 52.6173 24.5187 52.986 24.248 53.462C23.9773 53.938 23.842 54.484 23.842 55.1C23.842 55.7067 23.9773 56.248 24.248 56.724C24.5187 57.2 24.892 57.5733 25.368 57.844C25.8533 58.1053 26.404 58.236 27.02 58.236C27.6733 58.236 28.2613 58.096 28.784 57.816V54.946ZM39.4168 57.9H34.8668L33.9988 60H31.6748L36.0428 50.2H38.2828L42.6648 60H40.2848L39.4168 57.9ZM38.7028 56.178L37.1488 52.426L35.5948 56.178H38.7028ZM46.9015 60.168C46.1269 60.168 45.3755 60.0653 44.6475 59.86C43.9289 59.6453 43.3502 59.37 42.9115 59.034L43.6815 57.326C44.1015 57.634 44.6009 57.8813 45.1795 58.068C45.7582 58.2547 46.3369 58.348 46.9155 58.348C47.5595 58.348 48.0355 58.2547 48.3435 58.068C48.6515 57.872 48.8055 57.6153 48.8055 57.298C48.8055 57.0647 48.7122 56.8733 48.5255 56.724C48.3482 56.5653 48.1149 56.4393 47.8255 56.346C47.5455 56.2527 47.1629 56.15 46.6775 56.038C45.9309 55.8607 45.3195 55.6833 44.8435 55.506C44.3675 55.3287 43.9569 55.044 43.6115 54.652C43.2755 54.26 43.1075 53.7373 43.1075 53.084C43.1075 52.5147 43.2615 52.0013 43.5695 51.544C43.8775 51.0773 44.3395 50.7087 44.9555 50.438C45.5809 50.1673 46.3415 50.032 47.2375 50.032C47.8629 50.032 48.4742 50.1067 49.0715 50.256C49.6689 50.4053 50.1915 50.62 50.6395 50.9L49.9395 52.622C49.0342 52.1087 48.1289 51.852 47.2235 51.852C46.5889 51.852 46.1175 51.9547 45.8095 52.16C45.5109 52.3653 45.3615 52.636 45.3615 52.972C45.3615 53.308 45.5342 53.56 45.8795 53.728C46.2342 53.8867 46.7709 54.0453 47.4895 54.204C48.2362 54.3813 48.8475 54.5587 49.3235 54.736C49.7995 54.9133 50.2055 55.1933 50.5415 55.576C50.8869 55.9587 51.0595 56.4767 51.0595 57.13C51.0595 57.69 50.9009 58.2033 50.5835 58.67C50.2755 59.1273 49.8089 59.4913 49.1835 59.762C48.5582 60.0327 47.7975 60.168 46.9015 60.168Z" fill="#BDBDBD"/>
</g>
<defs>
<filter id="filter0_d" x="-4" y="0" width="78" height="78" filterUnits="userSpaceOnUse" color-interpolation-filters="sRGB">
<feFlood flood-opacity="0" result="BackgroundImageFix"/>
<feColorMatrix in="SourceAlpha" type="matrix" values="0 0 0 0 0 0 0 0 0 0 0 0 0 0 0 0 0 0 127 0"/>
<feOffset dy="4"/>
<feGaussianBlur stdDeviation="2"/>
<feColorMatrix type="matrix" values="0 0 0 0 0 0 0 0 0 0 0 0 0 0 0 0 0 0 0.25 0"/>
<feBlend mode="normal" in2="BackgroundImageFix" result="effect1_dropShadow"/>
<feBlend mode="normal" in="SourceGraphic" in2="effect1_dropShadow" result="shape"/>
</filter>
<clipPath id="clip0">
<rect width="70" height="70" fill="white"/>
</clipPath>
</defs>
</svg>
