<svg width="75" height="73" viewBox="0 0 75 73" fill="none" xmlns="http://www.w3.org/2000/svg">
<g clip-path="url(#clip0)" filter="url(#filter0_d)">
<path d="M23.2877 32.5941L38.9998 24.7698L54.7119 32.594V33.6274L38.9998 41.4517L23.2877 33.6521V32.5941Z" fill="#E6E9ED"/>
<path d="M23.2877 32.5941L38.9998 40.4183L54.7119 32.5941V48.2672L38.9507 56.0914L23.2877 48.2672V32.5941Z" fill="#DCDFE3"/>
<path d="M38.9998 56.0669V40.4184L23.3859 32.6433H23.2877V48.2672L38.9507 56.0914L38.9998 56.0669Z" fill="#D4DDE7"/>
<path d="M38.9213 13.55C38.5308 13.1595 37.8977 13.1595 37.5071 13.55L31.1432 19.914C30.7526 20.3045 30.7526 20.9377 31.1432 21.3282C31.5337 21.7187 32.1669 21.7187 32.5574 21.3282L38.2142 15.6713L43.8711 21.3282C44.2616 21.7187 44.8948 21.7187 45.2853 21.3282C45.6758 20.9377 45.6758 20.3045 45.2853 19.914L38.9213 13.55ZM39.2142 32.5571L39.2142 14.2571L37.2142 14.2571L37.2142 32.5571L39.2142 32.5571Z" fill="#1C87C4"/>
<path fill-rule="evenodd" clip-rule="evenodd" d="M43.118 8.73528C43.2856 8.9032 43.5055 8.9876 43.7255 8.9876C43.9455 8.9876 44.1654 8.9032 44.3338 8.73528C44.6698 8.39857 44.6698 7.85431 44.3338 7.5176C40.9836 4.1608 35.5308 4.1608 32.1814 7.5176C31.8455 7.85431 31.8455 8.39857 32.1814 8.73528C32.5174 9.07199 33.0604 9.07199 33.3964 8.73528C36.0764 6.04932 40.438 6.04932 43.118 8.73528ZM41.9021 10.8149C41.6822 10.8149 41.4622 10.7306 41.2947 10.5626C40.4827 9.74883 39.4043 9.30017 38.2572 9.30017C37.1101 9.30017 36.0317 9.74883 35.2197 10.5626C34.8838 10.8993 34.3407 10.8993 34.0047 10.5626C33.6688 10.2259 33.6688 9.68166 34.0047 9.34495C35.1407 8.20564 36.6512 7.57785 38.2572 7.57785C39.8631 7.57785 41.3737 8.20564 42.5096 9.34495C42.8456 9.68166 42.8456 10.2259 42.5096 10.5626C42.3421 10.7306 42.1221 10.8149 41.9021 10.8149Z" fill="#FF8087"/>
<path fill-rule="evenodd" clip-rule="evenodd" d="M6.84894 51.4947C6.90201 51.2633 6.85661 51.0317 6.73985 50.8448C6.62309 50.658 6.43496 50.5159 6.20357 50.462C5.7405 50.3554 5.28027 50.6443 5.17388 51.1084C4.11362 55.7358 7.00801 60.3673 11.6245 61.4303C12.0875 61.537 12.5477 61.2481 12.6541 60.784C12.7605 60.3199 12.4723 59.8586 12.0092 59.752C8.31536 58.9014 6.00022 55.1968 6.84894 51.4947ZM9.25289 51.4235C9.36965 51.6104 9.41505 51.842 9.36199 52.0735C9.10484 53.1951 9.29784 54.3492 9.90673 55.3235C10.5156 56.2978 11.4674 56.9756 12.5866 57.2333C13.0497 57.34 13.3379 57.8012 13.2315 58.2653C13.1251 58.7294 12.6649 59.0183 12.2018 58.9117C10.6354 58.5516 9.30275 57.6018 8.45031 56.2377C7.59786 54.8737 7.32691 53.2574 7.68738 51.6878C7.79377 51.2238 8.254 50.9349 8.71707 51.0415C8.94801 51.0947 9.13613 51.2367 9.25289 51.4235Z" fill="#FF8087"/>
<path fill-rule="evenodd" clip-rule="evenodd" d="M63.5383 62.6833C63.3056 62.7278 63.1123 62.8626 62.9886 63.0449C62.8649 63.2272 62.8109 63.457 62.8547 63.691C62.9437 64.1588 63.3928 64.4648 63.8595 64.3756C68.513 63.4863 71.5788 58.9669 70.6921 54.3036C70.6031 53.8358 70.154 53.5298 69.6873 53.619C69.2206 53.7081 68.9153 54.1582 69.0042 54.626C69.7137 58.3573 67.2614 61.9722 63.5383 62.6833ZM62.5059 60.5063C62.6296 60.324 62.8229 60.1891 63.0557 60.1446C64.1837 59.9292 65.1602 59.2877 65.8052 58.337C66.4501 57.3863 66.6862 56.2402 66.4712 55.1097C66.3823 54.6419 66.6876 54.1919 67.1544 54.1027C67.6211 54.0136 68.0702 54.3196 68.1591 54.7873C68.4605 56.3694 68.1293 57.9743 67.2263 59.3053C66.3234 60.6364 64.9561 61.5354 63.3773 61.8363C62.9106 61.9254 62.4615 61.6194 62.3726 61.1516C62.3282 60.9184 62.3822 60.6886 62.5059 60.5063Z" fill="#FF8087"/>
<path d="M12.7552 52.3964C12.6098 52.9298 12.9234 53.4798 13.4557 53.625L22.1303 55.9908C22.6626 56.1359 23.212 55.8213 23.3575 55.288C23.5029 54.7546 23.1893 54.2046 22.657 54.0594L14.9463 51.9565L17.0532 44.231C17.1987 43.6977 16.8851 43.1476 16.3527 43.0025C15.8204 42.8573 15.271 43.1719 15.1255 43.7053L12.7552 52.3964ZM29.0774 42.7112L13.2238 51.7906L14.2144 53.528L30.0681 44.4487L29.0774 42.7112Z" fill="#1C87C4"/>
<path d="M61.9887 56.6347C62.532 56.5388 62.8946 56.0197 62.7985 55.4753L61.2328 46.603C61.1367 46.0586 60.6184 45.6949 60.0751 45.7908C59.5318 45.8867 59.1692 46.4058 59.2653 46.9502L60.657 54.8367L52.7869 56.2255C52.2436 56.3214 51.8811 56.8405 51.9771 57.3849C52.0732 57.9294 52.5916 58.293 53.1349 58.1971L61.9887 56.6347ZM46.2833 45.9744L61.2421 56.4687L62.3873 54.8291L47.4286 44.3347L46.2833 45.9744Z" fill="#1C87C4"/>
</g>
<defs>
<filter id="filter0_d" x="-1" y="0" width="78" height="78" filterUnits="userSpaceOnUse" color-interpolation-filters="sRGB">
<feFlood flood-opacity="0" result="BackgroundImageFix"/>
<feColorMatrix in="SourceAlpha" type="matrix" values="0 0 0 0 0 0 0 0 0 0 0 0 0 0 0 0 0 0 127 0"/>
<feOffset dy="4"/>
<feGaussianBlur stdDeviation="2"/>
<feColorMatrix type="matrix" values="0 0 0 0 0 0 0 0 0 0 0 0 0 0 0 0 0 0 0.25 0"/>
<feBlend mode="normal" in2="BackgroundImageFix" result="effect1_dropShadow"/>
<feBlend mode="normal" in="SourceGraphic" in2="effect1_dropShadow" result="shape"/>
</filter>
<clipPath id="clip0">
<rect width="70" height="70" fill="white" transform="translate(3)"/>
</clipPath>
</defs>
</svg>
