<svg width="74" height="78" viewBox="0 0 74 78" fill="none" xmlns="http://www.w3.org/2000/svg">
<g clip-path="url(#clip0)" filter="url(#filter0_d)">
<path d="M26.4089 30.7493C30.2153 32.2877 34.5482 30.449 36.0865 26.6425C37.6248 22.836 35.7862 18.5032 31.9797 16.9649C28.1732 15.4265 23.8404 17.2652 22.3021 21.0717C20.7637 24.8781 22.6024 29.211 26.4089 30.7493Z" fill="#E6E9ED"/>
<path d="M39.9395 43.7682C39.1498 43.6303 38.4014 43.3156 37.7504 42.8477C37.0994 42.3798 36.5626 41.7708 36.1801 41.0662C34.8652 38.638 33.0179 36.5387 30.7766 34.9258C28.5353 33.3128 25.958 32.228 23.2379 31.7525C19.5143 31.0956 15.6822 31.9429 12.5826 34.1083C9.48302 36.2737 7.36912 39.5804 6.70483 43.3027C6.53964 44.2337 6.75106 45.1922 7.29257 45.9673C7.83409 46.7425 8.66136 47.2707 9.59237 47.4359C10.5234 47.6011 11.4819 47.3897 12.257 46.8482C13.0322 46.3067 13.5604 45.4794 13.7256 44.5484C14.0062 42.9953 14.7931 41.5788 15.9636 40.52C17.134 39.4613 18.6221 38.8198 20.1954 38.6959L19.9878 39.866C18.6526 47.4278 15.1028 54.423 9.78803 59.9652C9.46417 60.304 9.21021 60.7033 9.04066 61.1402C8.8711 61.5772 8.78926 62.0432 8.79982 62.5118C8.82114 63.4581 9.21751 64.3572 9.90173 65.0112C10.586 65.6653 11.502 66.0208 12.4483 65.9995C13.3946 65.9781 14.2937 65.5818 14.9477 64.8975C17.7596 61.9587 20.1703 58.6608 22.117 55.0896C25.3662 58.0468 27.4968 62.0336 28.15 66.3783C28.2032 66.854 28.3517 67.3142 28.5866 67.7313C28.8215 68.1484 29.138 68.514 29.5172 68.8062C29.8964 69.0983 30.3306 69.3111 30.7938 69.4319C31.257 69.5526 31.7399 69.5789 32.2134 69.509C32.687 69.4392 33.1417 69.2746 33.5503 69.0253C33.959 68.7759 34.3132 68.4468 34.5919 68.0575C34.8706 67.6683 35.0681 67.227 35.1725 66.7598C35.2769 66.2926 35.2862 65.8092 35.1998 65.3383C34.1882 58.5702 30.572 52.4652 25.1228 48.3255C25.9468 45.9763 26.5791 43.564 27.0133 41.1126L27.0258 41.0424C28.2135 41.9835 29.1987 43.1552 29.9221 44.4868C30.8142 46.1329 32.0671 47.5559 33.5871 48.6491C35.1071 49.7423 36.8548 50.4775 38.6991 50.7996C39.6302 50.9648 40.5887 50.7534 41.3638 50.2119C42.139 49.6704 42.6672 48.8431 42.8324 47.9121C42.9976 46.9811 42.7862 46.0226 42.2447 45.2474C41.7032 44.4723 40.8759 43.944 39.9449 43.7788L39.9395 43.7682Z" fill="#E6E9ED"/>
<path d="M69.0696 1.8222V6.40068L60.5493 10.6609L52.0289 6.40068V1.8222C52.0289 0.816574 52.8455 0 53.8517 0H67.2474C68.2531 0 69.0696 0.816574 69.0696 1.8222Z" fill="#E6E9ED"/>
<path d="M56.2544 6.40068V1.8222C56.2544 0.816574 57.071 0 58.0771 0H53.8517C52.8455 0 52.0295 0.816574 52.0295 1.8222V6.40068L60.5493 10.6609L62.662 9.60449L56.2544 6.40068Z" fill="#D5D4DA"/>
<path d="M56.4793 29.6087C56.4756 29.6087 56.4719 29.6087 56.4681 29.6087C51.7545 29.5612 47.3224 27.6989 43.9893 24.3653C40.6552 21.0317 38.7929 16.599 38.7454 11.8844C38.7395 11.3012 39.2079 10.8237 39.7911 10.8179H39.8023C40.3807 10.8179 40.8523 11.2836 40.8581 11.8636C40.8998 16.0217 42.5426 19.931 45.4831 22.8716C48.4231 25.8115 52.3318 27.4543 56.4895 27.4965C57.0727 27.5024 57.541 27.9798 57.5352 28.5635C57.5293 29.143 57.0577 29.6087 56.4793 29.6087Z" fill="#FF889E"/>
<path d="M56.521 25.4645C56.5178 25.4645 56.5141 25.4645 56.5103 25.4645C52.8878 25.4276 49.4816 23.9964 46.9197 21.4345C44.3573 18.8726 42.9266 15.4664 42.8897 11.8428C42.8838 11.2596 43.3522 10.7822 43.9354 10.7758C44.5234 10.7726 44.9966 11.2383 45.0024 11.8215C45.0334 14.8886 46.2447 17.7719 48.4135 19.9407C50.5823 22.109 53.4651 23.3208 56.5317 23.3518C57.1149 23.3576 57.5832 23.8356 57.5774 24.4188C57.5715 24.9988 57.0999 25.4645 56.521 25.4645Z" fill="#FF889E"/>
<path d="M56.5632 21.3202C56.5595 21.3202 56.5563 21.3202 56.5525 21.3202C54.0211 21.2941 51.6408 20.2943 49.8506 18.5036C48.0599 16.7135 47.0596 14.3326 47.0345 11.8012C47.0287 11.218 47.4965 10.74 48.0802 10.7341C48.6656 10.7309 49.1409 11.1966 49.1467 11.7798C49.1665 13.7553 49.9473 15.6128 51.3444 17.0099C52.7415 18.407 54.5984 19.1872 56.5739 19.2075C57.1571 19.2134 57.6249 19.6908 57.619 20.2746C57.6137 20.854 57.1416 21.3202 56.5632 21.3202Z" fill="#FF889E"/>
<path d="M69.0698 6.40076C69.0698 8.75381 68.1165 10.8842 66.5746 12.426C65.0328 13.9678 62.9025 14.9211 60.5494 14.9211C55.8438 14.9211 52.0291 11.1063 52.0291 6.40076H69.0698Z" fill="#FF8087"/>
<path d="M56.2544 6.40063H52.0289C52.0289 11.1062 55.8437 14.921 60.5493 14.921C61.2788 14.921 61.9864 14.8286 62.662 14.6566C58.9786 13.7167 56.2544 10.3772 56.2544 6.40063Z" fill="#FD5F7E"/>
</g>
<defs>
<filter id="filter0_d" x="-4" y="0" width="78" height="78" filterUnits="userSpaceOnUse" color-interpolation-filters="sRGB">
<feFlood flood-opacity="0" result="BackgroundImageFix"/>
<feColorMatrix in="SourceAlpha" type="matrix" values="0 0 0 0 0 0 0 0 0 0 0 0 0 0 0 0 0 0 127 0"/>
<feOffset dy="4"/>
<feGaussianBlur stdDeviation="2"/>
<feColorMatrix type="matrix" values="0 0 0 0 0 0 0 0 0 0 0 0 0 0 0 0 0 0 0.25 0"/>
<feBlend mode="normal" in2="BackgroundImageFix" result="effect1_dropShadow"/>
<feBlend mode="normal" in="SourceGraphic" in2="effect1_dropShadow" result="shape"/>
</filter>
<clipPath id="clip0">
<rect width="70" height="70" fill="white"/>
</clipPath>
</defs>
</svg>
