<svg width="70" height="78" viewBox="0 0 70 78" fill="none" xmlns="http://www.w3.org/2000/svg">
<g filter="url(#filter0_d)">
<path d="M14 17V65.1162C14 67.5334 15.9578 69.4912 18.375 69.4912H35.875C38.2922 69.4912 40.25 67.5334 40.25 65.1162V17H14Z" fill="#E6E9ED"/>
<path d="M39.375 14.7711H15.3125C14.7109 14.7711 14.2188 15.2633 14.2188 15.8649V19.1472H40.4688V15.8649C40.4688 15.2633 39.9766 14.7711 39.375 14.7711Z" fill="#656D78"/>
<path d="M60.3846 45.3077C60.3846 49.5538 56.9384 53 52.6923 53C48.4462 53 45 49.5538 45 45.3077C45 41.0615 52.6923 33 52.6923 33C52.6923 33 60.3846 41.0615 60.3846 45.3077Z" fill="#5D9CEC"/>
<path d="M50.5305 44.79C50.0038 44.79 49.5738 44.6167 49.2405 44.27C48.9072 43.9233 48.7405 43.45 48.7405 42.85C48.7405 42.4567 48.8172 42.1133 48.9705 41.82C49.1238 41.5267 49.3338 41.3033 49.6005 41.15C49.8738 40.99 50.1838 40.91 50.5305 40.91C51.0638 40.91 51.4972 41.0867 51.8305 41.44C52.1638 41.7867 52.3305 42.2567 52.3305 42.85C52.3305 43.45 52.1638 43.9233 51.8305 44.27C51.4972 44.6167 51.0638 44.79 50.5305 44.79ZM54.6705 41H56.1105L51.3305 48H49.8905L54.6705 41ZM50.5305 43.84C50.7105 43.84 50.8538 43.76 50.9605 43.6C51.0672 43.44 51.1205 43.19 51.1205 42.85C51.1205 42.51 51.0672 42.26 50.9605 42.1C50.8538 41.94 50.7105 41.86 50.5305 41.86C50.3572 41.86 50.2138 41.9433 50.1005 42.11C49.9938 42.27 49.9405 42.5167 49.9405 42.85C49.9405 43.1833 49.9938 43.4333 50.1005 43.6C50.2138 43.76 50.3572 43.84 50.5305 43.84ZM55.4705 48.09C54.9372 48.09 54.5038 47.9167 54.1705 47.57C53.8438 47.2233 53.6805 46.75 53.6805 46.15C53.6805 45.5567 53.8472 45.0867 54.1805 44.74C54.5138 44.3867 54.9438 44.21 55.4705 44.21C56.0038 44.21 56.4372 44.3867 56.7705 44.74C57.1038 45.0867 57.2705 45.5567 57.2705 46.15C57.2705 46.75 57.1038 47.2233 56.7705 47.57C56.4372 47.9167 56.0038 48.09 55.4705 48.09ZM55.4705 47.14C55.6505 47.14 55.7938 47.06 55.9005 46.9C56.0072 46.74 56.0605 46.49 56.0605 46.15C56.0605 45.81 56.0072 45.56 55.9005 45.4C55.7938 45.24 55.6505 45.16 55.4705 45.16C55.2905 45.16 55.1472 45.24 55.0405 45.4C54.9338 45.56 54.8805 45.81 54.8805 46.15C54.8805 46.49 54.9338 46.74 55.0405 46.9C55.1472 47.06 55.2905 47.14 55.4705 47.14Z" fill="#F2F2F2"/>
<path d="M27.3755 18.0414C26.7706 18.0414 26.2762 17.5525 26.2762 16.9476C26.2762 16.3428 26.7597 15.8539 27.3634 15.8539H27.3755C27.9792 15.8539 28.4692 16.3428 28.4692 16.9476C28.4692 17.5525 27.9792 18.0414 27.3755 18.0414Z" fill="#FF8087"/>
<path d="M28.4375 67.2568H26.25C25.6452 67.2568 25.1562 66.7679 25.1562 66.1631C25.1562 65.5582 25.6452 65.0693 26.25 65.0693H28.4375C29.0423 65.0693 29.5312 65.5582 29.5312 66.1631C29.5312 66.7679 29.0423 67.2568 28.4375 67.2568Z" fill="#CCD1D9"/>
<path d="M27.3667 12.5792C26.7618 12.5792 26.2675 12.0903 26.2675 11.4855C26.2675 10.8806 26.7509 10.3917 27.3546 10.3917H27.3667C27.9704 10.3917 28.4604 10.8806 28.4604 11.4855C28.4604 12.0903 27.9693 12.5792 27.3667 12.5792Z" fill="#FF8087"/>
<path d="M29.6527 10.2583C29.3727 10.2583 29.0927 10.1511 28.8794 9.93779C28.0274 9.08576 26.6383 9.08576 25.7863 9.93779C25.3587 10.3654 24.6674 10.3654 24.2397 9.93779C23.8121 9.51013 23.8121 8.81888 24.2397 8.39123C25.9449 6.68388 28.7219 6.68388 30.426 8.39123C30.8537 8.81888 30.8537 9.51013 30.426 9.93779C30.2127 10.1511 29.9327 10.2583 29.6527 10.2583Z" fill="#FF8087"/>
<path d="M31.9725 7.93843C31.6925 7.93843 31.4125 7.83125 31.1992 7.61796C30.1656 6.58437 28.7929 6.01453 27.3328 6.01453C25.8726 6.01453 24.5 6.58437 23.4664 7.61796C23.0387 8.04562 22.3475 8.04562 21.9198 7.61796C21.4921 7.19031 21.4921 6.49906 21.9198 6.0714C23.3657 4.62437 25.2886 3.82703 27.3328 3.82703C29.377 3.82703 31.2998 4.62437 32.7457 6.0714C33.1734 6.49906 33.1734 7.19031 32.7457 7.61796C32.5325 7.83125 32.2525 7.93843 31.9725 7.93843Z" fill="#FF8087"/>
<path d="M34.2935 5.61747C34.0135 5.61747 33.7335 5.51028 33.5202 5.297C30.1088 1.88559 24.5569 1.88559 21.1455 5.297C20.7178 5.72465 20.0266 5.72465 19.5989 5.297C19.1713 4.86934 19.1713 4.17809 19.5989 3.75043C23.8624 -0.513003 30.8033 -0.513003 35.0678 3.75043C35.4955 4.17809 35.4955 4.86934 35.0678 5.297C34.8535 5.51028 34.5735 5.61747 34.2935 5.61747Z" fill="#FF8087"/>
<path d="M28.8708 46.246V32.3994C28.8708 30.5219 27.4117 29 25.612 29C23.8121 29 22.3532 30.5219 22.3532 32.3994V46.246C20.8951 47.316 19.9424 49.0848 19.9424 51.0858C19.9424 54.3521 22.4807 57 25.612 57C28.7432 57 31.2815 54.3521 31.2815 51.0858C31.2815 49.0848 30.3287 47.316 28.8708 46.246Z" fill="#D8D8D8"/>
<path d="M25.6119 55.0631C23.4528 55.0631 21.6964 53.2307 21.6964 50.9786C21.6964 49.2684 22.7152 47.7457 24.2439 47.1516V32.3994C24.2439 31.6124 24.8575 30.9724 25.6119 30.9724C26.3662 30.9724 26.9799 31.6124 26.9799 32.3994V47.1516C28.5085 47.7455 29.5275 49.2682 29.5275 50.9784C29.5275 53.2307 27.771 55.0631 25.6119 55.0631Z" fill="#F3E8D7"/>
<path d="M24.2439 35.0085V47.1515C22.7152 47.7454 21.6964 49.2681 21.6964 50.9784C21.6964 53.2306 23.4528 55.0628 25.6119 55.0628C27.771 55.0628 29.5275 53.2306 29.5275 50.9784C29.5275 49.2681 28.5085 47.7454 26.9799 47.1515V35.0085H24.2439Z" fill="#FCDC36"/>
<path d="M33.3843 38.8558H31.0343C30.8105 38.8558 30.6293 38.6666 30.6293 38.4333C30.6293 38.2 30.8105 38.0107 31.0343 38.0107H33.3843C33.6079 38.0107 33.7894 38.2 33.7894 38.4333C33.7894 38.6666 33.6079 38.8558 33.3843 38.8558Z" fill="#0D6E9A"/>
<path d="M32.1013 35.4313H31.0343C30.8105 35.4313 30.6293 35.242 30.6293 35.0087C30.6293 34.7755 30.8105 34.5862 31.0343 34.5862H32.1013C32.3249 34.5862 32.5064 34.7755 32.5064 35.0087C32.5064 35.242 32.3249 35.4313 32.1013 35.4313Z" fill="#0D6E9A"/>
<path d="M32.4793 32.0066H31.0343C30.8105 32.0066 30.6293 31.8173 30.6293 31.584C30.6293 31.3508 30.8105 31.1615 31.0343 31.1615H32.4793C32.7032 31.1615 32.8844 31.3508 32.8844 31.584C32.8844 31.8173 32.7032 32.0066 32.4793 32.0066Z" fill="#0D6E9A"/>
<path d="M32.4793 45.705H31.0343C30.8105 45.705 30.6293 45.5157 30.6293 45.2824C30.6293 45.0489 30.8105 44.8599 31.0343 44.8599H32.4793C32.7032 44.8599 32.8844 45.0489 32.8844 45.2824C32.8844 45.5157 32.7032 45.705 32.4793 45.705Z" fill="#0D6E9A"/>
<path d="M32.1013 42.2803H31.0343C30.8105 42.2803 30.6293 42.091 30.6293 41.8577C30.6293 41.6245 30.8105 41.4352 31.0343 41.4352H32.1013C32.3249 41.4352 32.5064 41.6245 32.5064 41.8577C32.5064 42.091 32.3249 42.2803 32.1013 42.2803Z" fill="#0D6E9A"/>
<path d="M26.9798 47.1515V35.0085H24.2438V47.1515C24.2438 47.1515 26.135 48.0669 26.135 50.9784C26.135 52.5972 25.2276 53.999 23.9155 54.6595C24.4289 54.918 25.0044 55.0628 25.6116 55.0628C27.7707 55.0628 29.5274 53.2306 29.5274 50.9784C29.5274 49.2681 28.5083 47.7456 26.9798 47.1515Z" fill="#F2C94C"/>
</g>
<defs>
<filter id="filter0_d" x="-4" y="0" width="78" height="78" filterUnits="userSpaceOnUse" color-interpolation-filters="sRGB">
<feFlood flood-opacity="0" result="BackgroundImageFix"/>
<feColorMatrix in="SourceAlpha" type="matrix" values="0 0 0 0 0 0 0 0 0 0 0 0 0 0 0 0 0 0 127 0"/>
<feOffset dy="4"/>
<feGaussianBlur stdDeviation="2"/>
<feColorMatrix type="matrix" values="0 0 0 0 0 0 0 0 0 0 0 0 0 0 0 0 0 0 0.25 0"/>
<feBlend mode="normal" in2="BackgroundImageFix" result="effect1_dropShadow"/>
<feBlend mode="normal" in="SourceGraphic" in2="effect1_dropShadow" result="shape"/>
</filter>
</defs>
</svg>
