<svg width="20" height="20" viewBox="0 0 20 20" fill="none" xmlns="http://www.w3.org/2000/svg">
<mask id="path-1-inside-1" fill="white">
<path fill-rule="evenodd" clip-rule="evenodd" d="M63.4645 66.9189C62.5268 65.9812 62 64.7094 62 63.3833V32C62 30.6739 62.5268 29.4021 63.4645 28.4645C64.4021 27.5268 65.6739 27 67 27C68.3261 27 69.5979 27.5268 70.5355 28.4645C71.4732 29.4021 72 30.6739 72 32V63.3833C72 64.7094 71.4732 65.9812 70.5355 66.9189C69.5979 67.8565 68.3261 68.3833 67 68.3833C65.6739 68.3833 64.4021 67.8565 63.4645 66.9189ZM34.7833 87.474C31.2419 80.7092 29.9183 73.0019 30.9996 65.4432C31.8318 59.7492 33.9906 54.3305 37.302 49.6243C40.6134 44.9181 44.9846 41.0561 50.063 38.3498C50.6394 38.0248 51.2747 37.8175 51.9319 37.7399C52.5891 37.6622 53.2552 37.7158 53.8915 37.8975C54.5279 38.0793 55.1218 38.3855 55.6389 38.7985C56.156 39.2115 56.5859 39.7231 56.9038 40.3035C57.2217 40.8839 57.4212 41.5217 57.4908 42.1798C57.5604 42.8379 57.4986 43.5033 57.309 44.1373C57.1195 44.7714 56.806 45.3615 56.3867 45.8735C55.9674 46.3854 55.4506 46.8091 54.8663 47.1198C51.1502 49.0831 47.9478 51.8927 45.5176 55.3217C43.0874 58.7507 41.4975 62.7031 40.8763 66.8598C40.2748 70.9198 40.6363 75.0643 41.9315 78.9589C43.2268 82.8534 45.4196 86.3889 48.333 89.2798C52.2504 93.1997 57.3029 95.7863 62.7734 96.6726C68.2439 97.5589 73.8546 96.6998 78.8093 94.2173C83.764 91.7347 87.8111 87.7549 90.3762 82.8424C92.9413 77.93 93.8942 72.3344 93.0996 66.8498C92.4773 62.6909 90.886 58.7365 88.4541 55.3058C86.0222 51.8751 82.8179 49.0642 79.0996 47.0998C78.4929 46.8029 77.9526 46.386 77.5114 45.8745C77.0703 45.363 76.7373 44.7674 76.5326 44.1236C76.328 43.4799 76.2559 42.8013 76.3208 42.1289C76.3856 41.4565 76.586 40.8043 76.9099 40.2115C77.2338 39.6187 77.6745 39.0977 78.2053 38.6799C78.7361 38.2621 79.3461 37.9562 79.9984 37.7807C80.6507 37.6051 81.3318 37.5636 82.0006 37.6585C82.6693 37.7535 83.312 37.983 83.8896 38.3332C88.9753 41.0348 93.3546 44.8942 96.6742 49.5999C99.9937 54.3057 102.16 59.7259 103 65.4232C103.834 71.0221 103.34 76.7389 101.556 82.1115C99.7728 87.484 96.7502 92.3615 92.733 96.3498C87.3292 101.745 80.3655 105.303 72.8276 106.521C65.2897 107.739 57.5596 106.555 50.7319 103.137C43.9041 99.7182 38.3246 94.2388 34.7833 87.474Z"/>
</mask>
<path fill-rule="evenodd" clip-rule="evenodd" d="M63.4645 66.9189C62.5268 65.9812 62 64.7094 62 63.3833V32C62 30.6739 62.5268 29.4021 63.4645 28.4645C64.4021 27.5268 65.6739 27 67 27C68.3261 27 69.5979 27.5268 70.5355 28.4645C71.4732 29.4021 72 30.6739 72 32V63.3833C72 64.7094 71.4732 65.9812 70.5355 66.9189C69.5979 67.8565 68.3261 68.3833 67 68.3833C65.6739 68.3833 64.4021 67.8565 63.4645 66.9189ZM34.7833 87.474C31.2419 80.7092 29.9183 73.0019 30.9996 65.4432C31.8318 59.7492 33.9906 54.3305 37.302 49.6243C40.6134 44.9181 44.9846 41.0561 50.063 38.3498C50.6394 38.0248 51.2747 37.8175 51.9319 37.7399C52.5891 37.6622 53.2552 37.7158 53.8915 37.8975C54.5279 38.0793 55.1218 38.3855 55.6389 38.7985C56.156 39.2115 56.5859 39.7231 56.9038 40.3035C57.2217 40.8839 57.4212 41.5217 57.4908 42.1798C57.5604 42.8379 57.4986 43.5033 57.309 44.1373C57.1195 44.7714 56.806 45.3615 56.3867 45.8735C55.9674 46.3854 55.4506 46.8091 54.8663 47.1198C51.1502 49.0831 47.9478 51.8927 45.5176 55.3217C43.0874 58.7507 41.4975 62.7031 40.8763 66.8598C40.2748 70.9198 40.6363 75.0643 41.9315 78.9589C43.2268 82.8534 45.4196 86.3889 48.333 89.2798C52.2504 93.1997 57.3029 95.7863 62.7734 96.6726C68.2439 97.5589 73.8546 96.6998 78.8093 94.2173C83.764 91.7347 87.8111 87.7549 90.3762 82.8424C92.9413 77.93 93.8942 72.3344 93.0996 66.8498C92.4773 62.6909 90.886 58.7365 88.4541 55.3058C86.0222 51.8751 82.8179 49.0642 79.0996 47.0998C78.4929 46.8029 77.9526 46.386 77.5114 45.8745C77.0703 45.363 76.7373 44.7674 76.5326 44.1236C76.328 43.4799 76.2559 42.8013 76.3208 42.1289C76.3856 41.4565 76.586 40.8043 76.9099 40.2115C77.2338 39.6187 77.6745 39.0977 78.2053 38.6799C78.7361 38.2621 79.3461 37.9562 79.9984 37.7807C80.6507 37.6051 81.3318 37.5636 82.0006 37.6585C82.6693 37.7535 83.312 37.983 83.8896 38.3332C88.9753 41.0348 93.3546 44.8942 96.6742 49.5999C99.9937 54.3057 102.16 59.7259 103 65.4232C103.834 71.0221 103.34 76.7389 101.556 82.1115C99.7728 87.484 96.7502 92.3615 92.733 96.3498C87.3292 101.745 80.3655 105.303 72.8276 106.521C65.2897 107.739 57.5596 106.555 50.7319 103.137C43.9041 99.7182 38.3246 94.2388 34.7833 87.474Z" fill="#6FCF97"/>
<path d="M63.4645 66.9189L64.1716 66.2118L63.4645 66.9189ZM63.4645 28.4645L62.7574 27.7574V27.7574L63.4645 28.4645ZM70.5355 28.4645L71.2426 27.7574V27.7574L70.5355 28.4645ZM70.5355 66.9189L69.8284 66.2118H69.8284L70.5355 66.9189ZM30.9996 65.4432L30.0101 65.2986L30.0097 65.3015L30.9996 65.4432ZM34.7833 87.474L33.8973 87.9378L34.7833 87.474ZM37.302 49.6243L38.1198 50.1998L37.302 49.6243ZM50.063 38.3498L50.5332 39.2323L50.5437 39.2268L50.5541 39.2209L50.063 38.3498ZM51.9319 37.7399L51.8146 36.7468H51.8146L51.9319 37.7399ZM53.8915 37.8975L54.1661 36.936H54.1661L53.8915 37.8975ZM55.6389 38.7985L55.0148 39.5799V39.5799L55.6389 38.7985ZM57.4908 42.1798L58.4853 42.0747V42.0747L57.4908 42.1798ZM54.8663 47.1198L55.3334 48.004L55.3359 48.0027L54.8663 47.1198ZM45.5176 55.3217L46.3334 55.8999L45.5176 55.3217ZM40.8763 66.8598L39.8873 66.712L39.8871 66.7133L40.8763 66.8598ZM41.9315 78.9589L42.8804 78.6433L41.9315 78.9589ZM48.333 89.2798L49.0403 88.5729L49.0373 88.57L48.333 89.2798ZM62.7734 96.6726L62.9333 95.6855L62.7734 96.6726ZM90.3762 82.8424L89.4898 82.3795V82.3795L90.3762 82.8424ZM93.0996 66.8498L94.0893 66.7065L94.0886 66.7018L93.0996 66.8498ZM88.4541 55.3058L87.6383 55.8841L87.6383 55.8841L88.4541 55.3058ZM79.0996 47.0998L79.5667 46.2156L79.5531 46.2084L79.5392 46.2016L79.0996 47.0998ZM77.5114 45.8745L78.2687 45.2214V45.2214L77.5114 45.8745ZM76.5326 44.1236L75.5796 44.4266V44.4266L76.5326 44.1236ZM76.3208 42.1289L75.3254 42.0329V42.0329L76.3208 42.1289ZM76.9099 40.2115L76.0324 39.732L76.0324 39.732L76.9099 40.2115ZM83.8896 38.3332L83.3712 39.1883L83.3955 39.203L83.4205 39.2163L83.8896 38.3332ZM96.6742 49.5999L95.857 50.1764H95.857L96.6742 49.5999ZM103 65.4232L102.01 65.5689L102.011 65.5706L103 65.4232ZM101.556 82.1115L100.607 81.7964L101.556 82.1115ZM92.733 96.3498L92.0284 95.6402L92.0264 95.6422L92.733 96.3498ZM72.8276 106.521L72.9871 107.508L72.8276 106.521ZM50.7319 103.137L50.2842 104.031H50.2842L50.7319 103.137ZM61 63.3833C61 64.9746 61.6321 66.5008 62.7574 67.626L64.1716 66.2118C63.4214 65.4616 63 64.4442 63 63.3833H61ZM61 32V63.3833H63V32H61ZM62.7574 27.7574C61.6321 28.8826 61 30.4087 61 32H63C63 30.9391 63.4214 29.9217 64.1716 29.1716L62.7574 27.7574ZM67 26C65.4087 26 63.8826 26.6321 62.7574 27.7574L64.1716 29.1716C64.9217 28.4214 65.9391 28 67 28V26ZM71.2426 27.7574C70.1174 26.6321 68.5913 26 67 26V28C68.0609 28 69.0783 28.4214 69.8284 29.1716L71.2426 27.7574ZM73 32C73 30.4087 72.3679 28.8826 71.2426 27.7574L69.8284 29.1716C70.5786 29.9217 71 30.9391 71 32H73ZM73 63.3833V32H71V63.3833H73ZM71.2426 67.626C72.3679 66.5008 73 64.9746 73 63.3833H71C71 64.4442 70.5786 65.4616 69.8284 66.2118L71.2426 67.626ZM67 69.3833C68.5913 69.3833 70.1174 68.7512 71.2426 67.626L69.8284 66.2118C69.0783 66.9619 68.0609 67.3833 67 67.3833V69.3833ZM62.7574 67.626C63.8826 68.7512 65.4087 69.3833 67 69.3833V67.3833C65.9391 67.3833 64.9217 66.9619 64.1716 66.2118L62.7574 67.626ZM30.0097 65.3015C28.8986 73.068 30.2587 80.9871 33.8973 87.9378L35.6692 87.0102C32.2252 80.4313 30.9379 72.9358 31.9895 65.5848L30.0097 65.3015ZM36.4842 49.0489C33.0826 53.8833 30.865 59.4495 30.0101 65.2986L31.9891 65.5878C32.7986 60.0489 34.8986 54.7778 38.1198 50.1998L36.4842 49.0489ZM49.5927 37.4673C44.376 40.2473 39.8857 44.2145 36.4842 49.0489L38.1198 50.1998C41.341 45.6217 45.5932 41.8649 50.5332 39.2323L49.5927 37.4673ZM51.8146 36.7468C51.0259 36.8399 50.2636 37.0887 49.5719 37.4787L50.5541 39.2209C51.0152 38.9609 51.5234 38.7951 52.0492 38.7329L51.8146 36.7468ZM54.1661 36.936C53.4025 36.7179 52.6032 36.6536 51.8146 36.7468L52.0492 38.7329C52.575 38.6708 53.1078 38.7137 53.6169 38.8591L54.1661 36.936ZM56.263 38.0171C55.6425 37.5215 54.9297 37.1541 54.1661 36.936L53.6169 38.8591C54.126 39.0045 54.6011 39.2495 55.0148 39.5799L56.263 38.0171ZM57.7809 39.8231C57.3994 39.1266 56.8835 38.5127 56.263 38.0171L55.0148 39.5799C55.4285 39.9103 55.7724 40.3195 56.0268 40.7838L57.7809 39.8231ZM58.4853 42.0747C58.4018 41.2849 58.1624 40.5196 57.7809 39.8231L56.0268 40.7838C56.2811 41.2482 56.4407 41.7584 56.4963 42.2849L58.4853 42.0747ZM58.2672 44.4237C58.4946 43.6628 58.5687 42.8644 58.4853 42.0747L56.4963 42.2849C56.552 42.8114 56.5026 43.3437 56.3509 43.8509L58.2672 44.4237ZM57.1603 46.5071C57.6635 45.8927 58.0397 45.1846 58.2672 44.4237L56.3509 43.8509C56.1993 44.3582 55.9485 44.8303 55.613 45.2398L57.1603 46.5071ZM55.3359 48.0027C56.037 47.6298 56.6571 47.1215 57.1603 46.5071L55.613 45.2398C55.2776 45.6494 54.8642 45.9883 54.3967 46.2369L55.3359 48.0027ZM46.3334 55.8999C48.673 52.5988 51.7559 49.8941 55.3334 48.004L54.3992 46.2356C50.5444 48.2722 47.2225 51.1865 44.7017 54.7435L46.3334 55.8999ZM41.8653 67.0076C42.4633 63.006 43.9939 59.201 46.3334 55.8999L44.7017 54.7435C42.1808 58.3004 40.5316 62.4003 39.8873 66.712L41.8653 67.0076ZM42.8804 78.6433C41.6346 74.8975 41.287 70.9113 41.8655 67.0064L39.8871 66.7133C39.2626 70.9283 39.6379 75.2312 40.9827 79.2745L42.8804 78.6433ZM49.0373 88.57C46.2353 85.7895 44.1263 82.3891 42.8804 78.6433L40.9827 79.2745C42.3274 83.3178 44.604 86.9883 47.6286 89.9897L49.0373 88.57ZM62.9333 95.6855C57.6702 94.8328 52.8092 92.3442 49.0403 88.5729L47.6256 89.9867C51.6916 94.0552 56.9356 96.7399 62.6135 97.6597L62.9333 95.6855ZM78.3614 93.3232C73.5945 95.7116 68.1965 96.5381 62.9333 95.6855L62.6135 97.6597C68.2914 98.5796 74.1148 97.6879 79.2573 95.1113L78.3614 93.3232ZM89.4898 82.3795C87.0219 87.1058 83.1283 90.9348 78.3614 93.3232L79.2573 95.1113C84.3998 92.5347 88.6003 88.4039 91.2626 83.3053L89.4898 82.3795ZM92.11 66.9932C92.8744 72.2699 91.9576 77.6533 89.4898 82.3795L91.2626 83.3053C93.925 78.2066 94.914 72.3989 94.0893 66.7065L92.11 66.9932ZM87.6383 55.8841C89.9795 59.187 91.5115 62.9939 92.1106 66.9978L94.0886 66.7018C93.4431 62.3879 91.7925 58.2861 89.2699 54.7275L87.6383 55.8841ZM78.6325 47.984C82.2121 49.8751 85.297 52.5813 87.6383 55.8841L89.2699 54.7275C86.7474 51.1689 83.4236 48.2532 79.5667 46.2156L78.6325 47.984ZM76.7542 46.5276C77.2836 47.1415 77.9319 47.6417 78.66 47.998L79.5392 46.2016C79.0539 45.9641 78.6216 45.6306 78.2687 45.2214L76.7542 46.5276ZM75.5796 44.4266C75.8252 45.1991 76.2248 45.9138 76.7542 46.5276L78.2687 45.2214C77.9157 44.8122 77.6494 44.3357 77.4857 43.8207L75.5796 44.4266ZM75.3254 42.0329C75.2476 42.8398 75.3341 43.654 75.5796 44.4266L77.4857 43.8207C77.3219 43.3057 77.2643 42.7628 77.3162 42.2249L75.3254 42.0329ZM76.0324 39.732C75.6437 40.4433 75.4032 41.2261 75.3254 42.0329L77.3162 42.2249C77.368 41.687 77.5284 41.1652 77.7875 40.691L76.0324 39.732ZM77.5868 37.8941C76.9498 38.3954 76.4211 39.0206 76.0324 39.732L77.7875 40.691C78.0466 40.2167 78.3991 39.7999 78.8238 39.4657L77.5868 37.8941ZM79.7385 36.815C78.9557 37.0257 78.2238 37.3927 77.5868 37.8941L78.8238 39.4657C79.2484 39.1315 79.7364 38.8867 80.2582 38.7463L79.7385 36.815ZM82.1411 36.6685C81.3386 36.5545 80.5213 36.6044 79.7385 36.815L80.2582 38.7463C80.7801 38.6059 81.3249 38.5726 81.86 38.6486L82.1411 36.6685ZM84.408 37.478C83.7148 37.0578 82.9437 36.7824 82.1411 36.6685L81.86 38.6486C82.395 38.7246 82.9091 38.9082 83.3712 39.1883L84.408 37.478ZM97.4913 49.0235C94.0814 44.1897 89.5829 40.2252 84.3588 37.45L83.4205 39.2163C88.3677 41.8444 92.6279 45.5988 95.857 50.1764L97.4913 49.0235ZM103.989 65.2775C103.127 59.4251 100.901 53.8573 97.4913 49.0235L95.857 50.1764C99.0862 54.754 101.194 60.0267 102.01 65.5689L103.989 65.2775ZM102.505 82.4265C104.338 76.9051 104.846 71.0299 103.989 65.2757L102.011 65.5706C102.822 71.0144 102.341 76.5728 100.607 81.7964L102.505 82.4265ZM93.4375 97.0595C97.5661 92.9607 100.672 87.9479 102.505 82.4265L100.607 81.7964C98.8731 87.02 95.9343 91.7624 92.0284 95.6402L93.4375 97.0595ZM72.9871 107.508C80.7321 106.257 87.8872 102.6 93.4395 97.0575L92.0264 95.6422C86.7712 100.889 79.9988 104.349 72.6681 105.534L72.9871 107.508ZM50.2842 104.031C57.2996 107.543 65.2421 108.759 72.9871 107.508L72.6681 105.534C65.3373 106.718 57.8197 105.567 51.1796 102.242L50.2842 104.031ZM33.8973 87.9378C37.536 94.8884 43.2688 100.518 50.2842 104.031L51.1796 102.242C44.5394 98.9179 39.1132 93.5891 35.6692 87.0102L33.8973 87.9378Z" fill="#6FCF97" mask="url(#path-1-inside-1)"/>
<circle cx="67" cy="67" r="65.5" stroke="#6FCF97" stroke-width="3"/>
</svg>
