<svg width="12" height="12" viewBox="0 0 12 12" fill="none" xmlns="http://www.w3.org/2000/svg">
<g clip-path="url(#clip0)">
<path d="M11.9999 7.06866V4.99969H11.1723V7.06866H11.9999Z" fill="#C7CAC7"/>
<path d="M0.249949 8.59115L0.249949 3.40384C0.249949 3.26032 0.366227 3.14404 0.509743 3.14404L10.6626 3.14404C10.8061 3.14404 10.9224 3.26032 10.9224 3.40384L10.9224 8.59115C10.9224 8.73466 10.8061 8.85094 10.6626 8.85094L0.509743 8.85094C0.366227 8.85094 0.249949 8.73466 0.249949 8.59115Z" fill="#E7ECED" stroke="#EB5757" stroke-width="0.5"/>
<path d="M1.00012 2.96643L0.189661 2.96643C0.0849683 2.96643 0.00012207 3.18703 0.00012207 3.45923L0.00012207 8.47363C0.00012207 8.74583 0.0849683 8.96643 0.189661 8.96643H1.00012L1.00012 2.96643Z" fill="#EB5757"/>
</g>
<defs>
<clipPath id="clip0">
<rect width="12" height="12" fill="white"/>
</clipPath>
</defs>
</svg>
