<svg width="12" height="12" viewBox="0 0 12 12" fill="none" xmlns="http://www.w3.org/2000/svg">
<path d="M11.9999 7.06878V4.99982H11.1723V7.06878H11.9999Z" fill="#C7CAC7"/>
<path d="M0.250072 8.59108L0.250072 3.40378C0.250072 3.26026 0.366349 3.14398 0.509865 3.14398L10.6627 3.14398C10.8062 3.14398 10.9225 3.26026 10.9225 3.40378L10.9225 8.59108C10.9225 8.7346 10.8062 8.85088 10.6627 8.85088L0.509865 8.85088C0.366349 8.85088 0.250072 8.7346 0.250072 8.59108Z" fill="#E7ECED" stroke="white" stroke-width="0.5"/>
<path d="M6.25 3.40002L0.629077 3.40002C0.419692 3.40002 0.25 3.59121 0.25 3.82712V8.17293C0.25 8.40884 0.419692 8.60002 0.629077 8.60002H6.25V3.40002Z" fill="#6FCF97"/>
</svg>
