<svg width="12" height="12" viewBox="0 0 12 12" fill="none" xmlns="http://www.w3.org/2000/svg">
<g clip-path="url(#clip0)">
<path d="M11.9999 7.07067V5.00171H11.1723V7.07067H11.9999Z" fill="#C7CAC7"/>
<path d="M0.249949 8.59096L0.249949 3.40365C0.249949 3.26014 0.366227 3.14386 0.509743 3.14386L10.6626 3.14386C10.8061 3.14386 10.9224 3.26014 10.9224 3.40365L10.9224 8.59096C10.9224 8.73448 10.8061 8.85076 10.6626 8.85076L0.509743 8.85076C0.366227 8.85076 0.249949 8.73448 0.249949 8.59096Z" fill="#E7ECED" stroke="white" stroke-width="0.5"/>
<path d="M3.25 3.40002H0.439538C0.334846 3.40002 0.25 3.59121 0.25 3.82712L0.25 8.17293C0.25 8.40884 0.334846 8.60002 0.439538 8.60002H3.25L3.25 3.40002Z" fill="#6FCF97"/>
</g>
<defs>
<clipPath id="clip0">
<rect width="12" height="12" fill="white"/>
</clipPath>
</defs>
</svg>
