<svg width="134" height="134" viewBox="0 0 134 134" fill="none" xmlns="http://www.w3.org/2000/svg">
<path fill-rule="evenodd" clip-rule="evenodd" d="M63.4645 66.9189C62.5268 65.9812 62 64.7094 62 63.3833V32C62 30.6739 62.5268 29.4021 63.4645 28.4645C64.4021 27.5268 65.6739 27 67 27C68.3261 27 69.5979 27.5268 70.5355 28.4645C71.4732 29.4021 72 30.6739 72 32V63.3833C72 64.7094 71.4732 65.9812 70.5355 66.9189C69.5979 67.8565 68.3261 68.3833 67 68.3833C65.6739 68.3833 64.4021 67.8565 63.4645 66.9189ZM34.7833 87.474C31.2419 80.7092 29.9183 73.0019 30.9996 65.4432C31.8318 59.7492 33.9906 54.3305 37.302 49.6243C40.6134 44.9181 44.9846 41.0561 50.063 38.3498C50.6394 38.0248 51.2747 37.8175 51.9319 37.7399C52.5891 37.6622 53.2552 37.7158 53.8915 37.8975C54.5279 38.0793 55.1218 38.3855 55.6389 38.7985C56.156 39.2115 56.5859 39.7231 56.9038 40.3035C57.2217 40.8839 57.4212 41.5217 57.4908 42.1798C57.5604 42.8379 57.4986 43.5033 57.309 44.1373C57.1195 44.7714 56.806 45.3615 56.3867 45.8735C55.9674 46.3854 55.4506 46.8091 54.8663 47.1198C51.1502 49.0831 47.9478 51.8927 45.5176 55.3217C43.0874 58.7507 41.4975 62.7031 40.8763 66.8598C40.2748 70.9198 40.6363 75.0643 41.9315 78.9589C43.2268 82.8534 45.4196 86.3889 48.333 89.2798C52.2504 93.1997 57.3029 95.7863 62.7734 96.6726C68.2439 97.5589 73.8546 96.6998 78.8093 94.2173C83.764 91.7347 87.8111 87.7549 90.3762 82.8424C92.9413 77.93 93.8942 72.3344 93.0996 66.8498C92.4773 62.6909 90.886 58.7365 88.4541 55.3058C86.0222 51.8751 82.8179 49.0642 79.0996 47.0998C78.4929 46.8029 77.9526 46.386 77.5114 45.8745C77.0703 45.363 76.7373 44.7674 76.5326 44.1236C76.328 43.4799 76.2559 42.8013 76.3208 42.1289C76.3856 41.4565 76.586 40.8043 76.9099 40.2115C77.2338 39.6187 77.6745 39.0977 78.2053 38.6799C78.7361 38.2621 79.3461 37.9562 79.9984 37.7807C80.6507 37.6051 81.3318 37.5636 82.0006 37.6585C82.6694 37.7535 83.312 37.983 83.8896 38.3332C88.9753 41.0348 93.3546 44.8942 96.6742 49.5999C99.9937 54.3057 102.16 59.7259 103 65.4232C103.834 71.0221 103.34 76.7389 101.556 82.1115C99.7728 87.484 96.7502 92.3615 92.733 96.3498C87.3292 101.745 80.3655 105.303 72.8276 106.521C65.2897 107.739 57.5596 106.555 50.7319 103.137C43.9041 99.7182 38.3246 94.2388 34.7833 87.474Z" fill="#FF9191"/>
<circle cx="67" cy="67" r="65.5" stroke="#FF9191" stroke-width="3"/>
</svg>
