<svg width="70" height="72" viewBox="0 0 70 72" fill="none" xmlns="http://www.w3.org/2000/svg">
<g filter="url(#filter0_d)">
<path d="M65.625 26.7188V33.2812C65.625 50.1906 51.9094 63.9062 35 63.9062C18.0906 63.9062 4.375 50.1906 4.375 33.2812V26.7188C4.375 43.6281 18.0906 57.3438 35 57.3438C51.9094 57.3438 65.625 43.6281 65.625 26.7188Z" fill="#CCD1D9"/>
<path opacity="0.7" d="M35 7C48.7875 7 60 18.2 60 32C60 45.7875 48.7875 57 35 57C21.2125 57 10 45.7875 10 32C10 18.2 21.2125 7 35 7ZM50 31.5C50 23.225 43.275 16.5 35 16.5C26.725 16.5 20 23.225 20 31.5C20 39.775 26.725 46.5 35 46.5C43.275 46.5 50 39.775 50 31.5Z" fill="white"/>
<path d="M66 32C66 49.1164 52.1164 63 35 63C17.8836 63 4 49.1164 4 32C4 14.8836 17.8836 1 35 1C52.1164 1 66 14.8836 66 32ZM57.1429 32C57.1429 19.7771 47.2118 9.85714 35 9.85714C22.7882 9.85714 12.8571 19.7771 12.8571 32C12.8571 44.2118 22.7882 54.1429 35 54.1429C47.2118 54.1429 57.1429 44.2118 57.1429 32Z" fill="#E6E9ED"/>
<path d="M35 12C46.0333 12 55 20.9667 55 32C55 43.0333 46.0333 52 35 52C23.9667 52 15 43.0333 15 32C15 20.9667 23.9667 12 35 12Z" fill="#F2F2F2"/>
<path d="M25.792 36.168C25.112 36.168 24.452 36.084 23.812 35.916C23.172 35.748 22.652 35.524 22.252 35.244L23.032 33.492C23.408 33.74 23.844 33.94 24.34 34.092C24.836 34.244 25.324 34.32 25.804 34.32C26.716 34.32 27.172 34.092 27.172 33.636C27.172 33.396 27.04 33.22 26.776 33.108C26.52 32.988 26.104 32.864 25.528 32.736C24.896 32.6 24.368 32.456 23.944 32.304C23.52 32.144 23.156 31.892 22.852 31.548C22.548 31.204 22.396 30.74 22.396 30.156C22.396 29.644 22.536 29.184 22.816 28.776C23.096 28.36 23.512 28.032 24.064 27.792C24.624 27.552 25.308 27.432 26.116 27.432C26.668 27.432 27.212 27.496 27.748 27.624C28.284 27.744 28.756 27.924 29.164 28.164L28.432 29.928C27.632 29.496 26.856 29.28 26.104 29.28C25.632 29.28 25.288 29.352 25.072 29.496C24.856 29.632 24.748 29.812 24.748 30.036C24.748 30.26 24.876 30.428 25.132 30.54C25.388 30.652 25.8 30.768 26.368 30.888C27.008 31.024 27.536 31.172 27.952 31.332C28.376 31.484 28.74 31.732 29.044 32.076C29.356 32.412 29.512 32.872 29.512 33.456C29.512 33.96 29.372 34.416 29.092 34.824C28.812 35.232 28.392 35.56 27.832 35.808C27.272 36.048 26.592 36.168 25.792 36.168ZM34.8455 36.168C33.9575 36.168 33.1575 35.98 32.4455 35.604C31.7415 35.228 31.1855 34.708 30.7775 34.044C30.3775 33.38 30.1775 32.632 30.1775 31.8C30.1775 30.968 30.3775 30.22 30.7775 29.556C31.1855 28.892 31.7415 28.372 32.4455 27.996C33.1575 27.62 33.9575 27.432 34.8455 27.432C35.7335 27.432 36.5295 27.62 37.2335 27.996C37.9455 28.372 38.5015 28.892 38.9015 29.556C39.3095 30.22 39.5135 30.968 39.5135 31.8C39.5135 32.632 39.3095 33.38 38.9015 34.044C38.5015 34.708 37.9455 35.228 37.2335 35.604C36.5295 35.98 35.7335 36.168 34.8455 36.168ZM34.8455 34.2C35.2695 34.2 35.6535 34.1 35.9975 33.9C36.3415 33.7 36.6135 33.42 36.8135 33.06C37.0135 32.692 37.1135 32.272 37.1135 31.8C37.1135 31.328 37.0135 30.912 36.8135 30.552C36.6135 30.184 36.3415 29.9 35.9975 29.7C35.6535 29.5 35.2695 29.4 34.8455 29.4C34.4215 29.4 34.0375 29.5 33.6935 29.7C33.3495 29.9 33.0775 30.184 32.8775 30.552C32.6775 30.912 32.5775 31.328 32.5775 31.8C32.5775 32.272 32.6775 32.692 32.8775 33.06C33.0775 33.42 33.3495 33.7 33.6935 33.9C34.0375 34.1 34.4215 34.2 34.8455 34.2ZM43.71 36.168C43.03 36.168 42.37 36.084 41.73 35.916C41.09 35.748 40.57 35.524 40.17 35.244L40.95 33.492C41.326 33.74 41.762 33.94 42.258 34.092C42.754 34.244 43.242 34.32 43.722 34.32C44.634 34.32 45.09 34.092 45.09 33.636C45.09 33.396 44.958 33.22 44.694 33.108C44.438 32.988 44.022 32.864 43.446 32.736C42.814 32.6 42.286 32.456 41.862 32.304C41.438 32.144 41.074 31.892 40.77 31.548C40.466 31.204 40.314 30.74 40.314 30.156C40.314 29.644 40.454 29.184 40.734 28.776C41.014 28.36 41.43 28.032 41.982 27.792C42.542 27.552 43.226 27.432 44.034 27.432C44.586 27.432 45.13 27.496 45.666 27.624C46.202 27.744 46.674 27.924 47.082 28.164L46.35 29.928C45.55 29.496 44.774 29.28 44.022 29.28C43.55 29.28 43.206 29.352 42.99 29.496C42.774 29.632 42.666 29.812 42.666 30.036C42.666 30.26 42.794 30.428 43.05 30.54C43.306 30.652 43.718 30.768 44.286 30.888C44.926 31.024 45.454 31.172 45.87 31.332C46.294 31.484 46.658 31.732 46.962 32.076C47.274 32.412 47.43 32.872 47.43 33.456C47.43 33.96 47.29 34.416 47.01 34.824C46.73 35.232 46.31 35.56 45.75 35.808C45.19 36.048 44.51 36.168 43.71 36.168Z" fill="#EB5757"/>
</g>
<defs>
<filter id="filter0_d" x="-4" y="0" width="78" height="78" filterUnits="userSpaceOnUse" color-interpolation-filters="sRGB">
<feFlood flood-opacity="0" result="BackgroundImageFix"/>
<feColorMatrix in="SourceAlpha" type="matrix" values="0 0 0 0 0 0 0 0 0 0 0 0 0 0 0 0 0 0 127 0"/>
<feOffset dy="4"/>
<feGaussianBlur stdDeviation="2"/>
<feColorMatrix type="matrix" values="0 0 0 0 0 0 0 0 0 0 0 0 0 0 0 0 0 0 0.25 0"/>
<feBlend mode="normal" in2="BackgroundImageFix" result="effect1_dropShadow"/>
<feBlend mode="normal" in="SourceGraphic" in2="effect1_dropShadow" result="shape"/>
</filter>
</defs>
</svg>
