<svg width="70" height="70" viewBox="0 0 70 70" fill="none" xmlns="http://www.w3.org/2000/svg">
<path d="M46.8783 20.5756H22.2726C19.3549 20.5756 17 18.2206 17 15.303V11.7879C17 10.8038 17.7732 10.0303 18.7575 10.0303H50.3934C51.3777 10.0303 52.1509 10.8038 52.1509 11.7879V15.303C52.1509 18.2205 49.796 20.5756 46.8783 20.5756Z" fill="#E0E0E0"/>
<path d="M53.0692 34.6114C53.0654 34.6154 53.0615 34.6193 53.0577 34.6232C48.1595 39.5261 41.6443 42.2667 34.7139 42.3393C27.7825 42.413 21.2104 39.81 16.2086 35.0105C15.5899 34.4168 15.5701 33.4337 16.1638 32.815L16.1753 32.8032C16.7702 32.1956 17.7445 32.1792 18.3598 32.7696C22.771 37.0029 28.5675 39.2981 34.6812 39.2336C40.7937 39.1691 46.54 36.7525 50.8608 32.4282C51.4668 31.8216 52.4501 31.8207 53.0573 32.4272C53.66 33.0294 53.6642 34.0038 53.0692 34.6114Z" fill="#FF889E"/>
<path d="M48.7583 30.3049C48.755 30.3082 48.7511 30.3122 48.7473 30.3161C44.9825 34.0837 39.9753 36.1899 34.6489 36.2461C29.322 36.3029 24.272 34.3024 20.4274 30.6139C19.8087 30.0202 19.7889 29.0371 20.382 28.4179C20.9835 27.7969 21.9594 27.7788 22.5781 28.3725C25.832 31.4947 30.107 33.188 34.6161 33.1404C39.1248 33.0923 43.363 31.3102 46.5498 28.1205C47.1558 27.5139 48.1397 27.5135 48.7463 28.1196C49.3495 28.7223 49.3537 29.6967 48.7583 30.3049Z" fill="#FF889E"/>
<path d="M44.4481 25.9979C44.4442 26.0019 44.4409 26.0052 44.4371 26.0092C41.8058 28.6416 38.3072 30.1138 34.5847 30.1526C30.8622 30.1924 27.3322 28.7944 24.647 26.2169C24.0283 25.6233 24.0074 24.6401 24.6016 24.0209C25.2003 23.4027 26.1785 23.3824 26.7972 23.9761C28.8928 25.9872 31.6472 27.0775 34.5519 27.0469C37.4566 27.0162 40.1863 25.868 42.2396 23.8136C42.8456 23.207 43.8284 23.2066 44.4355 23.8132C45.0388 24.4148 45.043 25.3903 44.4481 25.9979Z" fill="#FF889E"/>
<path d="M59.4494 4.53106L56.8835 9.62794C56.0047 11.4204 54.1768 12.5453 52.1734 12.5453H17.8661C15.8627 12.5453 14.0348 11.4205 13.156 9.62794L10.5901 4.53106C10.0276 3.37096 10.8712 2.00008 12.1718 2.00008H57.868C59.1683 2.00019 60.0119 3.37108 59.4494 4.53106Z" fill="#E6E9ED"/>
<path d="M64.9909 1.75765C64.9909 0.773544 64.2177 0.000106335 63.2333 0.000106335H6.75755C5.7732 0.000106335 5 0.773544 5 1.75765C5 2.74199 5.7732 3.5152 6.75755 3.5152H63.2333C64.2177 3.5152 64.9909 2.74188 64.9909 1.75765Z" fill="#F2F2F2"/>
<path d="M41.1724 42.6207L40.8189 42.9742L41.368 43.5233L41.6406 42.7962C42.7703 39.7836 44.3309 38.1175 45.581 37.2057C46.0252 36.8817 46.4329 36.651 46.7719 36.4885C45.9167 39.0506 46.26 41.7483 46.8266 44.5621C46.9578 45.2136 47.101 45.872 47.2461 46.5392C47.8236 49.1939 48.4311 51.9866 48.4311 55.0345C48.4311 62.4713 42.4023 68.5 34.9655 68.5C27.5288 68.5 21.5 62.4713 21.5 55.0345C21.5 52.1931 22.1549 50.1634 22.8281 48.0771C22.9597 47.6692 23.092 47.2591 23.2202 46.8404C23.9346 44.5081 24.4871 41.9902 23.9826 38.2874C24.4534 38.668 25.0486 39.2139 25.6439 39.9331C26.9519 41.5131 28.2587 43.9255 28.2587 47.2759V48.4295L29.1006 47.6407L28.7587 47.2759C29.1006 47.6407 29.1011 47.6402 29.1017 47.6396L29.1029 47.6385L29.1054 47.6361L29.1107 47.631L29.1228 47.6188C29.1314 47.6099 29.1412 47.5993 29.152 47.5869C29.1737 47.5622 29.1995 47.5302 29.2287 47.4899C29.2869 47.4091 29.3583 47.2948 29.436 47.1368C29.5912 46.8214 29.7728 46.3295 29.927 45.5764C30.2349 44.0732 30.4392 41.5003 30.0829 37.1488C29.6825 32.2585 31.3921 29.0953 33.1785 27.1507C34.0766 26.1731 34.9998 25.498 35.6969 25.0681C35.7604 25.0289 35.822 24.9918 35.8815 24.9567C34.6676 30.0639 35.7782 34.4426 37.245 37.5945C38.0301 39.2815 38.9185 40.6209 39.6116 41.5398C39.9585 41.9995 40.257 42.3549 40.4704 42.5968C40.5771 42.7178 40.6626 42.8105 40.7222 42.8737C40.752 42.9054 40.7753 42.9296 40.7916 42.9464L40.8108 42.966L40.8162 42.9715L40.8179 42.9732L40.8185 42.9738C40.8187 42.974 40.8189 42.9742 41.1724 42.6207Z" fill="#FFB446" stroke="white"/>
<path d="M31.0864 53.4828C30.3105 58.138 28.7588 59.8328 28.7588 62.7932C28.7588 65.8967 31.5378 69.0001 34.9657 69.0001C38.4184 69.0001 41.1821 66.1791 41.1725 62.7264C41.1466 53.4532 35.7416 48.8277 35.7416 48.8277C36.5175 53.4829 34.1899 55.8104 34.1899 55.8104C33.2203 54.3562 31.0864 53.4828 31.0864 53.4828Z" fill="white"/>
</svg>
