<svg width="80" height="80" viewBox="0 0 80 80" fill="none" xmlns="http://www.w3.org/2000/svg">
<g clip-path="url(#clip0)">
<path d="M73.4736 19.3105V72.979C73.4736 76.8565 70.3305 80.0003 66.4524 80.0003H20.8953C17.0178 80.0003 13.874 76.8565 13.874 72.979V43.7614H41.9007V15.6065H13.874V7.02124C13.874 3.14379 17.0178 0 20.8953 0H54.7289L54.9044 0.181016L54.7289 0.351062V15.7998C54.7282 17.7389 56.3004 19.3105 58.2395 19.3105H73.1226L73.3036 19.1349L73.4736 19.3105Z" fill="#00ACEA"/>
<path d="M73.3037 19.1346L73.1227 19.3101H58.2396C56.3006 19.3101 54.7283 17.7386 54.729 15.7995V0.35071L54.9045 0.180664L73.3037 19.1346Z" fill="#FEDB41"/>
<path d="M41.9007 15.6064V43.7613H6.62793V15.6064H41.9007Z" fill="#00EFD1"/>
<path d="M41.3377 54.8915H23.1909C22.222 54.8915 21.4355 54.1057 21.4355 53.1362C21.4355 52.1666 22.222 51.3809 23.1909 51.3809H41.3377C42.3073 51.3809 43.093 52.1666 43.093 53.1362C43.093 54.1057 42.3073 54.8915 41.3377 54.8915Z" fill="#D4E1F4"/>
<path d="M64.1568 62.4471H23.1909C22.222 62.4471 21.4355 61.6607 21.4355 60.6918C21.4355 59.7223 22.222 58.9365 23.1909 58.9365H64.1568C65.1263 58.9365 65.9121 59.7223 65.9121 60.6918C65.9121 61.6607 65.1263 62.4471 64.1568 62.4471Z" fill="#D4E1F4"/>
<path d="M64.1568 70.0018H23.1909C22.222 70.0018 21.4355 69.2161 21.4355 68.2465C21.4355 67.277 22.222 66.4912 23.1909 66.4912H64.1568C65.1263 66.4912 65.9121 67.277 65.9121 68.2465C65.9121 69.2161 65.1263 70.0018 64.1568 70.0018Z" fill="#D4E1F4"/>
<path d="M25.4749 20.2706C24.794 19.6103 23.712 19.6103 23.0312 20.2706L16.3349 26.7618C15.6479 27.4379 15.6349 28.5418 16.3061 29.2343C16.9774 29.9262 18.0806 29.9481 18.7786 29.2823L22.4977 25.6771V37.7572C22.4977 38.726 23.2835 39.5125 24.253 39.5125C25.2226 39.5125 26.0083 38.726 26.0083 37.7572V25.6771L29.7281 29.2823C30.1772 29.7246 30.8293 29.8919 31.4354 29.7212C32.0422 29.5498 32.5105 29.0664 32.6627 28.4547C32.815 27.8431 32.6271 27.1965 32.1711 26.7618L25.4749 20.2706Z" fill="#00ACEA"/>
</g>
<defs>
<clipPath id="clip0">
<rect width="80" height="80" fill="white"/>
</clipPath>
</defs>
</svg>
