<svg width="66" height="65" viewBox="0 0 66 65" fill="none" xmlns="http://www.w3.org/2000/svg">
<path d="M58 41H9L21.8729 36.3782L16.0593 23.563L29.1398 29.4454L33.7076 16L38.6907 29.4454L51.1483 23.563L45.1271 36.3782L58 41Z" fill="#E6E9ED"/>
<path d="M33.1851 47.28C36.5928 47.28 39.3702 44.5393 39.3702 41.14C39.3702 37.7408 36.5928 35 33.1851 35C29.7774 35 27 37.7408 27 41.14C27 44.5393 29.7774 47.28 33.1851 47.28Z" fill="#E6E9ED" stroke="white" stroke-width="2"/>
<path fill-rule="evenodd" clip-rule="evenodd" d="M18.8135 3.54676C19.6038 3.29819 20.0429 2.45605 19.7943 1.6658C19.5457 0.875543 18.7036 0.436424 17.9133 0.684997C13.8822 1.953 10.2369 5.02195 7.37071 8.17696C4.48214 11.3566 2.24284 14.782 1.04825 16.9985C0.655228 17.7278 0.927804 18.6376 1.65707 19.0306C2.38633 19.4236 3.29612 19.1511 3.68915 18.4218C4.77952 16.3986 6.88164 13.1768 9.59122 10.1942C12.3232 7.18701 15.5328 4.5787 18.8135 3.54676ZM20.8986 10.5167C21.6779 10.2356 22.0818 9.37603 21.8008 8.59674C21.5197 7.81745 20.6601 7.41355 19.8808 7.69461C17.001 8.73325 14.498 10.9749 12.5811 13.2068C10.6462 15.4595 9.18261 17.8504 8.41121 19.4C8.04203 20.1416 8.34394 21.0421 9.08556 21.4112C9.82718 21.7804 10.7277 21.4785 11.0968 20.7369C11.7668 19.391 13.0965 17.211 14.8569 15.1614C16.6351 13.0911 18.7293 11.2991 20.8986 10.5167Z" fill="#FF9191"/>
<path fill-rule="evenodd" clip-rule="evenodd" d="M62.0882 18.8344C62.3368 19.6246 63.179 20.0638 63.9692 19.8152C64.7595 19.5666 65.1986 18.7245 64.95 17.9342C63.682 13.903 60.6131 10.2578 57.4581 7.39159C54.2784 4.50302 50.853 2.26371 48.6365 1.06913C47.9072 0.676102 46.9974 0.948678 46.6044 1.67794C46.2114 2.4072 46.4839 3.317 47.2132 3.71002C49.2364 4.8004 52.4582 6.90251 55.4408 9.6121C58.448 12.344 61.0563 15.5537 62.0882 18.8344ZM55.1182 20.9194C55.3993 21.6987 56.2589 22.1026 57.0382 21.8216C57.8174 21.5405 58.2213 20.6809 57.9403 19.9016C56.9016 17.0218 54.66 14.5188 52.4281 12.6019C50.1754 10.667 47.7845 9.20342 46.2349 8.43203C45.4933 8.06284 44.5928 8.36476 44.2237 9.10638C43.8545 9.84799 44.1564 10.7485 44.898 11.1177C46.2439 11.7877 48.4239 13.1173 50.4735 14.8777C52.5438 16.6559 54.3358 18.7501 55.1182 20.9194Z" fill="#FF9191"/>
<path fill-rule="evenodd" clip-rule="evenodd" d="M47.1085 61.1683C46.3182 61.4169 45.8791 62.259 46.1277 63.0493C46.3763 63.8395 47.2184 64.2787 48.0087 64.0301C52.0398 62.7621 55.6851 59.6931 58.5513 56.5381C61.4399 53.3585 63.6792 49.9331 64.8737 47.7165C65.2668 46.9873 64.9942 46.0775 64.2649 45.6845C63.5357 45.2914 62.6259 45.564 62.2329 46.2933C61.1425 48.3165 59.0404 51.5383 56.3308 54.5209C53.5988 57.5281 50.3892 60.1364 47.1085 61.1683ZM45.0234 54.1984C44.2441 54.4795 43.8402 55.3391 44.1212 56.1183C44.4023 56.8976 45.2619 57.3015 46.0412 57.0205C48.921 55.9818 51.424 53.7402 53.3409 51.5083C55.2758 49.2556 56.7394 46.8647 57.5108 45.3151C57.88 44.5735 57.5781 43.673 56.8364 43.3039C56.0948 42.9347 55.1943 43.2366 54.8252 43.9782C54.1552 45.3241 52.8255 47.5041 51.0651 49.5536C49.2869 51.624 47.1927 53.416 45.0234 54.1984Z" fill="#FF9191"/>
<path fill-rule="evenodd" clip-rule="evenodd" d="M3.87049 46.1545C3.62192 45.3643 2.77978 44.9251 1.98953 45.1737C1.19927 45.4223 0.760154 46.2644 1.00873 47.0547C2.27673 51.0859 5.34568 54.7311 8.50069 57.5973C11.6803 60.4859 15.1057 62.7252 17.3223 63.9198C18.0515 64.3128 18.9613 64.0402 19.3544 63.311C19.7474 62.5817 19.4748 61.6719 18.7455 61.2789C16.7223 60.1885 13.5005 58.0864 10.5179 55.3768C7.51074 52.6449 4.90243 49.4352 3.87049 46.1545ZM10.8405 44.0695C10.5595 43.2902 9.69988 42.8863 8.92058 43.1673C8.14129 43.4484 7.73739 44.308 8.01845 45.0873C9.05709 47.9671 11.2987 50.4701 13.5306 52.387C15.7833 54.3219 18.1742 55.7855 19.7238 56.5569C20.4654 56.926 21.3659 56.6241 21.7351 55.8825C22.1043 55.1409 21.8023 54.2404 21.0607 53.8712C19.7148 53.2012 17.5348 51.8716 15.4853 50.1112C13.4149 48.333 11.6229 46.2388 10.8405 44.0695Z" fill="#FF9191"/>
</svg>
